<svg width="20" height="20" viewBox="0 0 20 20" fill="none" xmlns="http://www.w3.org/2000/svg">
<path d="M14.2258 0.182953H5.77421C2.58813 0.182953 0 2.72646 0 5.85007V14.1499C0 17.2825 2.58813 19.817 5.77421 19.817H14.2258C17.4119 19.817 20 17.2825 20 14.1499V5.85007C20 2.72646 17.4119 0.182953 14.2258 0.182953ZM18.1526 14.2927C18.1526 16.3722 16.4391 18.05 14.324 18.05H5.67604C3.56091 18.05 1.84739 16.3632 1.84739 14.2927V5.80544C1.84739 3.72601 3.56091 2.04819 5.67604 2.04819H14.324C16.4391 2.04819 18.1526 3.73494 18.1526 5.80544V14.2927ZM9.99554 4.95761C7.13074 4.95761 4.81035 7.23338 4.81035 10.0535C4.81035 12.8737 7.13074 15.1406 9.99554 15.1406C12.8603 15.1406 15.1896 12.8559 15.1896 10.0535C15.1896 7.25123 12.8603 4.95761 9.99554 4.95761ZM9.99554 13.3467C8.13922 13.3467 6.63097 11.8742 6.63097 10.0446C6.63097 8.21508 8.13922 6.74252 9.99554 6.74252C11.8519 6.74252 13.3601 8.22401 13.3601 10.0446C13.3601 11.8652 11.8519 13.3467 9.99554 13.3467ZM15.3592 3.5743C14.6899 3.5743 14.1544 4.10085 14.1544 4.76127C14.1544 5.42169 14.6988 5.94824 15.3592 5.94824C16.0196 5.94824 16.564 5.42169 16.564 4.76127C16.564 4.10085 16.0196 3.5743 15.3592 3.5743Z" fill="#041022"/>
</svg>
