<svg width="20" height="16" viewBox="0 0 20 16" fill="none" xmlns="http://www.w3.org/2000/svg">
<path d="M19.6998 3.45748C19.3138 1.91352 18.599 1.32739 17.2838 1.11295C16.5261 0.998581 12.8878 0.855621 10 0.855621C7.11223 0.855621 3.46676 0.998581 2.71622 1.11295C1.401 1.32739 0.686205 1.92067 0.307363 3.45748C0.178699 3.97213 0 6.80273 0 7.88207V8.11795C0 9.1973 0.178699 12.0279 0.307363 12.5425C0.686205 14.0794 1.401 14.6726 2.71622 14.8871C3.47391 15.0014 7.11937 15.1444 10.0071 15.1444H9.99285C12.8878 15.1444 16.5261 15.0014 17.2838 14.8871C18.599 14.6726 19.3138 14.0794 19.6998 12.5425C19.8284 12.0279 20 9.1973 20 8.11795V7.88207C20 6.80273 19.8213 3.97213 19.6998 3.45748ZM8.17727 10.5983V5.40887L12.995 7.9464L8.17727 10.6054V10.5983Z" fill="#041022"/>
</svg>
