<svg width="36" height="36" viewBox="0 0 36 36" fill="none" xmlns="http://www.w3.org/2000/svg">
<rect width="36" height="36" rx="18" fill="#FF0101"/>
<path d="M27.6998 13.4574C27.3138 11.9135 26.599 11.3274 25.2838 11.1129C24.5261 10.9986 20.8878 10.8556 18 10.8556C15.1122 10.8556 11.4668 10.9986 10.7162 11.1129C9.401 11.3274 8.6862 11.9206 8.30736 13.4574C8.1787 13.9721 8 16.8027 8 17.882V18.1179C8 19.1973 8.1787 22.0279 8.30736 22.5425C8.6862 24.0793 9.401 24.6726 10.7162 24.887C11.4739 25.0014 15.1194 25.1444 18.0071 25.1444H17.9929C20.8878 25.1444 24.5261 25.0014 25.2838 24.887C26.599 24.6726 27.3138 24.0793 27.6998 22.5425C27.8284 22.0279 28 19.1973 28 18.1179V17.882C28 16.8027 27.8213 13.9721 27.6998 13.4574ZM16.1773 20.5983V15.4088L20.995 17.9464L16.1773 20.6054V20.5983Z" fill="white"/>
</svg>
