<svg width="21" height="20" viewBox="0 0 21 20" fill="none" xmlns="http://www.w3.org/2000/svg">
<mask id="mask0_1783_4439" style="mask-type:alpha" maskUnits="userSpaceOnUse" x="0" y="0" width="21" height="20">
<rect x="0.5" width="20" height="20" fill="#D9D9D9"/>
</mask>
<g mask="url(#mask0_1783_4439)">
<path d="M5.20123 17.1708C4.95896 17.1708 4.75327 17.0877 4.58419 16.9216C4.41511 16.7554 4.33057 16.5518 4.33057 16.3106C4.33057 16.0695 4.41403 15.8643 4.58096 15.6953C4.74788 15.5262 4.95248 15.4416 5.19475 15.4416H15.7987C16.041 15.4416 16.2466 15.5247 16.4157 15.6909C16.5848 15.857 16.6694 16.0607 16.6694 16.3018C16.6694 16.543 16.5859 16.7481 16.419 16.9172C16.252 17.0863 16.0474 17.1708 15.8052 17.1708H5.20123ZM10.4958 13.6042C10.3825 13.6042 10.2738 13.5827 10.1697 13.5397C10.0656 13.4967 9.97384 13.4355 9.89444 13.3561L6.93813 10.3997C6.76407 10.2257 6.68052 10.023 6.68746 9.79174C6.69441 9.56045 6.78589 9.35679 6.96192 9.18076C7.13795 9.00473 7.3416 8.91672 7.57288 8.91672C7.80416 8.91672 8.00781 9.00473 8.18384 9.18076L9.63538 10.6531V3.69663C9.63538 3.45423 9.71846 3.24953 9.88461 3.08253C10.0508 2.91553 10.2544 2.83203 10.4956 2.83203C10.7367 2.83203 10.9418 2.91553 11.1109 3.08253C11.28 3.24953 11.3645 3.45423 11.3645 3.69663V10.6531L12.8369 9.18076C13.0129 9.00473 13.2166 8.92019 13.4479 8.92714C13.6792 8.93408 13.8828 9.02557 14.0588 9.20159C14.2349 9.37762 14.3229 9.58128 14.3229 9.81257C14.3229 10.0439 14.2359 10.246 14.0618 10.4191L11.1055 13.3561C11.0205 13.4355 10.926 13.4967 10.8219 13.5397C10.7178 13.5827 10.6091 13.6042 10.4958 13.6042Z" fill="white"/>
</g>
</svg>
