<svg width="40" height="40" viewBox="0 0 40 40" fill="none" xmlns="http://www.w3.org/2000/svg">
<g clip-path="url(#clip0_20_5)">
<mask id="mask0_20_5" style="mask-type:alpha" maskUnits="userSpaceOnUse" x="0" y="0" width="40" height="40">
<path d="M40 0H0V40H40V0Z" fill="#D9D9D9"/>
</mask>
<g mask="url(#mask0_20_5)">
<path d="M27.1667 13.1111V7.77775H12.8334V13.1111H10.0556V5H29.9445V13.1111H27.1667ZM30.5278 19.9166C30.9075 19.9166 31.2339 19.7801 31.507 19.5069C31.7801 19.2338 31.9167 18.9074 31.9167 18.5278C31.9167 18.1481 31.7801 17.8218 31.507 17.5486C31.2339 17.2754 30.9075 17.1389 30.5278 17.1389C30.1482 17.1389 29.8218 17.2754 29.5487 17.5486C29.2755 17.8218 29.139 18.1481 29.139 18.5278C29.139 18.9074 29.2755 19.2338 29.5487 19.5069C29.8218 19.7801 30.1482 19.9166 30.5278 19.9166ZM27.1667 32.2222V24.6667H12.8334V32.2222H27.1667ZM29.9445 35H10.0556V27.8889H3.33337V17.7222C3.33337 16.4157 3.77782 15.3206 4.66671 14.4368C5.5556 13.553 6.64818 13.1111 7.94446 13.1111H32.0556C33.3621 13.1111 34.4572 13.553 35.341 14.4368C36.2248 15.3206 36.6667 16.4157 36.6667 17.7222V27.8889H29.9445V35ZM33.889 25.1111V17.7163C33.889 17.1924 33.7133 16.7569 33.3619 16.4097C33.0105 16.0625 32.5751 15.8889 32.0556 15.8889H7.94446C7.42501 15.8889 6.9896 16.0646 6.63821 16.416C6.28682 16.7673 6.11112 17.2028 6.11112 17.7222V25.1111H10.0556V21.8889H29.9445V25.1111H33.889Z" fill="#666666"/>
</g>
</g>
<defs>
<clipPath id="clip0_20_5">
<rect width="40" height="40" fill="white"/>
</clipPath>
</defs>
</svg>
