<svg width="21" height="20" viewBox="0 0 21 20" fill="none" xmlns="http://www.w3.org/2000/svg">
<mask id="mask0_1680_4111" style="mask-type:alpha" maskUnits="userSpaceOnUse" x="0" y="0" width="21" height="20">
<rect x="0.5" width="20" height="20" fill="#D9D9D9"/>
</mask>
<g mask="url(#mask0_1680_4111)">
<path d="M10.5007 13.332L6.33398 9.16536L7.50065 7.95703L9.66732 10.1237V3.33203H11.334V10.1237L13.5007 7.95703L14.6673 9.16536L10.5007 13.332ZM5.50065 16.6654C5.04232 16.6654 4.64996 16.5022 4.32357 16.1758C3.99718 15.8494 3.83398 15.457 3.83398 14.9987V12.4987H5.50065V14.9987H15.5007V12.4987H17.1673V14.9987C17.1673 15.457 17.0041 15.8494 16.6777 16.1758C16.3513 16.5022 15.959 16.6654 15.5007 16.6654H5.50065Z" fill="white"/>
</g>
</svg>
