<svg width="24" height="14" viewBox="0 0 24 14" fill="none" xmlns="http://www.w3.org/2000/svg">
<path d="M5.75 3.25V0.75H23.25V3.25H5.75ZM5.75 8.25V5.75H23.25V8.25H5.75ZM5.75 13.25V10.75H23.25V13.25H5.75ZM2 3.25C1.64583 3.25 1.34896 3.13021 1.10937 2.89062C0.869792 2.65104 0.75 2.35417 0.75 2C0.75 1.64583 0.869792 1.34896 1.10937 1.10937C1.34896 0.869792 1.64583 0.75 2 0.75C2.35417 0.75 2.65104 0.869792 2.89062 1.10937C3.13021 1.34896 3.25 1.64583 3.25 2C3.25 2.35417 3.13021 2.65104 2.89062 2.89062C2.65104 3.13021 2.35417 3.25 2 3.25ZM2 8.25C1.64583 8.25 1.34896 8.13021 1.10937 7.89063C0.869792 7.65104 0.75 7.35417 0.75 7C0.75 6.64583 0.869792 6.34896 1.10937 6.10937C1.34896 5.86979 1.64583 5.75 2 5.75C2.35417 5.75 2.65104 5.86979 2.89062 6.10937C3.13021 6.34896 3.25 6.64583 3.25 7C3.25 7.35417 3.13021 7.65104 2.89062 7.89063C2.65104 8.13021 2.35417 8.25 2 8.25ZM2 13.25C1.64583 13.25 1.34896 13.1302 1.10937 12.8906C0.869792 12.651 0.75 12.3542 0.75 12C0.75 11.6458 0.869792 11.349 1.10937 11.1094C1.34896 10.8698 1.64583 10.75 2 10.75C2.35417 10.75 2.65104 10.8698 2.89062 11.1094C3.13021 11.349 3.25 11.6458 3.25 12C3.25 12.3542 3.13021 12.651 2.89062 12.8906C2.65104 13.1302 2.35417 13.25 2 13.25Z" fill="white"/>
</svg>
