<svg width="24" height="24" viewBox="0 0 24 24" fill="none" xmlns="http://www.w3.org/2000/svg">
<mask id="mask0_185_5659" style="mask-type:alpha" maskUnits="userSpaceOnUse" x="0" y="0" width="24" height="24">
<rect width="24" height="24" fill="#D9D9D9"/>
</mask>
<g mask="url(#mask0_185_5659)">
<mask id="mask1_185_5659" style="mask-type:alpha" maskUnits="userSpaceOnUse" x="1" y="1" width="18" height="20">
<path fill-rule="evenodd" clip-rule="evenodd" d="M19 1H1V21H12.5V13H19V1Z" fill="#D9D9D9"/>
</mask>
<g mask="url(#mask1_185_5659)">
<path d="M3.8077 21C3.30257 21 2.875 20.825 2.525 20.475C2.175 20.125 2 19.6974 2 19.1923V3.8077C2 3.30257 2.175 2.875 2.525 2.525C2.875 2.175 3.30257 2 3.8077 2H16.1923C16.6974 2 17.125 2.175 17.475 2.525C17.825 2.875 18 3.30257 18 3.8077V19.1923C18 19.6974 17.825 20.125 17.475 20.475C17.125 20.825 16.6974 21 16.1923 21H3.8077ZM3.8077 19.5H16.1923C16.2692 19.5 16.3397 19.4679 16.4038 19.4038C16.4679 19.3397 16.5 19.2692 16.5 19.1923V3.8077C16.5 3.73077 16.4679 3.66024 16.4038 3.59613C16.3397 3.53203 16.2692 3.49998 16.1923 3.49998H3.8077C3.73077 3.49998 3.66024 3.53203 3.59612 3.59613C3.53202 3.66024 3.49997 3.73077 3.49997 3.8077V19.1923C3.49997 19.2692 3.53202 19.3397 3.59612 19.4038C3.66024 19.4679 3.73077 19.5 3.8077 19.5Z" fill="#1C1B1F"/>
</g>
</g>
<path d="M14.044 21V14.136H15.556V16.896H18.856V14.136H20.368V21H18.856V18.144H15.556V21H14.044Z" fill="#1A1A1A"/>
<path d="M7 16V11.4038C7 10.641 7.26763 9.99195 7.80288 9.4567C8.33813 8.92145 8.98716 8.65382 9.74997 8.65382L11.0962 8.65382V7L13.5 9.4038L11.0962 11.8076V10.1538L9.74997 10.1538C9.40254 10.1538 9.10734 10.2752 8.86437 10.5182C8.62142 10.7612 8.49995 11.0564 8.49995 11.4038V16H7Z" fill="#1C1B1F"/>
</svg>
