<svg width="24" height="24" viewBox="0 0 24 24" fill="none" xmlns="http://www.w3.org/2000/svg">
<mask id="mask0_185_5641" style="mask-type:alpha" maskUnits="userSpaceOnUse" x="0" y="0" width="24" height="24">
<rect width="24" height="24" fill="#D9D9D9"/>
</mask>
<g mask="url(#mask0_185_5641)">
<mask id="mask1_185_5641" style="mask-type:alpha" maskUnits="userSpaceOnUse" x="1" y="1" width="18" height="20">
<path fill-rule="evenodd" clip-rule="evenodd" d="M19 1H1V21H12V13H19V1Z" fill="#D9D9D9"/>
</mask>
<g mask="url(#mask1_185_5641)">
<path d="M6.55835 16.2692C6.80918 16.2692 7.01921 16.1844 7.18843 16.0147C7.35766 15.845 7.44228 15.6347 7.44228 15.3839C7.44228 15.1331 7.35743 14.923 7.18775 14.7538C7.01808 14.5846 6.80783 14.5 6.557 14.5C6.30617 14.5 6.09613 14.5848 5.9269 14.7545C5.75768 14.9242 5.67308 15.1344 5.67308 15.3853C5.67308 15.6361 5.75791 15.8461 5.92758 16.0154C6.09726 16.1846 6.30752 16.2692 6.55835 16.2692ZM6.55835 12.3846C6.80918 12.3846 7.01921 12.2997 7.18843 12.1301C7.35766 11.9604 7.44228 11.7501 7.44228 11.4993C7.44228 11.2485 7.35743 11.0384 7.18775 10.8692C7.01808 10.7 6.80783 10.6154 6.557 10.6154C6.30617 10.6154 6.09613 10.7002 5.9269 10.8699C5.75768 11.0396 5.67308 11.2498 5.67308 11.5007C5.67308 11.7515 5.75791 11.9615 5.92758 12.1308C6.09726 12.3 6.30752 12.3846 6.55835 12.3846ZM6.55835 8.49998C6.80918 8.49998 7.01921 8.41513 7.18843 8.24545C7.35766 8.07578 7.44228 7.86553 7.44228 7.6147C7.44228 7.36387 7.35743 7.15383 7.18775 6.9846C7.01808 6.81537 6.80783 6.73075 6.557 6.73075C6.30617 6.73075 6.09613 6.81559 5.9269 6.98528C5.75768 7.15496 5.67308 7.36522 5.67308 7.61605C5.67308 7.86688 5.75791 8.07691 5.92758 8.24613C6.09726 8.41536 6.30752 8.49998 6.55835 8.49998ZM9.59613 16.1346H14.2884V14.6346H9.59613V16.1346ZM9.59613 12.25H14.2884V10.75H9.59613V12.25ZM9.59613 8.36535H14.2884V6.86538H9.59613V8.36535ZM3.8077 21C3.30257 21 2.875 20.825 2.525 20.475C2.175 20.125 2 19.6974 2 19.1923V3.8077C2 3.30257 2.175 2.875 2.525 2.525C2.875 2.175 3.30257 2 3.8077 2H16.1923C16.6974 2 17.125 2.175 17.475 2.525C17.825 2.875 18 3.30257 18 3.8077V19.1923C18 19.6974 17.825 20.125 17.475 20.475C17.125 20.825 16.6974 21 16.1923 21H3.8077ZM3.8077 19.5H16.1923C16.2692 19.5 16.3397 19.4679 16.4038 19.4038C16.4679 19.3397 16.5 19.2692 16.5 19.1923V3.8077C16.5 3.73077 16.4679 3.66024 16.4038 3.59613C16.3397 3.53203 16.2692 3.49998 16.1923 3.49998H3.8077C3.73077 3.49998 3.66024 3.53203 3.59612 3.59613C3.53202 3.66024 3.49997 3.73077 3.49997 3.8077V19.1923C3.49997 19.2692 3.53202 19.3397 3.59612 19.4038C3.66024 19.4679 3.73077 19.5 3.8077 19.5Z" fill="#1C1B1F"/>
</g>
</g>
<path d="M13.044 21V14.136H14.34L17.256 18.936H16.644L19.512 14.136H20.808L20.82 21H19.38L19.368 16.404H19.596L17.268 20.232H16.584L14.184 16.404H14.484V21H13.044Z" fill="#1A1A1A"/>
</svg>
