<svg width="24" height="24" viewBox="0 0 24 24" fill="none" xmlns="http://www.w3.org/2000/svg">
<mask id="mask0_185_5669" style="mask-type:alpha" maskUnits="userSpaceOnUse" x="0" y="0" width="24" height="24">
<rect width="24" height="24" fill="#D9D9D9"/>
</mask>
<g mask="url(#mask0_185_5669)">
<mask id="mask1_185_5669" style="mask-type:alpha" maskUnits="userSpaceOnUse" x="1" y="1" width="18" height="21">
<path fill-rule="evenodd" clip-rule="evenodd" d="M19 1.5H1V22H13.9995C12.7853 21.0878 12 19.6356 12 18C12 15.2386 14.2386 13 17 13C17.7111 13 18.3875 13.1484 19 13.416V1.5Z" fill="#D9D9D9"/>
</mask>
<g mask="url(#mask1_185_5669)">
<path d="M5.75 17.25H14.25V15.75H5.75V17.25ZM5.75 13.25H14.25V11.75H5.75V13.25ZM3.8077 21C3.30257 21 2.875 20.825 2.525 20.475C2.175 20.125 2 19.6974 2 19.1923V3.8077C2 3.30257 2.175 2.875 2.525 2.525C2.875 2.175 3.30257 2 3.8077 2H12.75L18 7.24995V19.1923C18 19.6974 17.825 20.125 17.475 20.475C17.125 20.825 16.6974 21 16.1922 21H3.8077ZM12 7.99995V3.49998H3.8077C3.73077 3.49998 3.66024 3.53203 3.59612 3.59613C3.53202 3.66024 3.49997 3.73077 3.49997 3.8077V19.1923C3.49997 19.2692 3.53202 19.3397 3.59612 19.4038C3.66024 19.4679 3.73077 19.5 3.8077 19.5H16.1922C16.2692 19.5 16.3397 19.4679 16.4038 19.4038C16.4679 19.3397 16.5 19.2692 16.5 19.1923V7.99995H12Z" fill="#1C1B1F"/>
</g>
</g>
<path d="M17.248 21.62C16.528 21.62 15.884 21.468 15.316 21.164C14.748 20.852 14.3 20.428 13.972 19.892C13.644 19.356 13.48 18.748 13.48 18.068C13.48 17.388 13.644 16.784 13.972 16.256C14.3 15.72 14.748 15.3 15.316 14.996C15.884 14.684 16.528 14.528 17.248 14.528C17.872 14.528 18.416 14.624 18.88 14.816C19.352 15 19.752 15.292 20.08 15.692L19.096 16.628C18.856 16.348 18.584 16.144 18.28 16.016C17.976 15.88 17.648 15.812 17.296 15.812C16.856 15.812 16.46 15.908 16.108 16.1C15.764 16.292 15.492 16.56 15.292 16.904C15.1 17.24 15.004 17.628 15.004 18.068C15.004 18.508 15.1 18.9 15.292 19.244C15.492 19.588 15.764 19.856 16.108 20.048C16.46 20.24 16.856 20.336 17.296 20.336C17.648 20.336 17.976 20.268 18.28 20.132C18.584 19.996 18.856 19.788 19.096 19.508L20.08 20.456C19.752 20.848 19.352 21.14 18.88 21.332C18.408 21.524 17.864 21.62 17.248 21.62Z" fill="#1A1A1A"/>
</svg>
