<svg width="24" height="24" viewBox="0 0 24 24" fill="none" xmlns="http://www.w3.org/2000/svg">
<rect x="0.5" y="0.5" width="23" height="23" rx="3.5" fill="white"/>
<rect x="0.5" y="0.5" width="23" height="23" rx="3.5" stroke="#D34D32"/>
<path d="M8.5 7V5.5H7V7H8.5ZM12.8077 12.2273V10.7273V12.2273ZM10 18.5V7H7V18.5H10ZM8.5 8.5H12.8077V5.5H8.5V8.5ZM12.8077 8.5C13.1451 8.5 13.4731 8.58852 13.6748 8.73536C13.7622 8.79904 13.8313 8.87619 13.8841 8.98375C13.938 9.09365 14 9.28715 14 9.61364H17C17 8.12201 16.3931 7.00358 15.4406 6.31009C14.5654 5.67285 13.5472 5.5 12.8077 5.5V8.5ZM14 9.61364C14 9.94013 13.938 10.1336 13.8841 10.2435C13.8313 10.3511 13.7622 10.4282 13.6748 10.4919C13.4731 10.6388 13.1451 10.7273 12.8077 10.7273V13.7273C13.5472 13.7273 14.5654 13.5544 15.4406 12.9172C16.3931 12.2237 17 11.1053 17 9.61364H14ZM12.8077 10.7273C12.3769 10.7273 10.8333 10.7273 9.57692 10.7273V13.7273C10.8333 13.7273 12.3769 13.7273 12.8077 13.7273V10.7273Z" fill="#D34D32"/>
</svg>
