<svg width="24" height="24" viewBox="0 0 24 24" fill="none" xmlns="http://www.w3.org/2000/svg">
<rect x="0.5" y="0.5" width="23" height="23" rx="3.5" fill="white"/>
<rect x="0.5" y="0.5" width="23" height="23" rx="3.5" stroke="#333333"/>
<path d="M4 18.9502V20H10.12V18.6797H6.13818L9.96997 14.0498V13H4.08002V14.3203H7.8407L4 18.9502Z" fill="#333333"/>
<path d="M11.159 13V20H12.779V13H11.159Z" fill="#333333"/>
<path fill-rule="evenodd" clip-rule="evenodd" d="M13.93 13V20H15.55V18.0703H16.96C17.5867 18.0703 18.1266 17.9697 18.58 17.7695C18.8578 17.6436 19.0969 17.4844 19.2971 17.292C19.4235 17.1709 19.5345 17.0371 19.63 16.8896C19.8766 16.5098 20 16.0596 20 15.54C20 15.2422 19.9604 14.9678 19.8814 14.7158C19.8208 14.5234 19.737 14.3447 19.63 14.1797C19.3833 13.7998 19.0333 13.5098 18.58 13.3096C18.1266 13.1035 17.5867 13 16.96 13H13.93ZM15.55 16.75H16.87C17.37 16.75 17.7433 16.6436 17.99 16.4297C18.2366 16.2168 18.36 15.9199 18.36 15.54C18.36 15.1533 18.2366 14.8535 17.99 14.6396C17.7433 14.4268 17.37 14.3203 16.87 14.3203H15.55V16.75Z" fill="#333333"/>
<path d="M18 1H16V2H18V3H16V4H18V5H17V9H19V5H20V4H18V3H20V2H18V1Z" fill="#333333"/>
</svg>
