<svg width="17" height="12" viewBox="0 0 17 12" fill="none" xmlns="http://www.w3.org/2000/svg">
<path d="M16.4165 2.16822C16.0948 0.881582 15.4992 0.393138 14.4031 0.214439C13.7717 0.119133 10.7398 0 8.33334 0C5.92686 0 2.88897 0.119133 2.26352 0.214439C1.1675 0.393138 0.571837 0.887539 0.256136 2.16822C0.148916 2.59709 0 4.95592 0 5.85537V6.05194C0 6.95139 0.148916 9.31022 0.256136 9.7391C0.571837 11.0198 1.1675 11.5142 2.26352 11.6929C2.89492 11.7882 5.93281 11.9073 8.33929 11.9073H8.32738C10.7398 11.9073 13.7717 11.7882 14.4031 11.6929C15.4992 11.5142 16.0948 11.0198 16.4165 9.7391C16.5237 9.31022 16.6667 6.95139 16.6667 6.05194V5.85537C16.6667 4.95592 16.5178 2.59709 16.4165 2.16822ZM6.81439 8.1189V3.79438L10.8292 5.90898L6.81439 8.12485V8.1189Z" fill="#041022"/>
</svg>
