<svg width="17" height="17" viewBox="0 0 17 17" fill="none" xmlns="http://www.w3.org/2000/svg">
<path d="M11.8548 0H4.81184C2.15678 0 0 2.11959 0 4.72259V11.6391C0 14.2496 2.15678 16.3617 4.81184 16.3617H11.8548C14.5099 16.3617 16.6667 14.2496 16.6667 11.6391V4.72259C16.6667 2.11959 14.5099 0 11.8548 0ZM15.1272 11.7581C15.1272 13.491 13.6992 14.8892 11.9366 14.8892H4.73003C2.96743 14.8892 1.53949 13.4836 1.53949 11.7581V4.68541C1.53949 2.95255 2.96743 1.55437 4.73003 1.55437H11.9366C13.6992 1.55437 15.1272 2.95999 15.1272 4.68541V11.7581ZM8.32961 3.97888C5.94229 3.97888 4.00863 5.87535 4.00863 8.2255C4.00863 10.5756 5.94229 12.4647 8.32961 12.4647C10.7169 12.4647 12.658 10.5608 12.658 8.2255C12.658 5.89023 10.7169 3.97888 8.32961 3.97888ZM8.32961 10.9698C6.78269 10.9698 5.52581 9.74268 5.52581 8.21806C5.52581 6.69344 6.78269 5.46631 8.32961 5.46631C9.87654 5.46631 11.1334 6.70088 11.1334 8.21806C11.1334 9.73524 9.87654 10.9698 8.32961 10.9698ZM12.7993 2.82612C12.2416 2.82612 11.7953 3.26491 11.7953 3.81526C11.7953 4.36561 12.249 4.8044 12.7993 4.8044C13.3497 4.8044 13.8034 4.36561 13.8034 3.81526C13.8034 3.26491 13.3497 2.82612 12.7993 2.82612Z" fill="#041022"/>
</svg>
