<svg width="37" height="36" viewBox="0 0 37 36" fill="none" xmlns="http://www.w3.org/2000/svg">
<rect x="0.581055" width="36" height="36" rx="18" fill="#FF0101"/>
<path d="M28.2808 13.4574C27.8949 11.9135 27.1801 11.3274 25.8648 11.1129C25.1071 10.9986 21.4688 10.8556 18.5811 10.8556C15.6933 10.8556 12.0478 10.9986 11.2973 11.1129C9.98205 11.3274 9.26726 11.9206 8.88842 13.4574C8.75975 13.9721 8.58105 16.8027 8.58105 17.882V18.1179C8.58105 19.1973 8.75975 22.0279 8.88842 22.5425C9.26726 24.0793 9.98205 24.6726 11.2973 24.887C12.055 25.0014 15.7004 25.1444 18.5882 25.1444H18.5739C21.4688 25.1444 25.1071 25.0014 25.8648 24.887C27.1801 24.6726 27.8949 24.0793 28.2808 22.5425C28.4095 22.0279 28.5811 19.1973 28.5811 18.1179V17.882C28.5811 16.8027 28.4024 13.9721 28.2808 13.4574ZM16.7583 20.5983V15.4088L21.576 17.9464L16.7583 20.6054V20.5983Z" fill="white"/>
</svg>
