<svg width="40" height="40" viewBox="0 0 40 40" fill="none" xmlns="http://www.w3.org/2000/svg">
<circle cx="20" cy="20" r="20" fill="#1A1A1A" fill-opacity="0.4"/>
<mask id="mask0_182_5589" style="mask-type:alpha" maskUnits="userSpaceOnUse" x="0" y="0" width="40" height="40">
<rect width="40" height="40" fill="#D9D9D9"/>
</mask>
<g mask="url(#mask0_182_5589)">
<path d="M17.8321 25.564L25.2327 20.8216C25.5411 20.6249 25.6953 20.3516 25.6953 20.0016C25.6953 19.6515 25.5411 19.3771 25.2327 19.1784L17.8321 14.4359C17.5037 14.2094 17.1683 14.1907 16.8257 14.3797C16.4831 14.5687 16.3118 14.8613 16.3118 15.2575V24.7425C16.3118 25.1387 16.4831 25.4313 16.8257 25.6203C17.1683 25.8093 17.5037 25.7905 17.8321 25.564ZM20.0026 35.8333C17.8241 35.8333 15.7732 35.4177 13.8498 34.5866C11.9265 33.7555 10.2475 32.6229 8.81288 31.1889C7.37824 29.7549 6.24518 28.0767 5.41371 26.1542C4.58224 24.2317 4.1665 22.1812 4.1665 20.0028C4.1665 17.8129 4.58206 15.7545 5.41317 13.8276C6.24428 11.9007 7.37684 10.2246 8.81084 8.79919C10.2448 7.3738 11.9231 6.24537 13.8455 5.4139C15.768 4.58242 17.8185 4.16669 19.997 4.16669C22.1869 4.16669 24.2453 4.58224 26.1722 5.41336C28.0991 6.24447 29.7752 7.37238 31.2006 8.7971C32.626 10.2219 33.7544 11.8973 34.5859 13.8233C35.4174 15.7493 35.8331 17.8073 35.8331 19.9972C35.8331 22.1757 35.4175 24.2266 34.5864 26.1499C33.7553 28.0733 32.6274 29.7523 31.2027 31.1869C29.7779 32.6215 28.1025 33.7546 26.1765 34.5861C24.2504 35.4175 22.1925 35.8333 20.0026 35.8333ZM19.9998 33.7393C23.8274 33.7393 27.0742 32.4035 29.7402 29.7318C32.4061 27.0602 33.7391 23.8162 33.7391 20C33.7391 16.1723 32.4061 12.9255 29.7402 10.2596C27.0742 7.59363 23.8274 6.26065 19.9998 6.26065C16.1835 6.26065 12.9396 7.59363 10.268 10.2596C7.5963 12.9255 6.26046 16.1723 6.26046 20C6.26046 23.8162 7.5963 27.0602 10.268 29.7318C12.9396 32.4035 16.1835 33.7393 19.9998 33.7393Z" fill="white"/>
</g>
</svg>
