<svg width="36" height="36" viewBox="0 0 36 36" fill="none" xmlns="http://www.w3.org/2000/svg">
<rect width="36" height="36" rx="18" fill="url(#paint0_linear_22_188)"/>
<path d="M22.2258 8.18298H13.7742C10.5881 8.18298 8 10.7265 8 13.8501V22.15C8 25.2825 10.5881 27.8171 13.7742 27.8171H22.2258C25.4119 27.8171 28 25.2825 28 22.15V13.8501C28 10.7265 25.4119 8.18298 22.2258 8.18298ZM26.1526 22.2928C26.1526 24.3722 24.4391 26.05 22.324 26.05H13.676C11.5609 26.05 9.84739 24.3633 9.84739 22.2928V13.8055C9.84739 11.726 11.5609 10.0482 13.676 10.0482H22.324C24.4391 10.0482 26.1526 11.735 26.1526 13.8055V22.2928ZM17.9955 12.9576C15.1307 12.9576 12.8104 15.2334 12.8104 18.0536C12.8104 20.8737 15.1307 23.1406 17.9955 23.1406C20.8603 23.1406 23.1896 20.8559 23.1896 18.0536C23.1896 15.2513 20.8603 12.9576 17.9955 12.9576ZM17.9955 21.3467C16.1392 21.3467 14.631 19.8742 14.631 18.0447C14.631 16.2151 16.1392 14.7426 17.9955 14.7426C19.8519 14.7426 21.3601 16.224 21.3601 18.0447C21.3601 19.8653 19.8519 21.3467 17.9955 21.3467ZM23.3592 11.5743C22.6899 11.5743 22.1544 12.1009 22.1544 12.7613C22.1544 13.4217 22.6988 13.9483 23.3592 13.9483C24.0196 13.9483 24.564 13.4217 24.564 12.7613C24.564 12.1009 24.0196 11.5743 23.3592 11.5743Z" fill="white"/>
<defs>
<linearGradient id="paint0_linear_22_188" x1="-4.1239e-07" y1="18" x2="36.4401" y2="16.1029" gradientUnits="userSpaceOnUse">
<stop stop-color="#A52EEE"/>
<stop offset="1" stop-color="#C235A7"/>
</linearGradient>
</defs>
</svg>
