<svg width="26" height="26" viewBox="0 0 26 26" fill="none" xmlns="http://www.w3.org/2000/svg">
<path d="M3.25 25.25C2.5625 25.25 1.97396 25.0052 1.48438 24.5156C0.994792 24.026 0.75 23.4375 0.75 22.75V5.25C0.75 4.5625 0.994792 3.97396 1.48438 3.48437C1.97396 2.99479 2.5625 2.75 3.25 2.75H14.4063L11.9063 5.25H3.25V22.75H20.75V14.0625L23.25 11.5625V22.75C23.25 23.4375 23.0052 24.026 22.5156 24.5156C22.026 25.0052 21.4375 25.25 20.75 25.25H3.25ZM8.25 17.75V12.4375L19.7188 0.96875C19.9688 0.71875 20.25 0.53125 20.5625 0.40625C20.875 0.28125 21.1875 0.21875 21.5 0.21875C21.8333 0.21875 22.151 0.28125 22.4531 0.40625C22.7552 0.53125 23.0312 0.71875 23.2812 0.96875L25.0313 2.75C25.2604 3 25.4375 3.27604 25.5625 3.57812C25.6875 3.88021 25.75 4.1875 25.75 4.5C25.75 4.8125 25.6927 5.11979 25.5781 5.42187C25.4635 5.72396 25.2813 6 25.0313 6.25L13.5625 17.75H8.25ZM10.75 15.25H12.5L19.75 8L18.875 7.125L17.9688 6.25L10.75 13.4688V15.25Z" fill="#3B63C4"/>
</svg>
