<svg width="97" height="96" viewBox="0 0 97 96" fill="none" xmlns="http://www.w3.org/2000/svg">
<path fill-rule="evenodd" clip-rule="evenodd" d="M65.9921 70.5029V21.7122C65.9921 17.3951 63.0601 13.6295 58.8748 12.5713L10.1275 0.2462C5.11132 -1.02208 0.241699 2.76967 0.241699 7.94383V80.13C0.241699 87.356 7.13535 92.5885 14.095 90.645L60.5506 77.6722C63.7675 76.7739 65.9921 73.8429 65.9921 70.5029ZM59.5411 66.1653V23.5004C59.5411 22.0858 58.5459 20.8666 57.1601 20.5833L21.1841 13.2289C17.8 12.5371 14.6324 15.1228 14.6324 18.5769V71.3544C14.6324 75.3945 18.3037 78.4405 22.2743 77.6946L55.0903 71.5301C57.6712 71.0453 59.5411 68.7914 59.5411 66.1653Z" fill="#BFBFBF"/>
<path fill-rule="evenodd" clip-rule="evenodd" d="M50.3535 81.4972V47.0621C50.3535 44.0152 52.4228 41.3576 55.3767 40.6107L89.7812 31.912C93.3215 31.0169 96.7583 33.693 96.7583 37.3448V88.2918C96.7583 93.3917 91.893 97.0846 86.9811 95.713L54.194 86.5571C51.9236 85.9231 50.3535 83.8545 50.3535 81.4972ZM54.9064 78.4359V48.3242C54.9064 47.3258 55.6088 46.4653 56.5869 46.2654L81.9777 41.0749C84.3661 40.5866 86.6018 42.4115 86.6018 44.8494V82.0982C86.6018 84.9496 84.0107 87.0993 81.2083 86.5729L58.0477 82.2222C56.2262 81.88 54.9064 80.2893 54.9064 78.4359Z" fill="#39A0FF"/>
<path d="M54.9877 79.2274C54.9344 78.972 54.9064 78.708 54.9064 78.4384V71.5664L50.3535 72.4217V80.5215L54.9877 79.2274Z" fill="#BFBFBF"/>
<path d="M65.992 37.9258L59.541 39.5568V45.6605L65.992 44.3417V37.9258Z" fill="#39A0FF"/>
</svg>
