<svg width="24" height="24" viewBox="0 0 24 24" fill="none" xmlns="http://www.w3.org/2000/svg">
<rect x="0.5" y="0.5" width="23" height="23" rx="3.5" fill="white"/>
<rect x="0.5" y="0.5" width="23" height="23" rx="3.5" stroke="#C80A0A"/>
<path d="M19.9702 14.3291C19.5145 13.8228 18.5019 13.5696 17.1348 13.5696C16.3247 13.5696 15.4639 13.6709 14.4512 13.8228C13.3788 12.8187 12.4882 11.6365 11.8183 10.3291C12.3247 8.81013 12.6791 7.34177 12.6791 6.22785C12.6791 5.36709 12.3753 4 11.1601 4C10.8057 4 10.5019 4.20253 10.2993 4.50633C9.79302 5.41772 9.99555 7.44304 10.9576 9.56962C10.2548 11.6015 9.40871 13.5813 8.42593 15.4937C5.74238 16.6076 3.97023 17.8228 3.81833 18.7848C3.71707 19.2405 4.02087 20 5.08416 20C6.65378 20 8.3753 17.7215 9.69175 15.3924C11.2112 14.8699 12.7687 14.4638 14.35 14.1772C16.274 15.8481 17.9449 16.1013 18.755 16.1013C20.3753 16.1013 20.5272 14.9367 19.9702 14.3291ZM10.5525 4.65823C10.9576 4.05063 11.869 4.25316 11.869 5.46835C11.869 6.27848 11.6158 7.59494 11.1095 9.11392C10.1981 6.98734 10.1981 5.31646 10.5525 4.65823ZM4.12213 18.8354C4.27403 18.0253 5.79302 16.9114 8.17276 15.9494C6.85631 18.1772 5.53985 19.5949 4.72973 19.5949C4.2234 19.5949 4.0715 19.1392 4.12213 18.8354ZM14.0968 13.8734C12.67 14.1392 11.2654 14.5114 9.89428 14.9873C10.6437 13.6349 11.2543 12.2096 11.7171 10.7342C12.3824 11.8714 13.1814 12.9256 14.0968 13.8734ZM14.755 14.0759C16.3753 13.8228 17.7424 13.8734 18.35 13.9747C19.8183 14.2785 19.312 16.0506 17.6918 15.6456C16.5272 15.3924 15.5652 14.7342 14.755 14.0759Z" fill="#C80A0A"/>
</svg>
