<svg width="24" height="24" viewBox="0 0 24 24" fill="none" xmlns="http://www.w3.org/2000/svg">
<rect x="0.5" y="0.5" width="23" height="23" rx="3.5" fill="white"/>
<rect x="0.5" y="0.5" width="23" height="23" rx="3.5" stroke="#209DDF"/>
<path d="M13.2016 4H11.4651V5.86047H7.37209V7.5969H17.4186V5.86047H13.2016V4Z" fill="#209DDF"/>
<path d="M7 15.907V20H17.7907V18.2636H8.73643V15.907H7Z" fill="#209DDF"/>
<path d="M13.4496 16.4031C13.4496 17.0881 12.8943 17.6434 12.2093 17.6434C11.5243 17.6434 10.969 17.0881 10.969 16.4031C10.969 15.7181 11.5243 15.1628 12.2093 15.1628C12.8943 15.1628 13.4496 15.7181 13.4496 16.4031Z" fill="#209DDF"/>
<path fill-rule="evenodd" clip-rule="evenodd" d="M15.6822 11.3178C15.6822 13.2358 14.1273 14.7907 12.2093 14.7907C10.2913 14.7907 8.73643 13.2358 8.73643 11.3178C8.73643 9.39983 10.2913 7.84496 12.2093 7.84496C14.1273 7.84496 15.6822 9.39983 15.6822 11.3178ZM13.9457 11.3178C13.9457 12.2769 13.1683 13.0543 12.2093 13.0543C11.2503 13.0543 10.4729 12.2769 10.4729 11.3178C10.4729 10.3588 11.2503 9.5814 12.2093 9.5814C13.1683 9.5814 13.9457 10.3588 13.9457 11.3178Z" fill="#209DDF"/>
</svg>
