<svg width="24" height="24" viewBox="0 0 24 24" fill="none" xmlns="http://www.w3.org/2000/svg">
<g clip-path="url(#clip0_1553_18435)">
<path d="M17.5 4V1.08711L22.6484 5.5H19C18.1716 5.5 17.5 4.82843 17.5 4ZM16.5 0.5V4C16.5 5.38071 17.6193 6.5 19 6.5H23.5V20C23.5 21.933 21.933 23.5 20 23.5H4C2.067 23.5 0.5 21.933 0.5 20V4C0.5 2.067 2.067 0.5 4 0.5H16.5Z" fill="white" stroke="#333333"/>
<path d="M22.6484 5.5H19C18.1716 5.5 17.5 4.82843 17.5 4V1.08711L22.6484 5.5Z" fill="#333333" stroke="#333333"/>
<path d="M5.952 12.9597V11.6637H8.552V10.6557H5.952V9.43971H8.896V8.39971H4.664V13.9997H9V12.9597H5.952Z" fill="#333333"/>
<path d="M11.1912 13.9997V9.45571H9.39919V8.39971H14.2792V9.45571H12.4872V13.9997H11.1912Z" fill="#333333"/>
<path d="M17.5784 14.0957C17.1464 14.0957 16.7437 14.0264 16.3704 13.8877C16.0024 13.7437 15.6824 13.541 15.4104 13.2797C15.1384 13.0184 14.925 12.7117 14.7704 12.3597C14.621 12.0077 14.5464 11.621 14.5464 11.1997C14.5464 10.7784 14.621 10.3917 14.7704 10.0397C14.925 9.68771 15.1384 9.38104 15.4104 9.11971C15.6877 8.85838 16.0104 8.65838 16.3784 8.51971C16.7464 8.37571 17.149 8.30371 17.5864 8.30371C18.0717 8.30371 18.509 8.38904 18.8984 8.55971C19.293 8.72504 19.6237 8.97038 19.8904 9.29571L19.0584 10.0637C18.8664 9.84504 18.653 9.68238 18.4184 9.57571C18.1837 9.46371 17.9277 9.40771 17.6504 9.40771C17.389 9.40771 17.149 9.45038 16.9304 9.53571C16.7117 9.62104 16.5224 9.74371 16.3624 9.90371C16.2024 10.0637 16.077 10.253 15.9864 10.4717C15.901 10.6904 15.8584 10.933 15.8584 11.1997C15.8584 11.4664 15.901 11.709 15.9864 11.9277C16.077 12.1464 16.2024 12.3357 16.3624 12.4957C16.5224 12.6557 16.7117 12.7784 16.9304 12.8637C17.149 12.949 17.389 12.9917 17.6504 12.9917C17.9277 12.9917 18.1837 12.9384 18.4184 12.8317C18.653 12.7197 18.8664 12.5517 19.0584 12.3277L19.8904 13.0957C19.6237 13.421 19.293 13.669 18.8984 13.8397C18.509 14.0104 18.069 14.0957 17.5784 14.0957Z" fill="#333333"/>
<path d="M4 15.9997H20V16.9997H4V15.9997Z" fill="#333333"/>
<path d="M20 18.9997H4V19.9997H20V18.9997Z" fill="#333333"/>
</g>
<defs>
<clipPath id="clip0_1553_18435">
<rect width="24" height="24" rx="4" fill="white"/>
</clipPath>
</defs>
</svg>
