<svg width="605" height="812" viewBox="0 0 605 812" fill="none" xmlns="http://www.w3.org/2000/svg">
<g clip-path="url(#clip0_1085_16729)">
<path d="M92.78 326.51L90.21 334.24L91.5 343.25L92.14 349.69L94.72 356.13L100.51 356.77C100.51 356.77 105.02 353.55 105.02 351.62C105.02 349.69 103.73 343.89 103.73 341.96C103.73 340.03 101.16 333.59 101.16 331.66C101.16 329.73 97.3 325.87 97.3 325.87L92.79 326.51H92.78Z" stroke="#C1E0F0" stroke-width="2"/>
<path d="M52.2201 674.2L50.2901 678.71L45.7801 681.93L41.9201 682.57C41.9201 682.57 41.2801 683.21 37.4101 685.14C33.5501 687.07 31.6101 687.07 30.3301 689C29.0401 690.93 27.1101 690.29 26.4701 693.51C25.8301 696.73 25.8301 699.3 25.8301 699.3C25.8301 699.3 26.4701 702.52 27.7601 704.45C29.0501 706.38 23.9001 703.81 29.0501 706.38C34.2001 708.96 34.2001 709.6 38.7101 708.96C43.2201 708.32 49.0101 707.03 49.0101 707.03C49.0101 707.03 50.3001 705.1 52.8701 705.1C55.4401 705.1 59.9501 705.74 60.6001 703.17C61.2401 700.59 60.6001 699.95 61.8901 698.02C63.1801 696.09 65.1101 690.29 65.1101 690.29L63.1801 683.21L59.3201 678.7L52.2401 674.19L52.2201 674.2Z" stroke="#C1E0F0" stroke-width="2"/>
<path d="M38.6999 571.66L32.9099 572.14L28.5599 576.01C28.5599 576.01 26.1499 578.42 26.1499 579.87C26.1499 581.32 28.0799 585.66 28.0799 585.66L32.9099 586.14L37.2599 584.69L39.6799 579.38L41.1299 576L38.7199 571.65L38.6999 571.66Z" stroke="#C1E0F0" stroke-width="2"/>
<path d="M61.4 572.14L56.57 575.52C56.57 575.52 56.09 577.45 54.15 578.9C52.22 580.35 48.36 580.83 48.36 580.83L45.95 580.35L44.5 583.73C44.5 583.73 45.95 586.15 47.4 587.11C48.85 588.07 51.26 587.59 51.75 589.04C52.23 590.49 54.16 593.39 54.16 593.39L56.58 593.87L58.99 591.45L61.89 588.55L64.79 586.62L67.69 585.65L70.1 583.24L70.58 579.38L70.1 574.55L64.31 573.1L61.41 572.13L61.4 572.14Z" stroke="#C1E0F0" stroke-width="2"/>
<path d="M41.11 587.59L37.73 589.04V593.39L40.63 596.29L42.56 599.18L45.94 601.12L46.91 599.18L47.39 594.84V591.46L41.11 587.59Z" stroke="#C1E0F0" stroke-width="2"/>
<path d="M36.2898 599.18L35.3198 603.53L38.2198 605.46L40.1498 603.53V600.63L38.2198 599.18H36.2898Z" stroke="#C1E0F0" stroke-width="2"/>
<path d="M59.4599 614.64H63.3199L65.2499 616.57L65.7299 619.47L66.6999 622.37V625.27L63.3199 629.13L58.9699 626.23C58.9699 626.23 57.5199 625.75 56.0699 625.75C54.6199 625.75 47.8599 623.34 47.8599 623.34L48.8299 620.92H53.1799L56.5599 619.47L59.4599 614.64Z" stroke="#C1E0F0" stroke-width="2"/>
<path d="M23.7302 607.39L17.4502 611.25V617.53C17.4502 617.53 19.8602 621.39 21.3102 620.43C22.7602 619.46 24.6902 619.46 26.1402 618.98C27.5902 618.5 30.4902 615.12 30.4902 615.12L30.0102 609.32L23.7302 607.39Z" stroke="#C1E0F0" stroke-width="2"/>
<path d="M33.8701 617.53L30.9701 619.46L27.1101 622.36L26.1401 626.71C26.1401 626.71 29.5201 628.64 30.9701 628.64C32.4201 628.64 35.3201 625.74 35.3201 625.74L37.7301 622.36V620.43L36.2801 618.02L33.8701 617.54V617.53Z" stroke="#C1E0F0" stroke-width="2"/>
<path d="M32.4202 634.92C32.4202 634.92 27.5902 636.37 28.0702 637.82C28.5502 639.27 31.4502 641.2 31.4502 641.2L34.8302 644.1L38.6902 646.52C38.6902 646.52 40.1402 645.07 40.6202 643.62C41.1002 642.17 39.1702 637.83 39.1702 637.83L32.4102 634.93L32.4202 634.92Z" stroke="#C1E0F0" stroke-width="2"/>
<path d="M12.62 627.67L9.24 630.57C9.24 630.57 2.48 629.6 2.48 631.54C2.48 633.48 2 637.82 2 637.82H6.83C6.83 637.82 10.21 635.89 11.66 635.89C13.11 635.89 16.97 634.44 16.97 634.44L15.52 628.65L12.62 627.68V627.67Z" stroke="#C1E0F0" stroke-width="2"/>
<path d="M11.6599 640.23L6.34988 644.09L5.37988 650.37L9.23988 652.78C9.23988 652.78 14.5499 653.75 14.5499 650.85C14.5499 647.95 15.9999 642.16 15.9999 642.16L11.6499 640.23H11.6599Z" stroke="#C1E0F0" stroke-width="2"/>
<path d="M34.3498 651.82C34.3498 651.82 30.4898 653.27 29.9998 656.17C29.5198 659.07 31.9298 662.93 31.9298 662.93H36.7598L42.5498 657.14L40.1398 652.79L34.3498 651.83V651.82Z" stroke="#C1E0F0" stroke-width="2"/>
<path d="M22.7602 658.58C22.7602 658.58 19.8602 660.99 20.3502 662.44C20.8302 663.89 20.8302 669.2 20.8302 669.2L18.4102 674.03C18.4102 674.03 19.3802 679.34 20.3402 677.89C21.3102 676.44 23.7202 674.03 23.7202 674.03C23.7202 674.03 28.0702 672.1 28.0702 670.65C28.0702 669.2 26.6202 664.37 26.6202 664.37L25.6502 660.51L22.7502 658.58H22.7602Z" stroke="#C1E0F0" stroke-width="2"/>
<path d="M107.75 707.35L101.96 709.76V716.04C101.96 716.04 103.41 720.39 104.86 721.83C106.31 723.28 107.27 725.21 109.69 725.69C112.1 726.17 117.42 725.69 117.42 725.69C117.42 725.69 116.45 723.27 118.87 723.27C121.29 723.27 121.77 722.79 123.22 723.75C124.67 724.72 127.08 725.68 128.53 725.68C129.98 725.68 131.91 723.75 131.91 722.3C131.91 720.85 129.98 717.47 129.98 717.47L123.22 717.95L115.49 716.5L112.59 710.71L107.76 707.33L107.75 707.35Z" stroke="#C1E0F0" stroke-width="2"/>
<path d="M123.69 703.49L119.83 705.9L118.38 710.73C118.38 710.73 118.86 712.66 121.76 712.66C124.66 712.66 129.49 710.24 129.49 710.24L127.08 705.89L123.7 703.48L123.69 703.49Z" stroke="#C1E0F0" stroke-width="2"/>
<path d="M134.8 708.32C134.8 708.32 132.87 712.18 133.83 713.63C134.8 715.08 135.76 717.49 138.66 717.49C141.56 717.49 144.45 717.01 144.45 715.56C144.45 714.11 143.97 710.25 143.97 710.25L137.69 709.29L134.79 708.32H134.8Z" stroke="#C1E0F0" stroke-width="2"/>
<path d="M152.66 714.6L151.22 717.98L154.11 722.32L159.43 722.81L163.29 719.91L160.87 717.49L156.05 716.05L152.66 714.6Z" stroke="#C1E0F0" stroke-width="2"/>
<path d="M180.19 696.73L172.95 698.18C172.95 698.18 169.57 698.18 169.09 699.63C168.61 701.08 168.61 700.6 168.61 703.49V706.39L173.92 707.84H180.68C182.13 707.84 184.06 706.88 184.06 706.88L186.47 702.05L185.99 699.15L180.2 696.74L180.19 696.73Z" stroke="#C1E0F0" stroke-width="2"/>
<path d="M219.31 692.38L216.89 695.28L217.86 700.11L222.69 703.01L224.13 699.14L221.72 694.8L219.31 692.38Z" stroke="#C1E0F0" stroke-width="2"/>
<path d="M265.66 671.62C265.66 671.62 260.35 672.58 259.87 674.03C259.39 675.48 257.94 675.96 257.94 678.38V683.69L262.77 688.52H267.6L269.05 683.21V678.38L269.53 674.03L265.67 671.62H265.66Z" stroke="#C1E0F0" stroke-width="2"/>
<path d="M251.66 686.11L246.35 687.55V691.9L249.25 692.87L253.11 691.42L253.59 688.04L251.66 686.11Z" stroke="#C1E0F0" stroke-width="2"/>
<path d="M285.95 631.06L281.12 633.96C281.12 633.96 276.29 636.37 275.33 637.82C274.36 639.27 273.88 643.61 273.88 643.61L274.36 648.44L277.74 652.79L276.29 659.55L277.74 664.86C277.74 664.86 280.16 666.31 282.09 665.82C284.02 665.34 286.92 664.37 286.92 664.37L291.27 658.57C291.27 658.57 293.2 661.95 293.2 663.4C293.2 664.85 294.65 666.78 294.65 666.78L299 667.74C299 667.74 303.83 670.15 305.28 670.15C306.73 670.15 307.21 667.25 307.21 667.25L308.66 662.42V652.28L304.8 651.31L298.04 650.34L293.21 647.92L288.86 643.58V640.68L290.79 636.82L290.31 631.03H285.96L285.95 631.06Z" stroke="#C1E0F0" stroke-width="2"/>
<path d="M303.81 634.92C303.81 634.92 298.5 635.89 298.02 637.33C297.54 638.78 295.12 642.64 296.57 643.61C298.02 644.58 301.88 646.51 301.88 646.51C301.88 646.51 307.67 647.47 309.12 647.96C310.57 648.44 312.98 643.62 312.98 643.62L307.19 640.24V637.34L303.81 634.93V634.92Z" stroke="#C1E0F0" stroke-width="2"/>
<path d="M388.32 643.13L381.08 640.72C381.08 640.72 375.77 641.2 374.32 642.17C372.87 643.13 370.46 646.03 370.46 647.48C370.46 648.93 371.91 654.72 371.91 654.72L376.26 658.58L381.09 655.2L384.95 654.24C384.95 654.24 386.88 660.03 385.43 660.52C383.98 661 380.6 661.97 380.6 661.97V664.87L383.5 666.32V671.15L381.57 675.5L385.43 678.4L390.26 676.95L391.71 670.67L393.64 664.39L397.02 660.53L400.88 665.36H403.78L405.71 661.5L404.26 658.12V654.74L407.64 652.33L408.6 649.92L408.12 647.51L403.29 649.44L400.39 647.02L403.77 643.16L405.22 639.78L402.81 634.95L401.36 631.09L403.29 627.23L401.36 622.4C401.36 622.4 398.46 623.37 397.98 625.3C397.5 627.23 396.05 629.16 396.05 629.16L393.15 627.71L389.77 626.74L389.29 633.02L390.25 635.44L386.87 636.89L388.32 643.17V643.13Z" stroke="#C1E0F0" stroke-width="2"/>
<path d="M423.09 619.95C423.09 619.95 416.33 620.92 416.33 622.37C416.33 623.82 418.74 628.65 418.74 628.65L423.57 628.17L424.54 623.34L423.09 619.96V619.95Z" stroke="#C1E0F0" stroke-width="2"/>
<path d="M368.04 660.51V666.3C368.04 667.75 372.39 666.3 372.39 666.3V660.99L369.98 659.06L368.05 660.51H368.04Z" stroke="#C1E0F0" stroke-width="2"/>
<path d="M569.89 210.45L564.58 210.93L558.79 213.83C558.79 213.83 556.86 217.21 557.82 219.62C558.79 222.03 559.27 222.03 562.17 223.48C565.07 224.93 565.07 225.89 567.96 225.89C570.85 225.89 574.72 224.44 575.2 222.99C575.68 221.54 577.13 219.13 577.13 217.68C577.13 216.23 576.16 211.89 576.16 211.89L569.88 210.44L569.89 210.45Z" fill="#D9E5F3" stroke="#449EE3" stroke-width="2"/>
<path d="M598.29 230.87C598.29 230.87 595.88 229.9 595.39 233.77C594.91 237.63 597.32 239.56 597.32 239.56C597.32 239.56 600.7 242.46 601.67 240.53C602.64 238.6 603.12 236.18 603.12 236.18L602.64 231.83L598.29 230.86V230.87Z" fill="#D9E5F3" stroke="#449EE3" stroke-width="2"/>
<path d="M98.58 362.08L93.75 364.98L95.68 369.32L101.96 368.36V363.53L98.58 362.08Z" stroke="#C1E0F0" stroke-width="2"/>
<path d="M260.83 693.35L256.48 695.77C256.48 695.77 255.52 698.67 256.96 699.63C258.41 700.6 261.79 703.01 261.79 703.01L267.1 704.94L268.07 701.08L266.62 697.22L260.83 693.36V693.35Z" stroke="#C1E0F0" stroke-width="2"/>
<path d="M171.5 176.65L169.57 172.3H169.56L166.18 169.89L163.77 169.44V169.41L166.67 164.1L165.6 163.03L170.53 161.68L175.84 163.13L183.08 163.61L185.98 158.3L188.39 153.47L193.7 154.92L196 152.5L199 148.5L201.5 146.5L206.7 148.5L209.5 147.5L213.02 149.5L211 151C212.5 153.47 212.636 154.94 213.02 158.3V162.16L211.57 166.02L211.09 167.95L213.99 169.88H218.34L220.75 170.85L218.34 174.23C218.34 174.23 217.86 177.13 217.86 178.58C217.86 180.03 216.41 183.41 216.41 183.41L211.1 187.27L206.75 191.62H200.47L197.57 189.21C197.57 189.21 197.08 187.28 195.64 187.28C194.2 187.28 189.85 188.73 189.85 188.73H185.02L179.23 183.9L176.5 181.5L172.15 180.53L171.5 176.65Z" fill="#D9E5F3" stroke="#449EE3" stroke-width="2"/>
<path d="M501.5 417L511.5 419.5V431C512.754 435.776 512.421 435.877 515 439C515.987 442.211 516.5 445.5 515 451.5C514 453 514.5 453 511.5 455C512.5 460 516 468 524.5 463C529 460.353 532 455.5 532 455.5L534.5 452L539 459.5L537.5 468.5L528.5 485L527 491.5L513 488V483.5L509 481.5L505 485L501.5 481.5V474L497.5 468.5V465.5L494 458L492.5 450H490L484 451.5L479 453L470 444V441V437H465.5L459 430L462.5 424L465.5 421.5L464 415C467.091 414.082 468.949 414.531 472.5 417C475.348 420.314 477.123 421.162 480.5 421.5L483 419.5L484 415.5L488 407.5H494L497.5 411V415.5L501.5 417Z" fill="#D9E5F3" stroke="#449EE3" stroke-width="2"/>
<path d="M509.53 519.02L501.32 518.05L497.94 520.47L493.11 521.43C493.11 521.43 492.63 520.95 491.66 519.5C490.69 518.05 488.28 514.19 488.28 514.19L486.35 510.33C486.35 510.33 485.39 510.81 481.04 509.36L476.7 507.91L472.84 506.94C472.84 506.94 471.87 505.97 470.43 506.94C468.98 507.91 466.08 509.84 466.08 509.84C466.08 509.84 464.15 510.32 462.7 513.22C461.25 516.12 460.77 519.02 460.77 519.02L456.91 519.5L454.01 523.36C454.01 523.36 455.46 529.16 454.01 529.64C452.56 530.12 449.66 531.57 449.66 531.57C449.66 531.57 448.69 535.43 449.18 536.88C449.66 538.33 455.94 542.19 455.94 542.19L460.29 542.67L463.19 546.53C463.19 546.53 467.05 547.98 467.54 549.43C468.02 550.88 468.99 552.33 470.92 554.26C472.85 556.19 473.82 555.71 474.78 557.16C475.74 558.61 478.16 560.06 478.16 560.06C478.16 560.06 479.61 562.47 479.61 563.92C479.61 564.24 479.69 564.86 479.8 565.62L482.03 565.37L487.34 566.34L489.27 568.76L490.72 575.04C490.72 575.04 491.68 576.1 492.75 577.4L496.51 575.69L499.73 570.54L500.37 566.68L501.01 561.53L502.94 556.38L506.8 551.87H509.37L514.52 546.08L515.81 536.42L517.1 526.12V523.55L517.62 522.45L514.85 521.93L509.54 519.03L509.53 519.02Z" fill="#D9E5F3" stroke="#449EE3" stroke-width="2"/>
<path d="M445.5 135L455.2 132L461.7 143L482.3 170.1L480.5 188L476.5 189.5V197L465 198.5L457 197L454.5 188H452V193L445.5 202H441.5V197L437 195L429 197L423 191.5L427 184.5H433.5V180L437 172V164.5L432 158.5L417.5 156.5V152L414 146L416 138.5H421L423 135H429H432H437H439.5H445.5Z" fill="#D9E5F3" stroke="#449EE3" stroke-width="2"/>
<path d="M444.34 518.54C441.44 518.06 440.48 518.54 440.48 518.54L437.1 520.95C437.1 520.95 432.75 523.36 431.31 523.36C429.87 523.36 427.45 526.26 427.45 526.26L422.14 528.19H414.9C414.9 528.19 410.07 527.23 409.11 525.77C408.14 524.32 403.8 525.29 403.8 525.29L399.94 523.84L394.15 526.26L391.25 523.84L388.83 518.53L386.42 514.18L383.52 507.9L379.66 513.69C379.66 513.69 372.9 515.62 371.45 515.62C370 515.62 366.62 516.59 366.62 516.59H361.79L357.93 515.62C357.93 515.62 352.14 513.69 350.69 512.72C349.24 511.75 342.97 511.75 341.52 511.75H337.17L332.82 509.34L335.72 504.99L338.13 500.16L339.1 496.3L337.65 491.47L332.82 489.05C332.82 489.05 330.89 487.12 329.92 484.7C328.96 482.29 327.99 481.8 327.51 478.91C327.03 476.01 325.58 476.98 325.58 476.98H321.72L312.06 476.01L308.68 472.15L304.82 470.7L301.92 468.29L295.53 460.9C295.3 461.22 295.03 461.58 294.67 462.02C292.74 464.44 291.29 466.37 289.84 467.33C288.39 468.3 285.98 469.74 285.98 469.74L279.7 473.12H275.36C275.36 473.12 271.5 476.5 270.53 477.95C269.56 479.4 267.15 482.3 265.7 484.71C264.25 487.13 261.84 490.51 261.84 490.51L257.01 504.03L256.04 509.34L252.66 515.62L251.69 520.93C251.69 520.93 252.66 521.41 254.1 524.31C255.55 527.21 256.03 525.76 256.51 529.14C256.99 532.52 256.99 533.49 256.99 534.93C256.99 536.37 257.47 538.79 257.47 538.79L258.92 542.65L256.51 546.51C256.51 546.51 252.16 546.03 250.23 547.96C248.3 549.89 247.82 556.65 247.82 556.65C247.82 556.65 249.75 558.1 248.3 559.55C248.1 559.75 247.99 559.94 247.93 560.14L249.75 563.42C249.75 563.42 248.78 566.8 248.78 568.25C248.78 569.7 249.75 572.11 249.75 575.5C249.75 578.89 249.27 579.85 249.75 581.29C250.23 582.74 253.61 586.12 253.61 586.12L257.96 587.57C257.96 587.57 259.41 589.98 259.41 593.37C259.41 596.76 263.76 602.54 263.76 602.54C263.76 602.54 266.66 602.06 267.62 604.95C268.58 607.85 270.03 608.33 270.03 611.23C270.03 614.13 270.51 617.51 270.51 617.51L268.58 620.41C266.65 623.31 261.82 623.79 261.82 623.79L256.99 627.65L256.44 632.09L256.99 631.68L260.21 633.61L265.36 637.47L269.22 636.83L271.15 630.39L278.88 628.46H282.1L287.89 626.53L291.75 623.96L300.12 623.31C300.12 623.31 303.98 623.95 304.63 620.73C305.27 617.51 307.21 613.65 307.21 613.65H309.79L311.72 618.8V624.6L309.79 632.97L313.01 636.19L316.23 639.41L323.31 640.05H327.17L332.32 636.83H336.83L341.98 639.41L347.13 635.55L348.42 640.05L343.91 642.63L343.27 646.49C343.27 646.49 345.2 647.78 347.78 647.78H355.51L354.22 652.29L347.14 655.51L346.5 658.09C346.5 658.09 351.65 659.38 352.29 662.6C352.93 665.82 356.15 669.04 356.15 669.04L362.59 668.4C362.59 668.4 363.88 665.18 363.88 663.25V656.17L367.74 651.66L368.38 649.09L365.16 645.23L361.3 640.72V635.57C361.3 635.57 360.66 632.35 362.59 630.42C364.52 628.49 369.03 626.56 369.03 626.56L370.96 623.34L370.32 618.19L369.03 613.04L376.76 611.11C376.76 611.11 380.62 609.82 382.55 611.11C384.48 612.4 387.06 616.26 387.06 616.26L390.92 613.04L388.99 604.67L390.28 600.16C390.28 600.16 392.86 600.16 394.79 601.45C396.72 602.74 401.87 606.6 401.87 606.6C401.87 606.6 405.73 607.24 406.38 609.17C407.02 611.1 413.46 615.61 413.46 615.61H416.75C417.45 614.31 418.03 613.23 418.29 612.71C419.25 610.78 420.22 608.36 420.22 608.36C420.22 608.36 419.74 605.94 419.74 604.5C419.74 603.06 417.33 602.57 418.29 600.15C419.25 597.73 418.29 600.15 419.25 598.7C420.22 597.25 422.63 598.7 425.53 596.77C428.43 594.84 425.53 596.77 426.98 594.36C428.43 591.95 430.84 590.5 430.84 590.5C430.84 590.5 435.19 589.54 437.12 588.57C439.05 587.6 440.02 588.09 442.92 587.6C445.82 587.12 446.78 586.63 446.78 586.63C446.78 586.63 449.2 583.73 450.64 582.28C452.09 580.83 454.02 578.9 454.02 578.9L458.37 578.42C462.72 577.94 461.27 576.49 463.68 575.04C466.1 573.59 467.54 571.17 468.51 569.73C469.48 568.28 470.44 569.25 470.44 569.25L475.27 567.32L477.69 565.87L479.81 565.64C479.7 564.89 479.62 564.27 479.62 563.94C479.62 562.49 478.17 560.08 478.17 560.08C478.17 560.08 475.76 558.63 474.79 557.18C473.82 555.73 472.86 556.22 470.93 554.28C469 552.35 468.03 550.9 467.55 549.45C467.07 548 463.2 546.55 463.2 546.55L460.3 542.69L455.95 542.21C455.95 542.21 449.67 538.35 449.19 536.9C448.71 535.45 449.67 531.59 449.67 531.59C449.67 531.59 452.57 530.14 454.02 529.66C455.47 529.18 454.02 523.38 454.02 523.38L455.49 521.42C455.08 521.27 454.73 521.12 454.5 520.96C453.05 519.99 447.26 519.03 444.36 518.55L444.34 518.54Z" fill="#D9E5F3" stroke="#449EE3" stroke-width="2"/>
<path d="M202.88 276.13C202.88 276.13 197.09 276.61 195.64 276.61L195.68 276.64C194.23 276.64 187.95 277.61 187.95 277.61L177.16 279.54L172.65 276.96C172.65 276.96 165.57 270.52 165.57 268.59C165.57 266.66 160.42 258.93 160.42 258.93L159.13 253.78V246.05L162.99 242.83L163.63 235.1H157.84L152.69 240.25L147.54 239.61C147.54 239.61 145.61 235.11 145.61 231.24L143.5 235H140.5L142.5 231.24L141.5 229.5H144L148 226.5L146.5 225L143.5 227V225.5L144.5 224V222.5L143 222L142.5 219.5L144 218.5V212.5H146.5L147 214.5L148 215.5L148.5 214H151L153 215.5L153.5 214.5L152.69 214V213H155L156.5 214C157.84 214.5 158.5 214.5 159 214.5V220.5L160.5 221.5L166.19 217L168 214.5L162 213.5L153.5 209L148.5 204L151 201L156.03 196.98C157.66 196.06 159.13 195.17 159.93 194.53L160.5 191L161.85 189.21L163 185.5V182.5L160.5 180L159.5 175.5L161.85 175L164 169L166.19 170.07L169.5 172L171.5 176.5L170.5 180L176.5 181.5L179.23 183.9L185.02 188.73H189.85C189.85 188.73 194.19 187.28 195.64 187.28C197.09 187.28 197.57 189.21 197.57 189.21L200.47 191.62H206.75L211.1 187.27L216.41 183.41C216.41 183.41 217.86 180.03 217.86 178.58C217.86 177.13 218.34 174.23 218.34 174.23L220.75 170.85L218.34 169.88H213.99L211.09 167.95L211.57 166.02L213.02 162.16V158.3L212.54 154.92C212.54 154.92 212.06 152.51 211.09 151.06L213.02 149.5L209.5 147.5L206.75 148.5L201.5 146.5L199 148.5L196 152.5L193.7 154.92L188.39 153.47L185.98 158.3L183.08 163.61L175.84 163.13L170.53 161.68L158.5 155.5L154.61 150.76L147 151.5L143.5 154.92L140.5 157L137.5 157.5L136 155.91L137.5 153.47V152.5L135.5 149.5L135 143.03L136 142V139L135 137.5V134.5L136.5 132.5V130.5L135 127.57V124.5L136.5 123.71L142.5 131.5L146.5 130L148 131.5L151 129.5L151.5 128.5H154.61L156.54 123.71L155.5 118.5L158.5 114L156.54 113L158.5 105.5C157.847 105.167 156.438 104.5 156.03 104.5C155.622 104.5 157.173 100.833 158 99L162.34 96.02L166.19 97.5L175.84 93.5H180.5L187 79.92L185.98 76.5L193.7 70L197.5 73V72H202V70L200 67L206 60.5L205 58L207 56.5L211.57 57.5V60.5H213.99L216 55.5L217.5 55L219.5 56.5L223.5 55.5L229 56.5L231.84 62.55L233.13 68.99L236.99 70.92L241.5 68.34L246.65 65.76L248.58 68.98L246 74.13L243.42 80.57L247.93 82.5L253.08 81.21L255.66 79.92H261.46L264.04 81.21L264.68 87.65L265.97 96.02C273.7 100.52 276.92 99.88 276.92 99.88L280.14 105.68L284.65 109.54L288.51 115.98L285.93 122.42L280.78 123.71L274.99 127.57C274.99 127.57 272.41 132.08 272.41 134.01C272.41 135.94 273.05 138.52 273.05 138.52L271.76 143.03C271.76 143.03 269.83 143.68 269.83 145.61C269.83 147.54 271.12 150.12 271.12 150.12L275.63 150.76L274.99 155.91C274.99 155.91 275.64 157.84 274.35 159.77C273.06 161.7 273.06 165.56 273.06 165.56L275.64 166.85C275.64 166.85 277.57 164.28 279.5 164.28H281.43L287.23 164.92C287.23 164.92 289.16 168.14 291.09 170.07C293.02 172 291.74 171.35 295.6 173.93C299.46 176.5 307.83 179.08 307.83 179.08L312.98 179.72L307.83 184.23L302.04 187.45L300.75 193.25L305.9 197.11L302.04 204.84L299.46 209.99V218.36L296.89 226.09C296.89 226.09 294.31 231.24 294.31 235.1C294.31 236.58 294.4 238.17 294.52 239.55L289.32 244.75C287.87 246.2 286.42 246.68 286.42 246.68L283.52 246.2L280.62 248.13L280.14 252.48L277.72 257.31C277.72 257.31 270.96 260.69 269.51 260.69C268.06 260.69 267.1 260.69 265.65 260.21C264.21 259.73 261.31 260.21 259.86 260.21C258.41 260.21 254.55 264.07 254.55 264.07L249.24 266.97L241.03 273.73L234.75 280.49L228.47 286.77L225.57 285.8L220.26 281.45C220.26 281.45 213.99 275.17 213.02 273.72C212.06 272.27 207.23 272.27 207.23 272.27L202.88 276.13Z" fill="#D9E5F3"/>
<path d="M159 220.5L160.5 221.5L166.19 217L168 214.5L162 213.5L153.5 209L148.5 204L151 201L156.03 196.98C157.66 196.06 159.13 195.17 159.93 194.53L160.5 191L161.85 189.21L163 185.5V182.5L160.5 180L159.5 175.5L161.85 175L164 169L166.19 170.07L169.5 172L171.5 176.5L170.5 180L176.5 181.5L179.23 183.9L185.02 188.73H189.85C189.85 188.73 194.19 187.28 195.64 187.28C197.09 187.28 197.57 189.21 197.57 189.21L200.47 191.62H206.75L211.1 187.27L216.41 183.41C216.41 183.41 217.86 180.03 217.86 178.58C217.86 177.13 218.34 174.23 218.34 174.23L220.75 170.85L218.34 169.88H213.99L211.09 167.95L211.57 166.02L213.02 162.16V158.3L212.54 154.92C212.54 154.92 212.06 152.51 211.09 151.06L213.02 149.5L209.5 147.5L206.75 148.5L201.5 146.5L199 148.5L196 152.5L193.7 154.92L188.39 153.47L185.98 158.3L183.08 163.61L175.84 163.13L170.53 161.68L158.5 155.5L154.61 150.76L147 151.5L143.5 154.92L140.5 157L137.5 157.5L136 155.91L137.5 153.47V152.5L135.5 149.5L135 143.03L136 142V139L135 137.5V134.5L136.5 132.5V130.5L135 127.57V124.5L136.5 123.71L142.5 131.5L146.5 130L148 131.5L151 129.5L151.5 128.5H154.61L156.54 123.71L155.5 118.5L158.5 114L156.54 113L158.5 105.5C157.847 105.167 156.438 104.5 156.03 104.5C155.622 104.5 157.173 100.833 158 99L162.34 96.02L166.19 97.5L175.84 93.5H180.5L187 79.92L185.98 76.5L193.7 70L197.5 73V72H202V70L200 67L206 60.5L205 58L207 56.5L211.57 57.5V60.5H213.99L216 55.5L217.5 55L219.5 56.5L223.5 55.5L229 56.5L231.84 62.55L233.13 68.99L236.99 70.92L241.5 68.34L246.65 65.76L248.58 68.98L246 74.13L243.42 80.57L247.93 82.5L253.08 81.21L255.66 79.92H261.46L264.04 81.21L264.68 87.65L265.97 96.02C273.7 100.52 276.92 99.88 276.92 99.88L280.14 105.68L284.65 109.54L288.51 115.98L285.93 122.42L280.78 123.71L274.99 127.57C274.99 127.57 272.41 132.08 272.41 134.01C272.41 135.94 273.05 138.52 273.05 138.52L271.76 143.03C271.76 143.03 269.83 143.68 269.83 145.61C269.83 147.54 271.12 150.12 271.12 150.12L275.63 150.76L274.99 155.91C274.99 155.91 275.64 157.84 274.35 159.77C273.06 161.7 273.06 165.56 273.06 165.56L275.64 166.85C275.64 166.85 277.57 164.28 279.5 164.28H281.43L287.23 164.92C287.23 164.92 289.16 168.14 291.09 170.07C293.02 172 291.74 171.35 295.6 173.93C299.46 176.5 307.83 179.08 307.83 179.08L312.98 179.72L307.83 184.23L302.04 187.45L300.75 193.25L305.9 197.11L302.04 204.84L299.46 209.99V218.36L296.89 226.09C296.89 226.09 294.31 231.24 294.31 235.1C294.31 236.58 294.4 238.17 294.52 239.55C293.28 240.79 290.44 243.63 289.32 244.75C287.87 246.2 286.42 246.68 286.42 246.68L283.52 246.2L280.62 248.13L280.14 252.48L277.72 257.31C277.72 257.31 270.96 260.69 269.51 260.69C268.06 260.69 267.1 260.69 265.65 260.21C264.21 259.73 261.31 260.21 259.86 260.21C258.41 260.21 254.55 264.07 254.55 264.07L249.24 266.97L241.03 273.73L234.75 280.49L228.47 286.77L225.57 285.8L220.26 281.45C220.26 281.45 213.99 275.17 213.02 273.72C212.06 272.27 207.23 272.27 207.23 272.27L202.88 276.13C202.88 276.13 197.09 276.61 195.64 276.61L195.68 276.64C194.23 276.64 187.95 277.61 187.95 277.61L177.16 279.54L172.65 276.96C172.65 276.96 165.57 270.52 165.57 268.59C165.57 266.66 160.42 258.93 160.42 258.93L159.13 253.78V246.05L162.99 242.83L163.63 235.1H157.84L152.69 240.25L147.54 239.61C147.54 239.61 145.61 235.11 145.61 231.24L143.5 235H140.5L142.5 231.24L141.5 229.5H144L148 226.5L146.5 225L143.5 227V225.5L144.5 224V222.5L143 222L142.5 219.5L144 218.5V212.5H146.5L147 214.5L148 215.5L148.5 214H151L153 215.5L153.5 214.5L152.69 214V213H155L156.5 214C157.84 214.5 158.5 214.5 159 214.5M159 220.5C159 220.5 159 217.5 159 214.5M159 220.5V214.5" stroke="#449EE3" stroke-width="2"/>
<path d="M131.371 767.744L125.591 771.44L118.235 770.915L111.924 775.135C111.924 775.135 110.348 777.249 108.773 777.774C107.197 778.298 104.568 780.937 104.568 780.937L99.3108 785.681L94.0532 788.844L93 794.645V800.446L97.2045 808.362L102.985 811L108.242 810.476L110.348 806.78C110.348 806.78 115.606 807.305 117.182 807.305C118.757 807.305 120.333 806.78 128.75 807.829C137.159 808.886 143.992 808.886 143.992 808.886L149.25 807.305C149.25 807.305 153.985 805.723 156.606 805.723H165.545L172.379 802.56L177.114 799.397L179.742 795.178L183.424 792.539L185 785.681V775.66L179.742 767.744L167.652 763L164.5 764.581L155.561 765.639H148.205L142.425 766.696L131.387 767.753L131.371 767.744Z" fill="#D9E5F3" stroke="#449EE3" stroke-width="1.63878"/>
<path d="M100.51 114.03L96 119.82C96 119.82 96.64 123.68 98.58 123.68C100.52 123.68 106.31 122.39 106.31 122.39C106.31 122.39 106.95 121.75 106.95 119.81C106.95 117.87 106.31 115.3 106.31 115.3L100.52 114.01L100.51 114.03Z" fill="#D9E5F3"/>
<path d="M121.76 114.68L121.756 114.683L121.74 114.68H121.76Z" fill="#D9E5F3"/>
<path d="M121.756 114.683L124.96 115.32L129.47 119.83L131.4 125.62C131.4 125.62 133.33 130.77 133.33 132.7V144.93C133.33 146.86 132.69 151.37 132.69 151.37C132.69 151.37 131.4 153.95 129.47 154.59C127.53 155.24 124.32 154.59 121.74 153.95C119.17 153.3 118.52 152.66 116.59 150.73C114.66 148.8 116.59 146.22 116.59 146.22L117.88 141.07L117.24 135.92C117.24 135.92 114.67 130.77 114.67 128.84C114.67 126.91 114.03 123.05 114.03 123.05L117.25 117.9L121.756 114.683Z" fill="#D9E5F3"/>
<path d="M101.8 132.71C101.8 132.71 103.73 130.13 105.66 126.91L105.67 126.9L108.25 128.83L110.18 132.69L110.82 135.91L111.46 138.49V143L107.6 145.58L106.31 140.43L103.09 136.57L101.8 132.71Z" fill="#D9E5F3"/>
<path d="M132.06 167.47L126.26 170.69H119.82L114.03 171.34L110.17 177.78L117.89 184.86H123.69L128.19 182.93L134.63 181L136.56 177.78L141.72 175.2L139.78 170.05L135.92 168.12L132.06 167.47Z" fill="#D9E5F3"/>
<path d="M113.39 194.52L114.67 188.72H117.25L119.82 191.94L117.25 196.45L113.39 194.52Z" fill="#D9E5F3"/>
<path d="M105.01 162.32L106.3 166.18C106.3 166.18 107.59 166.18 109.52 166.82C111.45 167.46 114.67 165.53 114.67 165.53L114.03 161.67L107.59 161.03L105.01 162.32Z" fill="#D9E5F3"/>
<path d="M92.1401 146.87L96.0001 141.72L96.6401 148.16L92.7801 152.02L92.1401 146.87Z" fill="#D9E5F3"/>
<path d="M162.32 192.58L163.29 187.27V182.92C163.29 181.47 160.39 180.51 160.39 180.51C160.39 180.51 159.42 177.61 159.42 176.16C159.42 174.71 161.83 175.19 161.83 175.19L163.76 169.4L166.66 164.09L164.25 161.68C164.25 161.68 157.97 158.3 156.04 157.33C154.11 156.36 153.63 152.98 153.63 152.98C153.63 152.98 148.8 153.46 147.35 153.46C145.9 153.46 143 158.45 143 158.45L144.29 167.46V180.34L147.51 188.71L153.3 193.22L155.87 195.8L156 196.96C157.62 196.04 159.1 195.14 159.9 194.51L162.31 192.58H162.32Z" fill="#D9E5F3"/>
<path d="M121.756 114.683L121.76 114.68H121.74L121.756 114.683ZM121.756 114.683L124.96 115.32L129.47 119.83L131.4 125.62C131.4 125.62 133.33 130.77 133.33 132.7V144.93C133.33 146.86 132.69 151.37 132.69 151.37C132.69 151.37 131.4 153.95 129.47 154.59C127.53 155.24 124.32 154.59 121.74 153.95C119.17 153.3 118.52 152.66 116.59 150.73C114.66 148.8 116.59 146.22 116.59 146.22L117.88 141.07L117.24 135.92C117.24 135.92 114.67 130.77 114.67 128.84C114.67 126.91 114.03 123.05 114.03 123.05L117.25 117.9L121.756 114.683ZM96 119.82L100.51 114.03L100.52 114.01L106.31 115.3C106.31 115.3 106.95 117.87 106.95 119.81C106.95 121.75 106.31 122.39 106.31 122.39C106.31 122.39 100.52 123.68 98.58 123.68C96.64 123.68 96 119.82 96 119.82ZM105.66 126.91C103.73 130.13 101.8 132.71 101.8 132.71L103.09 136.57L106.31 140.43L107.6 145.58L111.46 143V138.49L110.82 135.91L110.18 132.69L108.25 128.83L105.67 126.9L105.66 126.91ZM126.26 170.69L132.06 167.47L135.92 168.12L139.78 170.05L141.72 175.2L136.56 177.78L134.63 181L128.19 182.93L123.69 184.86H117.89L110.17 177.78L114.03 171.34L119.82 170.69H126.26ZM114.67 188.72L113.39 194.52L117.25 196.45L119.82 191.94L117.25 188.72H114.67ZM106.3 166.18L105.01 162.32L107.59 161.03L114.03 161.67L114.67 165.53C114.67 165.53 111.45 167.46 109.52 166.82C107.59 166.18 106.3 166.18 106.3 166.18ZM96.0001 141.72L92.1401 146.87L92.7801 152.02L96.6401 148.16L96.0001 141.72ZM162.32 192.58L163.29 187.27V182.92C163.29 181.47 160.39 180.51 160.39 180.51C160.39 180.51 159.42 177.61 159.42 176.16C159.42 174.71 161.83 175.19 161.83 175.19L163.76 169.4L166.66 164.09L164.25 161.68C164.25 161.68 157.97 158.3 156.04 157.33C154.11 156.36 153.63 152.98 153.63 152.98C153.63 152.98 148.8 153.46 147.35 153.46C145.9 153.46 143 158.45 143 158.45L144.29 167.46V180.34L147.51 188.71L153.3 193.22L155.87 195.8L156 196.96C157.62 196.04 159.1 195.14 159.9 194.51L162.31 192.58H162.32Z" stroke="#449EE3" stroke-width="2"/>
<path d="M231.85 62.53L227.99 54.8H227.96L220.88 52.22L222.12 46.44L222.17 46.42L226.68 42.56L233.76 40.63H239.55L245.34 39.99L249.85 43.85C249.85 43.85 253.07 44.49 253.07 42.56C253.07 40.63 257.58 41.27 257.58 41.27H266.6L269.17 44.49L274.32 46.42L276.9 47.71L280.12 46.42L285.91 43.84L288.49 43.2L293 45.13H297.51L301.37 45.77L309.1 45.13L313.61 43.2L316.83 44.49L319.41 49L322.63 50.29L324.56 45.78L328.42 44.49L335.5 47.07L343.23 49L353.53 52.22L360.61 47.07L368.98 43.21L375.42 41.28L385.08 34.2L389.59 27.12L388.95 17.46V9.09002L392.17 3.30002L396.67 2.66002L400.53 2.02002L404.39 10.39L406.32 18.76L410.83 26.49C410.83 26.49 415.34 38.73 415.34 42.59C415.34 46.45 419.85 51.6 419.85 51.6C419.85 51.6 426.29 67.06 426.29 69.63C426.29 72.2 429.51 78.64 429.51 78.64L433.37 91.52L435.3 105.69L448.82 119.21L453.33 128.87L455.182 132.006L445.5 135H423L421 138.5H416L414 146L417.5 152V156.5L432 158.5L437 164.5V172L433.5 180V184.5H427L423 191.5L429 197L437 195L441.5 197V202H445.5L452 193V188H454.5L457 197L465 198.5L476.5 197V189.5L480.5 188L482.3 170.1L481.808 169.453L482.31 170.08V177.81C482.31 179.186 482.632 180.23 483.279 182.329C483.544 183.19 483.865 184.228 484.24 185.54C485.52 190.04 486.81 191.33 486.81 191.33L490.03 195.84L491.96 201.63C491.96 201.63 496.46 206.78 497.75 208.71C499.04 210.64 504.19 217.72 504.19 217.72C504.19 217.72 506.77 224.8 508.7 227.38C510.63 229.95 511.27 234.46 511.27 234.46L519 246.69V252.48C519 252.989 518.955 253.901 518.902 255.004C518.751 258.083 518.529 262.649 519 264.07C519.15 264.51 519.36 265.08 519.61 265.73L513.2 268.58L505.48 270.51L501.62 275.66L498.4 281.45C498.4 281.45 495.83 280.8 492.61 278.87C489.39 276.94 488.75 272.43 488.75 272.43L481.03 271.79L475.88 275.01H470.73C470.73 275.01 466.22 273.72 464.29 273.08C462.36 272.43 460.43 271.79 460.43 271.79L457.21 272.43L453.35 275.01L451.42 277.59L447.56 276.3L446.27 271.79L441.12 269.21H438.55L433.4 272.43L432.76 276.29L428.25 276.93L421.17 274.35L418.59 271.13C418.59 271.13 412.15 270.49 410.22 269.2C408.29 267.92 405.07 265.34 405.07 265.34L399.92 262.76L395.41 264.05C395.41 264.05 389.61 263.4 388.97 261.47C388.32 259.54 387.68 255.03 387.68 255.03L381.89 253.1L377.38 255.68H370.3L367.72 255.04V251.18L370.94 248.6L375.45 247.31L377.38 244.09C377.38 244.09 372.87 242.15 370.94 241.51C369.01 240.87 362.57 237.65 362.57 237.65L358.71 240.23H350.98C348.263 240.23 347.424 241.403 346.758 242.333C346.321 242.944 345.959 243.45 345.19 243.45C343.25 243.45 339.39 246.03 339.39 246.03L335.53 243.45C335.53 243.45 335.53 238.3 334.89 236.37C334.24 234.44 332.31 231.86 332.31 231.86L327.8 232.5C327.8 232.5 322.65 235.08 320.07 238.3V243.45L318.78 246.67L315.56 248.6C315.56 248.6 306.54 248.6 300.75 247.31C294.96 246.03 294.96 243.45 294.96 243.45C294.96 243.45 294.32 238.94 294.32 235.08C294.32 231.22 296.9 226.07 296.9 226.07L299.47 218.34V209.97L302.05 204.82L305.91 197.09L300.76 193.23L302.05 187.43L307.84 184.21L312.99 179.7L307.84 179.06C307.84 179.06 299.47 176.49 295.61 173.91C292.916 172.121 292.722 171.887 292.202 171.26C291.975 170.985 291.686 170.636 291.1 170.05C289.17 168.12 287.24 164.9 287.24 164.9L281.44 164.26H279.51C277.58 164.26 275.65 166.83 275.65 166.83L273.07 165.54C273.07 165.54 273.07 161.68 274.36 159.75C275.64 157.82 275 155.89 275 155.89L275.64 150.74L271.13 150.1C271.13 150.1 269.84 147.53 269.84 145.59C269.84 143.65 271.77 143.01 271.77 143.01L273.06 138.5C273.06 138.5 272.42 135.92 272.42 133.99C272.42 132.06 275 127.55 275 127.55L280.79 123.69L285.94 122.4L288.52 115.96L284.66 109.52L280.15 105.66L276.93 99.86C276.93 99.86 273.71 100.51 265.98 96L264.69 87.63L264.05 81.19L261.47 79.9H255.67L253.09 81.19L247.94 82.48L243.43 80.55L246.01 74.11L248.59 68.96L246.66 65.74L241.51 68.32L237 70.9L233.14 68.97L231.85 62.53Z" fill="#D9E5F3" stroke="#449EE3" stroke-width="2"/>
<path d="M270.98 435.48L276.29 437.89L278.22 439.82L281.6 441.27C281.6 441.27 287.88 440.79 289.33 439.34C290.78 437.89 293.68 440.31 293.68 440.31L299.47 440.79L305.75 436.93L311.54 431.14L313.47 425.35V416.18C313.47 414.73 317.33 414.73 317.33 414.73L323.12 413.76L325.05 408.45C325.05 408.45 322.64 404.1 319.74 401.69C316.84 399.28 319.74 401.69 318.29 402.65C316.84 403.62 310.56 401.2 310.56 401.2C310.56 401.2 307.18 398.78 305.73 398.78H300.42C298.97 398.78 297.52 398.3 296.56 395.4C295.59 392.5 297.53 391.05 297.53 391.05L301.39 385.26L304.29 383.33L301.88 379.95V373.67L303.33 373.19C304.78 372.71 303.81 368.84 303.81 366.91C303.81 364.98 302.36 364.5 302.36 363.05C302.36 361.6 303.33 358.22 303.33 358.22V354.36L300.91 349.53C300.91 349.53 298.5 348.08 298.01 346.63C297.53 345.18 296.08 345.66 294.63 344.7C293.18 343.73 295.6 341.8 295.6 341.8L300.43 339.87L302.84 336.97L305.74 338.42L307.67 341.32L311.05 341.8L312.02 337.94C312.02 337.94 310.57 334.56 310.57 333.11C310.57 331.66 308.64 329.73 308.64 329.73L309.12 326.83L313.95 326.35L316.85 323.94L320.23 321.53L325.06 323.46L328.92 326.36L331.82 325.88L331.34 321.05L328.93 316.22L331.34 311.39L335.2 310.91L338.58 309.94L342.93 307.04L347.27 307.52L349.68 309.93L352.58 311.38L354.99 307.52L357.41 304.14L360.31 302.69L364.66 303.17L367.07 306.55L370.93 308.96L373.34 311.86L376.72 312.83L379.62 312.35H383.48L386.86 310.9V307.52C386.86 307.52 384.45 304.14 384.45 302.21C384.45 300.28 386.86 297.86 386.86 297.86L387.82 294L390.23 289.65L394.58 288.2L395.55 285.3L397.48 283.37H402.79L406.17 279.51L406.65 276.13H410.03L416.31 273.72L418.38 271.13C417.37 271.02 411.94 270.38 410.19 269.22C408.26 267.93 405.04 265.36 405.04 265.36L399.89 262.78L395.38 264.07C395.38 264.07 389.59 263.43 388.94 261.49C388.3 259.56 387.65 255.05 387.65 255.05L381.86 253.12L377.35 255.7H370.27L367.69 255.06V251.2L370.91 248.62L375.42 247.33L377.35 244.11C377.35 244.11 372.84 242.18 370.91 241.53C368.98 240.89 362.54 237.67 362.54 237.67L358.68 240.25H350.95C346.44 240.25 347.09 243.47 345.16 243.47C343.23 243.47 339.36 246.05 339.36 246.05L335.5 243.47C335.5 243.47 335.5 238.32 334.86 236.39C334.22 234.46 332.28 231.88 332.28 231.88L327.77 232.52C327.77 232.52 322.62 235.1 320.04 238.32V243.47L318.75 246.69L315.53 248.62C315.53 248.62 306.52 248.62 300.72 247.33C294.93 246.04 294.93 243.47 294.93 243.47C294.93 243.47 294.69 241.76 294.5 239.55C293.26 240.79 290.42 243.63 289.3 244.75C287.85 246.2 286.4 246.68 286.4 246.68L283.5 246.2L280.6 248.13L280.12 252.48L277.7 257.31C277.7 257.31 270.94 260.69 269.49 260.69C268.04 260.69 267.08 260.69 265.63 260.21C264.18 259.73 261.28 260.21 259.84 260.21C258.4 260.21 254.53 264.07 254.53 264.07L249.22 266.97L241.01 273.73L234.73 280.49L228.45 286.77C228.45 286.77 229.42 290.63 230.38 292.08C231.35 293.53 233.76 296.43 233.76 296.43L236.66 299.81L239.56 303.19L242.94 307.54V311.4L241.01 313.33H236.66L234.73 311.88L230.87 314.78L227.49 318.16L226.52 322.51L226.04 328.79C226.04 328.79 224.59 332.65 224.59 334.1C224.59 335.55 226.52 340.38 226.52 340.38L227.97 344.24L231.83 348.59V353.9C231.83 353.9 231.7 354.53 231.58 355.35L233.28 355.83L236.66 358.24L238.59 363.07L241.97 365L246.32 363.07L250.18 365L251.63 369.83L255.01 374.18L254.53 377.56L251.63 380.94L250.18 384.32C250.18 384.32 248.25 386.25 248.25 388.67C248.25 391.09 249.7 394.95 249.7 394.95C249.7 394.95 248.09 397.86 247.5 400.77L251.63 401.23L257.91 405.09C257.91 405.09 260.32 405.57 260.32 408.47C260.32 411.37 260.32 413.78 260.8 415.23C261.28 416.68 261.77 419.58 262.25 421.99C262.73 424.4 264.18 430.68 264.18 430.68L262.65 433.08L266.11 434.54L270.94 435.51L270.98 435.48Z" fill="#D9E5F3" stroke="#449EE3" stroke-width="2"/>
<path d="M262.28 421.96C261.8 419.54 261.31 416.65 260.83 415.2C260.35 413.75 260.35 411.34 260.35 408.44C260.35 405.54 257.94 405.06 257.94 405.06L251.66 401.2L247.31 400.72L247.52 400.74C248.11 397.83 249.72 394.92 249.72 394.92C249.72 394.92 248.27 391.06 248.27 388.64C248.27 386.22 250.2 384.29 250.2 384.29L251.65 380.91L254.55 377.53L255.03 374.15L251.65 369.8L250.2 364.97L246.34 363.04L241.99 364.97L238.61 363.04L236.68 358.21L233.3 355.8L231.6 355.32C231.72 354.51 231.85 353.87 231.85 353.87V348.56L227.99 344.21L226.54 340.35C226.54 340.35 224.61 335.52 224.61 334.07C224.61 332.62 226.06 328.76 226.06 328.76L226.54 322.48L227.51 318.13L230.89 314.75L234.75 311.85L236.68 313.3H241.03L242.96 311.37V307.51L239.58 303.16L236.68 299.78L233.78 296.4C233.78 296.4 231.37 293.5 230.4 292.05C229.43 290.6 228.47 286.74 228.47 286.74L225.57 285.77L220.26 281.42C220.26 281.42 213.98 275.14 213.02 273.69C212.06 272.24 207.23 272.24 207.23 272.24L202.88 276.1C202.88 276.1 197.09 276.58 195.64 276.58C194.19 276.58 187.91 277.55 187.91 277.55L177.12 279.48L173.9 282.7L166.82 285.92L164.24 280.13C164.24 280.13 162.31 275.62 161.66 273.69C161.02 271.76 155.87 267.25 155.87 267.25L147.5 263.39L138.49 260.17L132.69 256.31L124.96 251.16L119.81 254.38L120.45 263.39L117.87 262.75L112.08 256.96L106.28 257.6L101.13 260.82V266.61L106.28 270.47L106.92 275.62L101.13 282.7L94.6899 282.06L93.3999 278.2L94.0399 273.69L92.7499 267.25L88.2399 270.47L85.0199 273.05L78.5799 273.69L75.9999 278.84L72.1399 284.63L66.3499 289.14C66.3499 289.14 64.4199 291.07 64.4199 294.29V297.51C64.4199 297.51 65.7099 300.73 68.2799 300.09L70.8599 299.45L76.0099 300.74L73.4299 303.96L74.7199 309.11L81.1599 306.53H83.7399L85.0299 315.54V325.2L90.8199 324.56C90.8199 324.56 92.7499 321.98 93.3899 320.05C94.0299 318.12 95.9699 318.76 97.2499 320.69C98.5399 322.62 101.11 324.55 101.11 324.55L108.19 321.33L110.77 317.47L112.7 325.2L110.77 335.5V346.45L111.41 359.33L113.34 365.12L116.56 371.56L114.63 375.42L112.05 381.21L115.91 385.72V389.58L113.33 394.09V398.6L106.89 404.39L105.6 408.25L108.82 408.89H114.61L119.12 412.11L122.98 417.26L124.91 422.41L130.06 429.49L133.92 432.71C133.92 432.71 133.96 432.8 134.03 432.94C136.36 432.16 138.84 431.33 139.56 431.1C141.01 430.62 144.87 430.13 146.32 429.65C147.77 429.17 149.22 428.68 151.15 426.75C153.08 424.82 153.08 423.85 155.5 421.44C157.91 419.03 157.91 418.54 157.91 418.54C157.91 418.54 161.77 414.19 163.7 413.23C165.63 412.26 169.01 411.3 169.01 411.3L174.8 410.34L183.98 415.17L184.46 419.03L189.29 422.89L194.12 423.86H197.5L200.4 421.93C200.4 421.93 204.75 423.38 207.16 423.86C209.57 424.34 210.06 422.41 210.06 422.41H214.89C216.34 422.41 217.79 421.93 217.79 421.93L221.65 419.51L225.03 420.96C225.03 420.96 226.48 426.27 226.96 427.72C227.44 429.17 227.44 431.1 227.44 432.55V439.31L228.41 441.72L232.76 437.86L235.17 436.41L236.14 438.82L236.62 443.17L241.93 444.62L246.28 443.17L248.21 441.24L250.14 437.86L253.04 436.89C253.04 436.89 255.94 438.82 256.9 440.27C257.87 441.72 257.87 442.68 257.87 442.68H260.77V435.92L264.15 430.61C264.15 430.61 262.7 424.33 262.22 421.92L262.28 421.96ZM231.6 355.38C231.57 355.55 231.55 355.73 231.52 355.92C231.54 355.73 231.57 355.56 231.6 355.38ZM231.43 356.75C231.42 356.89 231.4 357.03 231.39 357.16C231.39 357.03 231.41 356.89 231.43 356.75Z" fill="#D9E5F3"/>
<path d="M231.52 355.95C231.49 356.15 231.47 356.35 231.45 356.55M262.28 421.96C261.8 419.54 261.31 416.65 260.83 415.2C260.35 413.75 260.35 411.34 260.35 408.44C260.35 405.54 257.94 405.06 257.94 405.06L251.66 401.2L247.31 400.72L247.52 400.74C248.11 397.83 249.72 394.92 249.72 394.92C249.72 394.92 248.27 391.06 248.27 388.64C248.27 386.22 250.2 384.29 250.2 384.29L251.65 380.91L254.55 377.53L255.03 374.15L251.65 369.8L250.2 364.97L246.34 363.04L241.99 364.97L238.61 363.04L236.68 358.21L233.3 355.8L231.6 355.32C231.72 354.51 231.85 353.87 231.85 353.87V348.56L227.99 344.21L226.54 340.35C226.54 340.35 224.61 335.52 224.61 334.07C224.61 332.62 226.06 328.76 226.06 328.76L226.54 322.48L227.51 318.13L230.89 314.75L234.75 311.85L236.68 313.3H241.03L242.96 311.37V307.51L239.58 303.16L236.68 299.78L233.78 296.4C233.78 296.4 231.37 293.5 230.4 292.05C229.43 290.6 228.47 286.74 228.47 286.74L225.57 285.77L220.26 281.42C220.26 281.42 213.98 275.14 213.02 273.69C212.06 272.24 207.23 272.24 207.23 272.24L202.88 276.1C202.88 276.1 197.09 276.58 195.64 276.58C194.19 276.58 187.91 277.55 187.91 277.55L177.12 279.48L173.9 282.7L166.82 285.92L164.24 280.13C164.24 280.13 162.31 275.62 161.66 273.69C161.02 271.76 155.87 267.25 155.87 267.25L147.5 263.39L138.49 260.17L132.69 256.31L124.96 251.16L119.81 254.38L120.45 263.39L117.87 262.75L112.08 256.96L106.28 257.6L101.13 260.82V266.61L106.28 270.47L106.92 275.62L101.13 282.7L94.6899 282.06L93.3999 278.2L94.0399 273.69L92.7499 267.25L88.2399 270.47L85.0199 273.05L78.5799 273.69L75.9999 278.84L72.1399 284.63L66.3499 289.14C66.3499 289.14 64.4199 291.07 64.4199 294.29V297.51C64.4199 297.51 65.7099 300.73 68.2799 300.09L70.8599 299.45L76.0099 300.74L73.4299 303.96L74.7199 309.11L81.1599 306.53H83.7399L85.0299 315.54V325.2L90.8199 324.56C90.8199 324.56 92.7499 321.98 93.3899 320.05C94.0299 318.12 95.9699 318.76 97.2499 320.69C98.5399 322.62 101.11 324.55 101.11 324.55L108.19 321.33L110.77 317.47L112.7 325.2L110.77 335.5V346.45L111.41 359.33L113.34 365.12L116.56 371.56L114.63 375.42L112.05 381.21L115.91 385.72V389.58L113.33 394.09V398.6L106.89 404.39L105.6 408.25L108.82 408.89H114.61L119.12 412.11L122.98 417.26L124.91 422.41L130.06 429.49L133.92 432.71C133.92 432.71 133.96 432.8 134.03 432.94C136.36 432.16 138.84 431.33 139.56 431.1C141.01 430.62 144.87 430.13 146.32 429.65C147.77 429.17 149.22 428.68 151.15 426.75C153.08 424.82 153.08 423.85 155.5 421.44C157.91 419.03 157.91 418.54 157.91 418.54C157.91 418.54 161.77 414.19 163.7 413.23C165.63 412.26 169.01 411.3 169.01 411.3L174.8 410.34L183.98 415.17L184.46 419.03L189.29 422.89L194.12 423.86H197.5L200.4 421.93C200.4 421.93 204.75 423.38 207.16 423.86C209.57 424.34 210.06 422.41 210.06 422.41H214.89C216.34 422.41 217.79 421.93 217.79 421.93L221.65 419.51L225.03 420.96C225.03 420.96 226.48 426.27 226.96 427.72C227.44 429.17 227.44 431.1 227.44 432.55V439.31L228.41 441.72L232.76 437.86L235.17 436.41L236.14 438.82L236.62 443.17L241.93 444.62L246.28 443.17L248.21 441.24L250.14 437.86L253.04 436.89C253.04 436.89 255.94 438.82 256.9 440.27C257.87 441.72 257.87 442.68 257.87 442.68H260.77V435.92L264.15 430.61C264.15 430.61 262.7 424.33 262.22 421.92L262.28 421.96ZM231.6 355.38C231.57 355.55 231.55 355.73 231.52 355.92C231.54 355.73 231.57 355.56 231.6 355.38ZM231.43 356.75C231.42 356.89 231.4 357.03 231.39 357.16C231.39 357.03 231.41 356.89 231.43 356.75Z" stroke="#449EE3" stroke-width="2"/>
<path d="M93.7502 531.58C93.7502 531.58 92.7802 534.48 92.7802 536.89C92.7802 539.3 94.7102 541.24 94.7102 541.24C94.7102 541.24 95.6802 544.14 95.6802 545.59C95.6802 547.04 98.5802 548 98.5802 548L101.96 547.03L105.82 547.51L108.72 549.44L112.1 548.96L113.55 545.1L117.9 543.65L122.73 540.75C122.73 540.75 125.14 537.37 126.11 535.44C127.08 533.51 126.59 530.13 126.59 530.13C126.59 530.13 128.04 526.27 129 524.82C129.97 523.37 135.28 522.89 135.28 522.89H142.52L145.9 523.85C145.9 523.85 148.31 525.78 148.8 527.23C149.28 528.68 152.18 533.51 152.18 533.51L153.15 538.34L156.05 540.27L159.43 537.86L159.91 530.62L164.26 526.27L168.61 525.3L172.47 528.2L173.44 533.51L171.03 537.37L172.48 541.23V546.06L169.1 548.96L167.65 551.38L172.48 552.83L175.86 556.69L178.76 555.72C178.76 555.72 182.14 554.75 184.07 554.75C186 554.75 187.45 554.27 188.9 554.27C190.35 554.27 191.31 554.27 193.25 553.3C195.18 552.33 197.11 553.78 197.11 553.78L203.39 557.16H207.74L214.02 558.13L219.81 556.68L224.64 551.85L228.99 552.82C228.99 552.82 231.89 553.3 235.27 553.3C238.65 553.3 239.62 555.23 240.58 556.68C241.55 558.13 243.96 559.58 246.86 561.03C249.76 562.48 246.86 561.03 248.31 559.58C249.76 558.13 247.83 556.68 247.83 556.68C247.83 556.68 248.31 549.92 250.24 547.99C252.17 546.06 256.52 546.54 256.52 546.54L258.93 542.68L257.48 538.82C257.48 538.82 257 536.4 257 534.96C257 533.52 257 532.55 256.52 529.17C256.04 525.79 255.56 527.24 254.11 524.34C252.66 521.44 251.7 520.96 251.7 520.96L252.67 515.65L256.05 509.37L257.02 504.06L261.85 490.54C261.85 490.54 264.26 487.16 265.71 484.74C267.16 482.33 269.57 479.43 270.54 477.98C271.51 476.53 275.37 473.15 275.37 473.15H279.71L285.99 469.77C285.99 469.77 288.4 468.32 289.85 467.36C291.3 466.4 292.75 464.46 294.68 462.05C296.61 459.63 296.61 459.15 296.61 459.15L300.95 456.25L300.47 450.46L299.02 448.05L295.64 442.74L296.23 440.54L293.71 440.33C293.71 440.33 290.81 437.91 289.36 439.36C287.91 440.81 281.63 441.29 281.63 441.29L278.25 439.84L276.32 437.91L271.01 435.5L266.18 434.53L262.72 433.07L260.87 435.98V442.74H257.97C257.97 442.74 257.97 441.78 257 440.33C256.03 438.88 253.14 436.95 253.14 436.95L250.24 437.92L248.31 441.3L246.38 443.23L242.03 444.68L236.72 443.23L236.24 438.88L235.27 436.47L232.86 437.92L228.51 441.78L227.54 439.37V432.61C227.54 431.16 227.54 429.23 227.06 427.78C226.58 426.33 225.13 421.02 225.13 421.02L221.75 419.57L217.89 421.99C217.89 421.99 216.44 422.47 214.99 422.47H210.16C210.16 422.47 209.68 424.4 207.26 423.92C204.85 423.44 200.5 421.99 200.5 421.99L197.6 423.92H194.22L189.39 422.95L184.56 419.09L184.08 415.23L174.9 410.4L169.11 411.36C169.11 411.36 165.73 412.33 163.8 413.29C161.87 414.26 158.01 418.6 158.01 418.6C158.01 418.6 158.01 419.08 155.6 421.5C153.18 423.92 153.18 424.88 151.25 426.81C149.32 428.74 147.87 429.22 146.42 429.71C144.97 430.19 141.11 430.68 139.66 431.16C138.94 431.4 136.46 432.23 134.13 433C134.51 433.82 135.67 436.63 134.02 436.63C132.09 436.63 130.16 437.92 128.23 437.92H122.43L112.77 436.63L108.26 439.85L110.19 442.42L115.34 443.06L117.92 443.7L119.21 448.21L120.5 454.65L125.65 453.36L135.95 452.07L146.9 450.14L147.54 454C147.54 454 144.96 456.58 143.03 456.58H137.88C135.95 456.58 132.09 457.22 132.09 457.22C132.09 457.22 128.87 459.15 130.16 461.73C131.45 464.31 135.96 466.24 135.96 466.24L139.18 470.1L141.11 474.61L135.31 473.97L130.8 470.11H128.22L123.71 470.76L117.27 477.2L113.41 483.64L107.62 484.93L99.8902 488.79L95.3802 492.65C95.3802 492.65 94.7402 495.23 95.3802 498.44C96.0202 501.66 99.2402 503.59 99.2402 503.59L106.32 502.95L117.91 504.88L122.42 508.74L117.27 509.38H112.76L110.18 510.02L103.1 511.31L98.5902 513.89L92.8002 518.4L88.6802 523.56C90.1502 525.19 91.4702 526.69 91.8402 527.25C92.8102 528.7 93.7702 531.6 93.7702 531.6L93.7502 531.58Z" fill="#D9E5F3" stroke="#449EE3" stroke-width="2"/>
<path d="M268.866 607.612C269.489 608.654 270.01 609.522 270.01 611.26L269.94 611.24C269.94 614.14 270.42 617.52 270.42 617.52L268.49 620.42C266.56 623.32 261.73 623.8 261.73 623.8L256.9 627.66L256.35 632.1L254.33 633.62H243.38L242.09 636.84L244.67 643.92C244.67 643.92 252.4 645.85 254.33 645.85C256.26 645.85 261.41 644.56 261.41 644.56L265.92 645.85V654.22C265.92 656.16 265.28 660.02 265.28 660.02V665.81L262.7 668.39L255.62 665.17H249.18L245.32 670.32V676.76L243.39 679.34L239.53 677.41L235.67 672.26V665.18L238.25 660.67L238.89 654.88C238.89 654.88 235.67 649.08 235.03 647.15C234.38 645.22 233.74 643.29 233.74 643.29H224.08L215.07 648.44L211.21 654.23V663.89C211.21 665.83 215.72 669.69 215.72 669.69L222.16 676.13L224.09 680.64L222.8 685.79L217.65 687.08C217.65 687.08 213.78 688.37 211.85 688.37C209.92 688.37 211.85 692.88 211.85 692.88V696.74C211.85 696.74 209.27 697.38 207.34 699.96C205.41 702.54 204.12 703.18 204.12 703.18C204.12 703.18 201.55 703.18 200.26 705.11C198.97 707.04 198.97 709.62 198.97 709.62L195.11 710.26L191.89 702.53L188.03 696.09C186.65 693.787 185.597 694.118 184.403 694.494C183.928 694.643 183.43 694.8 182.88 694.8H176.44C174.51 694.8 171.29 694.16 171.29 694.16C171.29 694.16 168.71 687.72 168.71 685.79C168.71 683.86 177.08 681.28 177.08 681.28L181.59 680.64L184.17 681.28L188.68 675.49V669.05L191.9 665.19L197.05 666.48L198.34 670.99L202.2 663.26L199.62 658.11L195.76 657.47L190.61 655.54L183.53 661.34L175.8 665.2L169.36 666.49L162.28 670.35L159.7 672.28L154.55 674.86L152.62 678.08V684.52L150.69 689.67L147.47 694.82C147.47 694.82 146.18 697.4 144.25 699.33C142.32 701.26 141.03 703.19 141.03 703.19C141.03 703.19 134.59 704.48 132.66 704.48C130.73 704.48 128.8 703.84 128.8 703.84C128.8 703.84 126.22 701.91 125.58 699.98C124.93 698.05 124.29 693.53 124.29 690.32C124.29 687.87 124.669 686.912 125.132 685.737C125.276 685.372 125.428 684.987 125.58 684.53C126.22 682.6 124.29 678.74 124.29 678.74L119.14 683.89C119.14 683.89 116.56 692.91 116.56 694.84C116.56 696.77 113.34 699.35 113.34 699.35L108.19 700.64L99.18 705.79C99.18 705.79 96.6 707.08 95.96 710.3C95.32 713.52 94.67 715.45 92.74 718.03C90.81 720.6 87.59 721.89 87.59 721.89L81.8 722.53L79.22 718.02C79.22 718.02 76.64 712.22 76.64 709.65C76.64 707.08 77.28 705.79 77.28 705.79L78.57 701.93L80.5 697.42L76.64 694.2L75.35 687.76L72.77 680.68C72.77 680.68 68.9 680.04 66.97 680.04C65.5053 680.04 64.4092 678.554 62.8425 676.43C62.3448 675.755 61.7996 675.016 61.18 674.24C58.61 671.02 54.1 665.87 54.1 665.87L51.52 660.72C51.52 660.72 50.23 654.92 50.23 652.99C50.23 651.06 53.45 648.48 53.45 648.48L58.6 649.12L61.82 651.7C61.82 651.7 63.75 656.85 64.39 658.78C65.04 660.71 65.68 667.15 65.68 667.15L70.83 668.44V662L67.61 657.49V653.63L70.19 652.34L75.99 653.63L81.14 659.43L86.29 660.72V655.57L80.5 651.06L75.35 647.2L68.91 644.62C68.5 643.5 68.5 643.5 67.5001 640.5L74.0001 639H81.0001L83.5001 635.5L79.5001 628L71.0001 624.5C72 623 72 623 74.7 618.86L72.12 612.42L66.33 613.06L61.18 609.84L64.4 605.98L66.98 602.12L70.2 597.61L68.91 595.68C67.62 593.75 68.91 592.46 68.91 592.46L73.42 590.53L77.93 596.32L80.51 592.46L85.66 589.24L86.95 586.02L83.09 583.44L76.65 575.71L72.14 566.7L65.7 564.12V560.26L68.28 553.82L74.72 550.6L77.94 544.16L79.87 541.58L83.73 539V534.49L85.02 529.34L87.6 524.83L88.63 523.55C90.1 525.18 91.42 526.68 91.79 527.24C92.75 528.69 93.72 531.59 93.72 531.59C93.72 531.59 92.75 534.48 92.75 536.9C92.75 539.32 94.68 541.25 94.68 541.25C94.68 541.25 95.65 544.16 95.65 545.6C95.65 547.04 98.55 548.01 98.55 548.01L101.93 547.04L105.79 547.52L108.69 549.45L112.07 548.97L113.52 545.11L117.87 543.66L122.7 540.76C122.7 540.76 125.11 537.38 126.08 535.45C127.04 533.52 126.56 530.14 126.56 530.14C126.56 530.14 128 526.28 128.97 524.83C129.94 523.38 135.25 522.9 135.25 522.9H142.49L145.87 523.86C145.87 523.86 148.29 525.79 148.77 527.24C149.25 528.69 152.15 533.52 152.15 533.52L153.12 538.35L156.02 540.28L159.4 537.87L159.88 530.63L164.23 526.28L168.58 525.31L172.44 528.21L173.41 533.52L171 537.38L172.45 541.24V546.07L169.07 548.97L167.62 551.38L172.45 552.83L175.83 556.69L178.73 555.72C178.73 555.72 182.11 554.75 184.04 554.75C185.074 554.75 185.97 554.612 186.802 554.484C187.523 554.373 188.197 554.27 188.87 554.27C190.32 554.27 191.29 554.27 193.22 553.3C195.15 552.33 197.08 553.78 197.08 553.78L203.36 557.16H207.71L213.99 558.13L219.78 556.68L224.61 551.85L228.96 552.82C228.96 552.82 231.86 553.3 235.24 553.3C238.347 553.3 239.409 554.931 240.314 556.321C240.394 556.443 240.472 556.563 240.55 556.68C241.52 558.13 243.93 559.58 246.83 561.03C248.281 561.756 248.28 561.753 248.1 561.389C247.97 561.126 247.746 560.673 247.91 560.17L249.73 563.45C249.73 563.45 248.76 566.82 248.76 568.28C248.76 568.859 248.913 569.587 249.097 570.467C249.377 571.804 249.73 573.49 249.73 575.53C249.73 576.892 249.652 577.861 249.59 578.628C249.499 579.763 249.443 580.454 249.73 581.32C250.21 582.77 253.59 586.15 253.59 586.15L257.94 587.6C257.94 587.6 259.39 590.03 259.39 593.4C259.39 596.77 263.74 602.57 263.74 602.57C263.74 602.57 266.63 602.08 267.6 604.98C267.985 606.142 268.448 606.916 268.866 607.612Z" fill="#D9E5F3" stroke="#449EE3" stroke-width="2"/>
<path d="M79.5001 628L71.0001 624.5C67.0001 627.3 66.6667 630 67.0001 631V639L67.5001 640.5L74.0001 639H81.0001L83.5001 635.5L79.5001 628Z" fill="#D9E5F3" stroke="#449EE3" stroke-width="2"/>
<path d="M527.081 491.147L527 491.5L513 488V483.5L509 481.5L505 485L501.5 481.5V474L497.5 468.5V465.5L494 458L492.5 450H490L484 451.5L479 453L470 444V437H465.5L459 430L462.5 424L465.5 421.5L464 415C467.091 414.082 468.949 414.531 472.5 417C475.348 420.314 477.123 421.162 480.5 421.5L483 419.5L484 415.5L488 407.5H494L497.5 411V415.5L501.5 417L511.302 419.451C511.309 419.246 511.32 419.086 511.337 418.926C511.402 418.315 511.558 417.713 511.93 414.72C512.296 411.774 513.088 409.669 513.698 408.046C514.155 406.831 514.51 405.886 514.51 405.06C514.51 403.13 517.73 399.27 517.73 399.27L520.95 392.19L522.88 386.4C522.88 386.4 524.81 382.54 524.81 378.67C524.81 374.8 524.17 370.94 522.88 368.37L521.59 365.79C521.59 365.79 520.3 362.57 522.88 356.13C525.46 349.69 529.32 344.54 529.32 344.54L530.61 339.39L529.97 332.95L527.39 324.58C527.39 324.58 523.53 318.14 523.53 316.21C523.53 315.411 523.42 313.616 523.292 311.514C523.11 308.54 522.89 304.951 522.89 302.69C522.89 300.429 523.995 297.502 524.91 295.077C525.558 293.363 526.11 291.899 526.11 291.1C526.11 290.601 526.153 289.67 526.206 288.531C526.356 285.269 526.585 280.3 526.11 278.87C525.79 277.905 524.985 276.778 524.18 275.65C523.375 274.523 522.57 273.395 522.25 272.43C521.92 271.446 521.258 269.79 520.602 268.148C520.265 267.304 519.929 266.463 519.64 265.72L513.23 268.57L505.51 270.5L501.65 275.65L498.43 281.44C498.43 281.44 495.85 280.8 492.64 278.86C489.42 276.93 488.78 272.42 488.78 272.42L481.06 271.78L475.91 275H470.76C470.76 275 466.25 273.71 464.32 273.07C462.39 272.43 460.46 271.78 460.46 271.78L457.24 272.42L453.38 275L451.45 277.58L447.59 276.29L446.3 271.78L441.15 269.2H438.58L433.43 272.42L432.79 276.28L428.28 276.92L421.2 274.34L418.62 271.12C418.62 271.12 418.55 271.12 418.44 271.1L416.37 273.69L410.09 276.1H406.71L406.23 279.48L402.85 283.34H397.54L395.61 285.27L394.64 288.17L390.29 289.62L387.87 293.97L386.91 297.83C386.91 297.83 384.5 300.24 384.5 302.18C384.5 304.12 386.91 307.49 386.91 307.49V310.87L383.53 312.32H379.67L376.77 312.8L373.39 311.83L370.98 308.93L367.12 306.52L364.7 303.14L360.35 302.66L357.45 304.11L355.03 307.49L352.62 311.35L349.72 309.9L347.31 307.49L342.97 307.01L338.62 309.91L335.24 310.88L331.38 311.36L328.97 316.19L331.38 321.02L331.86 325.85L328.96 326.33L325.1 323.43L320.27 321.5L316.89 323.91L313.99 326.32L309.16 326.8L308.68 329.7C308.68 329.7 310.61 331.63 310.61 333.08C310.61 334.53 312.06 337.91 312.06 337.91L311.09 341.77L307.71 341.29L305.78 338.39L302.88 336.94L300.47 339.84L295.64 341.77C295.64 341.77 293.23 343.7 294.67 344.67C295.249 345.057 295.827 345.212 296.344 345.35C297.123 345.558 297.762 345.729 298.05 346.6C298.53 348.05 300.95 349.5 300.95 349.5L303.37 354.33V358.19C303.37 358.19 302.4 361.57 302.4 363.02C302.4 363.693 302.713 364.157 303.048 364.655C303.434 365.228 303.85 365.846 303.85 366.88C303.85 367.402 303.921 368.065 303.996 368.765C304.198 370.651 304.428 372.803 303.37 373.16L301.92 373.64V379.92L304.33 383.3L301.43 385.23L297.57 391.02C297.57 391.02 295.64 392.47 296.6 395.37C297.57 398.27 299.01 398.75 300.46 398.75H305.77C307.22 398.75 310.6 401.17 310.6 401.17C310.6 401.17 316.88 403.58 318.33 402.62C319.292 401.983 318.34 400.705 318.436 400.621C318.484 400.579 318.803 400.845 319.78 401.66C322.68 404.07 325.09 408.42 325.09 408.42L323.16 413.73L317.37 414.7C317.37 414.7 313.51 414.7 313.51 416.15V425.32L311.58 431.11L305.79 436.9L299.51 440.76L296.24 440.49L295.65 442.69L299.03 448L300.48 450.41L300.96 456.2L296.62 459.1C296.62 459.1 296.6 459.44 295.54 460.88L301.93 468.27L304.83 470.68L308.69 472.13L312.07 475.99L321.73 476.96H325.59C325.59 476.96 327.04 475.99 327.52 478.89C327.821 480.71 328.315 481.576 328.879 482.565C329.213 483.152 329.573 483.782 329.93 484.68C330.9 487.1 332.83 489.03 332.83 489.03L337.66 491.44L339.11 496.27L338.14 500.13L335.73 504.96L332.83 509.31L337.18 511.72H341.53C342.98 511.72 349.26 511.72 350.7 512.69C352.15 513.66 357.94 515.59 357.94 515.59L361.8 516.56H366.63C366.63 516.56 370.01 515.59 371.46 515.59C372.91 515.59 379.67 513.66 379.67 513.66L383.53 507.87L386.43 514.15L388.85 518.5L391.27 523.81L394.17 526.23L399.96 523.81L403.82 525.26C403.82 525.26 408.17 524.29 409.13 525.74C410.1 527.19 414.92 528.16 414.92 528.16H422.16L427.47 526.23C427.47 526.23 429.88 523.33 431.33 523.33C432.78 523.33 437.12 520.92 437.12 520.92L440.5 518.51C440.5 518.51 441.47 518.03 444.36 518.51C447.26 518.99 453.05 519.96 454.5 520.92C454.73 521.07 455.08 521.23 455.49 521.38L456.92 519.48L460.78 519C460.78 519 461.26 516.1 462.71 513.21C464.16 510.31 466.09 509.83 466.09 509.83C466.09 509.83 468.99 507.9 470.44 506.93C471.89 505.96 472.85 506.93 472.85 506.93L476.71 507.9L481.05 509.35C485.4 510.8 486.36 510.32 486.36 510.32L488.29 514.18C488.29 514.18 490.7 518.04 491.67 519.49C492.64 520.94 493.12 521.42 493.12 521.42L497.95 520.46L501.33 518.04L509.54 519.01L514.85 521.91L517.62 522.43L524.18 508.72L526.11 498.42L527.081 491.147Z" fill="#D9E5F3" stroke="#449EE3" stroke-width="2"/>
<path d="M489.25 568.76L487.32 566.34L482.01 565.37L477.66 565.85L475.24 567.3L470.41 569.23C470.41 569.23 469.44 568.26 468.48 569.71C467.51 571.16 466.07 573.57 463.65 575.02C461.24 576.47 462.69 577.92 458.34 578.4L453.99 578.88C453.99 578.88 452.06 580.81 450.61 582.26C449.16 583.71 446.75 586.61 446.75 586.61C446.75 586.61 445.79 587.09 442.89 587.58C439.99 588.06 439.03 587.58 437.09 588.55C435.16 589.52 430.81 590.48 430.81 590.48C430.81 590.48 428.4 591.93 426.95 594.34C425.5 596.75 428.4 594.82 425.5 596.75C422.6 598.68 420.19 597.23 419.22 598.68C418.26 600.13 419.22 597.72 418.26 600.13C417.29 602.54 419.71 603.03 419.71 604.48C419.71 605.93 420.19 608.34 420.19 608.34C420.19 608.34 419.22 610.75 418.26 612.69C418 613.21 417.42 614.29 416.72 615.59H430.17L435.32 614.3L439.18 612.37L439.82 619.45L444.33 620.09L448.84 619.45L453.99 621.38L455.28 616.23L460.43 615.59L465.58 611.08C473.31 609.15 476.53 603.35 476.53 603.35L480.39 593.69L482.32 589.83L486.18 583.39L489.4 578.88L492.72 577.37C491.65 576.07 490.69 575.01 490.69 575.01L489.24 568.73L489.25 568.76Z" fill="#D9E5F3" stroke="#449EE3" stroke-width="2"/>
<path fill-rule="evenodd" clip-rule="evenodd" d="M456.92 519.48L455.49 521.38C455.08 521.23 454.73 521.07 454.5 520.92C453.05 519.96 447.26 518.99 444.36 518.51C441.47 518.03 440.5 518.51 440.5 518.51L437.12 520.92C437.12 520.92 432.78 523.33 431.33 523.33C429.88 523.33 427.47 526.23 427.47 526.23L422.16 528.16H414.92C414.92 528.16 410.1 527.19 409.13 525.74C408.17 524.29 403.82 525.26 403.82 525.26L399.96 523.81L394.17 526.23L391.27 523.81L388.85 518.5L386.43 514.15L383.53 507.87L379.67 513.66C379.67 513.66 372.91 515.59 371.46 515.59C370.01 515.59 366.63 516.56 366.63 516.56H361.8L357.94 515.59C357.94 515.59 352.15 513.66 350.7 512.69C349.26 511.72 342.98 511.72 341.53 511.72H337.18L332.83 509.31L335.73 504.96L338.14 500.13L339.11 496.27L337.66 491.44L332.83 489.03C332.83 489.03 330.9 487.1 329.93 484.68C329.573 483.782 329.213 483.152 328.879 482.565C328.315 481.576 327.821 480.71 327.52 478.89C327.04 475.99 325.59 476.96 325.59 476.96H321.73L312.07 475.99L308.69 472.13L304.83 470.68L301.93 468.27L295.54 460.88C296.6 459.44 296.62 459.1 296.62 459.1L300.96 456.2L300.48 450.41L299.03 448L295.65 442.69L296.24 440.49L299.51 440.76L305.79 436.9L311.58 431.11L313.51 425.32V416.15C313.51 414.7 317.37 414.7 317.37 414.7L323.16 413.73L325.09 408.42C325.09 408.42 322.68 404.07 319.78 401.66C318.803 400.845 318.484 400.579 318.436 400.621C318.34 400.705 319.292 401.983 318.33 402.62C316.88 403.58 310.6 401.17 310.6 401.17C310.6 401.17 307.22 398.75 305.77 398.75H300.46C299.01 398.75 297.57 398.27 296.6 395.37C295.64 392.47 297.57 391.02 297.57 391.02L301.43 385.23L304.33 383.3L301.92 379.92V373.64L303.37 373.16C304.428 372.803 304.198 370.651 303.996 368.765C303.921 368.065 303.85 367.402 303.85 366.88C303.85 365.846 303.434 365.228 303.048 364.655C302.713 364.157 302.4 363.693 302.4 363.02C302.4 361.57 303.37 358.19 303.37 358.19V354.33L300.95 349.5C300.95 349.5 298.53 348.05 298.05 346.6C297.762 345.729 297.123 345.558 296.344 345.35C295.827 345.212 295.249 345.057 294.67 344.67C293.23 343.7 295.64 341.77 295.64 341.77L300.47 339.84L302.88 336.94L305.78 338.39L307.71 341.29L311.09 341.77L312.06 337.91C312.06 337.91 310.61 334.53 310.61 333.08C310.61 331.63 308.68 329.7 308.68 329.7L309.16 326.8L313.99 326.32L316.89 323.91L320.27 321.5L325.1 323.43L328.96 326.33L331.86 325.85L331.38 321.02L328.97 316.19L331.38 311.36L335.24 310.88L338.62 309.91L342.97 307.01L347.31 307.49L349.72 309.9L352.62 311.35L355.03 307.49L357.45 304.11L360.35 302.66L364.7 303.14L367.12 306.52L370.98 308.93L373.39 311.83L376.77 312.8L379.67 312.32H383.53L386.91 310.87V307.49C386.91 307.49 384.5 304.12 384.5 302.18C384.5 300.24 386.91 297.83 386.91 297.83L387.87 293.97L390.29 289.62L394.64 288.17L395.61 285.27L397.54 283.34H402.85L406.23 279.48L406.71 276.1H410.09L416.37 273.69L418.44 271.1C418.55 271.12 418.62 271.12 418.62 271.12L421.2 274.34L428.28 276.92L432.79 276.28L433.43 272.42L438.58 269.2H441.15L446.3 271.78L447.59 276.29L451.45 277.58L453.38 275L457.24 272.42L460.46 271.78C460.46 271.78 462.39 272.43 464.32 273.07C466.25 273.71 470.76 275 470.76 275H475.91L481.06 271.78L488.78 272.42C488.78 272.42 489.42 276.93 492.64 278.86L491 281.44L488.5 281L485 279.5L480 283.5L481.5 286L480 290.5L478 293L480 295H481.5L485 297.5L486 300.5L485 302.69L487 306.5C488.667 307 492.1 308 492.5 308C492.9 308 494 309.667 494.5 310.5L500 311L501.5 308.5L504 309L504.5 310L503.5 315L505.5 318L505 322L508 324.58V326L503.5 328.5L500.5 334L502.5 336V339.39L501 343.5L494 345.5L495.5 348V351.223L492.5 356.5L496 360.5L495.5 366.5L497 370L495.5 371.5L494.5 370L493 371L492.5 374L490.5 375L489 372.5L483.5 372L482 377.5L485 383.5L489 386.4L492 391.5L490 397.5L488 408L484 415.5L483 419L480.5 421.5C479 421.5 475.4 420.7 473 417.5C470 413.5 464.5 414.5 464 415C463.6 415.4 464.833 419.5 465.5 421.5L462.5 424L459 430L465.5 437H470V444L477 451L475.5 457L472 458V461.5L473.5 466L472.85 468.5L473.5 471L472 472.5C471.333 472.667 470 472.9 470 472.5C470 472.1 469 470.667 468.5 470L465 469L461 472.5L459 476.5L458.5 482.5L456 485L455 489L453 492L448.5 500V503L452.5 511L458 513.21L456.92 519.48Z" fill="#005596" stroke="#005596"/>
<circle cx="209" cy="176" r="6" fill="#39A0FF"/>
<circle cx="502" cy="450" r="6" fill="#39A0FF"/>
<circle cx="493" cy="534" r="6" fill="#39A0FF"/>
<circle cx="474" cy="170" r="6" fill="#39A0FF"/>
<circle cx="396" cy="583" r="6" fill="#39A0FF"/>
<circle cx="203" cy="218" r="6" fill="#39A0FF"/>
<circle cx="140" cy="774" r="6" fill="#39A0FF"/>
<circle cx="158" cy="182" r="6" fill="#39A0FF"/>
<circle cx="258" cy="347" r="6" fill="#39A0FF"/>
<circle cx="315" cy="141" r="6" fill="#39A0FF"/>
<circle cx="234" cy="404" r="6" fill="#39A0FF"/>
<circle cx="191" cy="474" r="6" fill="#39A0FF"/>
<circle cx="144" cy="587" r="6" fill="#39A0FF"/>
<circle cx="79" cy="632" r="6" fill="#39A0FF"/>
<circle cx="415" cy="480" r="6" fill="#39A0FF"/>
<circle cx="446" cy="604" r="6" fill="#39A0FF"/>
</g>
<defs>
<clipPath id="clip0_1085_16729">
<rect width="605" height="812" fill="white"/>
</clipPath>
</defs>
</svg>
