<svg width="219" height="284" viewBox="0 0 219 284" fill="none" xmlns="http://www.w3.org/2000/svg">
<path d="M36.8405 5.72031L39.5305 4.82031L40.5405 6.7303L43.6805 8.07031L50.6405 8.75031L51.0905 11.6603L51.3105 15.7003L52.6605 19.2903L52.4305 20.8603H47.2705L46.6005 22.4403L44.3505 22.6603V24.4503L45.2505 25.1303L35.6005 31.1903H33.5805L29.1005 34.5503V38.8203L14.7305 39.2703L23.7105 32.9803L26.1805 27.3703L24.6105 23.1103L30.4405 15.4803L33.3605 13.6803L36.8405 5.72031Z" fill="#B8CAF5" stroke="#6282D0" stroke-linecap="round" stroke-linejoin="round"/>
<path d="M50.6406 8.75012L61.0006 2.46013L68.4806 1.14012L83.8606 0.620117L82.2806 10.5301L80.3906 13.7401L82.4306 18.9601L86.3506 28.1201L87.5006 43.6801L85.9506 45.4301L94.0006 55.2501L74.5806 71.8701L66.0106 73.2701L66.0706 70.2601L29.2006 40.8401L29.1006 38.8201V34.5501L33.5806 31.1901H35.6006L45.2506 25.1301L44.3506 24.4501V22.6601L46.6006 22.4401L47.2706 20.8601H52.4306L52.6606 19.2901L51.3106 15.7001L51.0906 11.6601L50.6406 8.75012Z" fill="#B8CAF5" stroke="#6282D0" stroke-linecap="round" stroke-linejoin="round"/>
<path d="M92.7102 16.6904L104.63 20.0504L106.86 24.7704L116.72 28.4704L119.38 26.1504V20.9104L125.11 17.5204L135.51 21.7904L134.16 29.3604L135.51 31.9904L135.02 70.6404L131.21 70.8604L107.35 56.1404L100.33 58.0904L94.0002 55.2504L85.9502 45.4304L87.5002 43.6804L86.3502 28.1204L88.6202 26.6104L88.2902 23.6004L92.7102 19.5604V16.6904Z" fill="#B8CAF5" stroke="#6282D0" stroke-linecap="round" stroke-linejoin="round"/>
<path d="M135.14 23.88L145.22 24.74L148.2 26.46L154.5 23.25L158.05 24.86L163.96 24.46L166.3 30.99L164.13 38.55L158.46 30.13V32.54L163.21 41.53L168.2 53.39L168.88 58.32L172.84 61.64H135.14L135.51 31.99L134.16 29.36L135.14 23.88Z" fill="#B8CAF5" stroke="#6282D0" stroke-linecap="round" stroke-linejoin="round"/>
<path d="M131.21 70.8606L135.02 70.6406L135.14 61.6406H172.84L174.27 74.5306L178.22 77.4506L172.84 81.8606L169.74 97.3306L163.33 110.861L159.77 100.771L153.99 109.251L148.6 107.591L143.22 110.171L137.49 106.501L132.67 113.201H130.21L124.94 97.1606L129.06 86.3306L131.7 85.8206L131.21 70.8606Z" fill="#B8CAF5" stroke="#6282D0" stroke-linecap="round" stroke-linejoin="round"/>
<path d="M178.22 77.4502L172.84 81.8602L170.83 91.9002L180.28 90.4602L190.02 99.1702L192.49 98.1402L184.12 88.3102H180.69L179.6 80.2602L178.22 77.4502Z" fill="#B8CAF5" stroke="#6282D0" stroke-linecap="round" stroke-linejoin="round"/>
<path d="M192.491 98.1406L193.401 100.141L192.491 103.241L187.851 104.381L187.561 101.631L190.021 99.1706L192.491 98.1406Z" fill="#B8CAF5" stroke="#6282D0" stroke-linecap="round" stroke-linejoin="round"/>
<path d="M163.33 110.86L169.74 97.33L170.83 91.9L180.28 90.46L190.02 99.17L187.56 101.63L187.85 104.38L192.49 103.24L190.71 106.84L193.4 110.63L207.61 115.84L198.1 127.53L188.36 131.02L184.35 130.28L181.09 133.31L169.34 128.85L160.4 116.47V114.41L163.67 114.29L163.33 110.86Z" fill="#B8CAF5" stroke="#6282D0" stroke-linecap="round" stroke-linejoin="round"/>
<path d="M188.36 131.02L198.1 127.53L207.61 115.84L193.4 110.63L190.71 106.84L192.49 103.24L196.73 106.67L207.61 103.52L214.66 102.6L216.21 100.37L217.98 101.26L218.27 106.44L210.42 124.95L201.48 137.27L187.39 152.22L185.38 149.76V135.66L188.36 131.02Z" fill="#B8CAF5" stroke="#6282D0" stroke-linecap="round" stroke-linejoin="round"/>
<path d="M132.67 113.201L137.49 106.501L143.22 110.171L148.6 107.591L153.99 109.251L159.77 100.771L163.33 110.861L163.67 114.291L160.4 114.411V116.471L169.34 128.851H164.34L161.74 132.031H153.11L149.44 128.751L145.09 129.901L132.67 113.201Z" fill="#B8CAF5" stroke="#6282D0" stroke-linecap="round" stroke-linejoin="round"/>
<path d="M163.35 130.061L164.34 128.851H169.34L181.09 133.311L184.35 130.281L188.36 131.021L185.38 135.661V149.761L187.39 152.221L182.52 156.631L179.88 164.191L174.84 159.691L175.15 158.011L163.35 150.061L163.84 147.241L163.19 145.631L166.78 139.641L163.35 130.061Z" fill="#B8CAF5" stroke="#6282D0" stroke-linecap="round" stroke-linejoin="round"/>
<path d="M153.111 132.031H161.741L163.351 130.061L166.781 139.641L163.191 145.631L163.841 147.241L163.351 150.061L162.431 155.101L155.091 155.601L156.201 150.101L148.681 151.591L150.401 142.461L153.761 137.501L153.111 132.031Z" fill="#B8CAF5" stroke="#6282D0" stroke-linecap="round" stroke-linejoin="round"/>
<path d="M142.58 126.521L145.09 129.901L149.44 128.751L153.11 132.031L153.76 137.501L150.4 142.461L148.68 151.591L147.68 162.591L151.89 177.561L147.38 178.791L146.23 189.941L150.13 193.831L149.98 197.961L147.46 197.501L141.8 191.161L131.95 189.711L126.83 189.101L125.23 174.281L117.74 173.291L117.2 176.721L111.32 177.331L108.27 169.471L94.9701 169.241L94.5201 168.091L93.8301 164.811L96.8101 163.201L101.77 164.191L106.59 160.681L107.2 155.031L112.39 147.161L112.93 138.531L115.52 130.061L126.68 130.431L128.13 127.831L142.58 126.521Z" fill="#B8CAF5" stroke="#6282D0" stroke-linecap="round" stroke-linejoin="round"/>
<path d="M127.36 104.54L130.21 113.2H132.67L142.58 126.52L128.13 127.83L126.68 130.43L115.52 130.06L114.92 132.03L109.49 133.31L106.97 137.84V134.02L102.16 127.07L104.29 118.05L115.22 115.3L116.59 111.89H120.49L127.36 104.54Z" fill="#B8CAF5" stroke="#6282D0" stroke-linecap="round" stroke-linejoin="round"/>
<path d="M104.291 118.051L100.321 109.691L105.211 108.581L102.161 95.8306H100.321L98.7207 91.8106L105.211 81.6206L106.431 68.2106L104.071 63.5906L103.291 57.2706L107.351 56.1406L131.211 70.8606L131.701 85.8206L129.061 86.3306L124.941 97.1606L127.361 104.541L120.491 111.891H116.591L115.221 115.301L104.291 118.051Z" fill="#B8CAF5" stroke="#6282D0" stroke-linecap="round" stroke-linejoin="round"/>
<path d="M102.16 95.8301L105.21 108.58L100.32 109.69L104.29 118.05L102.16 127.07L106.97 134.02V137.84V140.09L101.51 138.11L87.0699 137.84L87.4499 134.06L83.1699 128.86L84.0499 124.17L89.9699 119.54L91.9999 122.1L99.8299 103.46L102.16 102.39V99.4901L100.55 99.1501L100.32 95.8301H102.16Z" fill="#B8CAF5" stroke="#6282D0" stroke-linecap="round" stroke-linejoin="round"/>
<path d="M98.0701 138.04L101.51 138.11L106.97 140.09V137.84L109.49 133.31L114.92 132.03L112.93 138.53L112.39 147.16L107.2 155.03L106.59 160.68L101.77 164.19L96.8101 163.2L93.8301 164.81L90.6201 160.91L93.8301 160.49L92.7601 155.41L95.7401 153.23L100.74 156.02L101.93 148.42L99.6001 146.2L101.66 143.03L100.32 140.9L98.0701 141.47V138.04Z" fill="#B8CAF5" stroke="#6282D0" stroke-linecap="round" stroke-linejoin="round"/>
<path d="M91.9999 137.93L98.0699 138.04V141.47L100.32 140.9L101.66 143.03L99.5999 146.2L101.93 148.42L100.74 156.02L95.7399 153.23L92.7599 155.41L93.8299 160.49L90.6199 160.91L86.2999 155.14L84.1299 149.22L85.4299 148.76L85.5399 142.96L86.5299 142.65H92.0699L91.9999 137.93Z" fill="#B8CAF5" stroke="#6282D0" stroke-linecap="round" stroke-linejoin="round"/>
<path d="M86.5302 142.65H92.0702L92.0002 137.93L87.0702 137.84L85.6602 141.43L85.8102 142.08L86.5302 142V142.65Z" fill="#B8CAF5" stroke="#6282D0" stroke-linecap="round" stroke-linejoin="round"/>
<path d="M69.7102 74.82V72.66L74.5802 71.87L94.0002 55.25L100.33 58.09L103.29 57.27L104.07 63.59L106.43 68.21L105.21 81.62L98.7202 91.81L99.4202 93.57L95.0702 96.82L92.2202 95.06L87.6402 95.83L86.6502 97.66L81.0702 95.06L77.8602 96.89L76.1102 94.3L70.3002 94.07L67.6302 101.63L65.4102 98.96L63.5802 100.77L63.1202 97.89L58.3802 94.98L56.7002 89.18L60.5202 87.8L67.7002 87.42L69.4602 83.83L69.7102 74.82Z" fill="#B8CAF5" stroke="#6282D0" stroke-linecap="round" stroke-linejoin="round"/>
<path d="M35.3902 49.6904H40.2802L66.0702 70.2604L66.0102 73.2704L69.7102 72.6604L69.4602 83.8304L67.7002 87.4204L60.5202 87.8004L56.7002 89.1804H53.0402L45.7002 95.8304L43.7202 94.8304L42.1102 99.8004L38.9802 106.44L30.9602 107.28L27.6002 98.9604L19.9602 100.03L17.7402 90.1704L18.6602 90.0204L20.2602 86.5804L21.4102 88.2604L22.8602 87.5004L38.6002 87.1004L35.3902 49.6904Z" fill="#B8CAF5" stroke="#6282D0" stroke-linecap="round" stroke-linejoin="round"/>
<path d="M29.2004 40.8398L40.2804 49.6898H35.3904L38.6004 87.0999L22.8604 87.4998L21.4104 88.2599L20.2604 86.5798L18.6604 90.0198L17.7404 90.1699L12.9304 84.2098L4.22043 84.0598L6.06043 76.4199L4.22043 71.6898L4.91043 68.4799L2.69043 65.5099V64.0498L15.0704 64.1999L15.2204 57.3998L18.4304 55.7998V45.6399H28.6704L29.2004 40.8398Z" fill="#B8CAF5" stroke="#6282D0" stroke-linecap="round" stroke-linejoin="round"/>
<path d="M14.7304 39.2703L29.1004 38.8203L29.2004 40.8403L28.6704 45.6403H18.4304V55.8003L15.2204 57.4003L15.0704 64.2003L2.69043 64.0503V61.3703L6.51043 53.8103L9.57043 51.0603L10.6404 44.5703L13.8504 42.6603L14.7304 39.2703Z" fill="#B8CAF5" stroke="#6282D0" stroke-linecap="round" stroke-linejoin="round"/>
<path d="M3.46031 99.1906L19.9603 100.031L17.7403 90.1706L12.9303 84.2105L4.22031 84.0605L1.32031 89.7105L3.84031 94.4506L3.46031 99.1906Z" fill="#B8CAF5" stroke="#6282D0" stroke-linecap="round" stroke-linejoin="round"/>
<path d="M3.45996 99.1904L13.31 99.6904L13.62 101.17L8.53996 104.84L3.45996 99.1904Z" fill="#B8CAF5" stroke="#6282D0" stroke-linecap="round" stroke-linejoin="round"/>
<path d="M68.6202 104.54L67.6302 101.63L70.3002 94.0703L76.1102 94.3003L77.8602 96.8903L81.0702 95.0603L86.6502 97.6603L87.6402 95.8303L92.2202 95.0603L95.0702 96.8203L99.4202 93.5703L100.32 95.8303L100.55 99.1503L102.16 99.4903V102.39L99.8302 103.46L92.0002 122.1L89.9702 119.54L84.0502 124.17L83.1702 128.86L74.5802 129.97L71.2202 122.71L65.8702 122.1L64.9502 112.33L68.6202 104.54Z" fill="#B8CAF5" stroke="#6282D0" stroke-linecap="round" stroke-linejoin="round"/>
<path d="M63.5798 100.77L65.4099 98.96L67.6298 101.63L68.6199 104.54L64.9498 112.33L65.8699 122.1L61.3598 123.1L60.3699 107.89L58.8398 104.54L63.5798 100.77Z" fill="#B8CAF5" stroke="#6282D0" stroke-linecap="round" stroke-linejoin="round"/>
<path d="M42.0405 109.42L38.9805 106.44L42.1105 99.7997L43.7205 94.8297L45.7005 95.8297L53.0405 89.1797H56.7005L58.3805 94.9797L63.1205 97.8897L63.5805 100.77L58.8405 104.54H47.3105L47.8405 111.03L45.7805 108.58L42.0405 109.42Z" fill="#B8CAF5" stroke="#6282D0" stroke-linecap="round" stroke-linejoin="round"/>
<path d="M8.54004 104.84L13.62 101.17L13.31 99.69L19.96 100.03L27.6 98.96L30.96 107.28L31.88 113.78L27.83 119.58L25.99 113.93L23.17 113.7L21.49 108.28L16.52 108.43L14.38 112.1L8.54004 104.84Z" fill="#B8CAF5" stroke="#6282D0" stroke-linecap="round" stroke-linejoin="round"/>
<path d="M14.3799 112.1L16.5199 108.43L21.4899 108.28L23.1699 113.7L20.2099 119.89L15.6799 116.99L14.3799 112.1Z" fill="#B8CAF5" stroke="#6282D0" stroke-linecap="round" stroke-linejoin="round"/>
<path d="M20.21 119.89L23.17 113.7L25.99 113.93L27.83 119.58L33.48 125.01L32.56 129.97L25.08 124.78L20.21 119.89Z" fill="#B8CAF5" stroke="#6282D0" stroke-linecap="round" stroke-linejoin="round"/>
<path d="M32.5601 129.97L33.4801 125.01L27.8301 119.58L31.8801 113.78L30.9601 107.28L38.9801 106.44L42.0401 109.42L45.7801 108.58L47.8401 111.03L48.5301 114.77L45.8601 119.89L47.6101 127.15L39.8201 126.52L32.5601 129.97Z" fill="#B8CAF5" stroke="#6282D0" stroke-linecap="round" stroke-linejoin="round"/>
<path d="M47.6104 127.15L45.8604 119.89L48.5303 114.77L47.8404 111.03L47.3104 104.54H58.8403L60.3704 107.89L61.3604 123.1L49.9004 128.6L47.6104 127.15Z" fill="#B8CAF5" stroke="#6282D0" stroke-linecap="round" stroke-linejoin="round"/>
<path d="M96.6606 172.9L94.9706 169.24L108.271 169.47L111.321 177.33L117.201 176.72L117.741 173.29L125.231 174.28L126.831 189.1L131.951 189.71L131.341 195.9H125.761L125.231 207.74L130.421 213.85L123.791 215.76L114.841 214.38L114.381 213.16L99.7106 213.01L97.8806 211.33L93.1406 212.17L95.7406 197.96L99.4106 192.5L99.9406 188.33L97.8006 181.38L96.6606 172.9Z" fill="#B8CAF5" stroke="#6282D0" stroke-linecap="round" stroke-linejoin="round"/>
<path d="M148.17 157.241L148.68 151.591L152.2 150.891L153.41 154.071L148.17 157.241Z" fill="#B8CAF5" stroke="#6282D0" stroke-linecap="round" stroke-linejoin="round"/>
<path d="M148.171 157.24L153.411 154.07L152.801 160.07L148.391 165.11L147.681 162.59L148.171 157.24Z" fill="#B8CAF5" stroke="#6282D0" stroke-linecap="round" stroke-linejoin="round"/>
<path d="M148.391 165.111L152.801 160.071L153.411 154.071L152.201 150.891L156.201 150.101L155.091 155.601L162.431 155.101L163.351 150.061L175.151 158.011L174.841 159.691L179.881 164.191L178.471 169.621L180.841 172.521L180.461 180.701L183.821 186.351L177.931 190.321H164.261L163.191 183.141L151.891 177.561L148.391 165.111Z" fill="#B8CAF5" stroke="#6282D0" stroke-linecap="round" stroke-linejoin="round"/>
<path d="M161.051 182.08L163.191 183.14L164.261 190.32H166.551L167.471 199.79L169.461 203.54L166.861 212.7L163.731 201.86L162.201 201.93L160.061 197.96L161.891 195.21L161.051 182.08Z" fill="#B8CAF5" stroke="#6282D0" stroke-linecap="round" stroke-linejoin="round"/>
<path d="M130.42 213.851L125.23 207.741L125.76 195.901H131.34L131.95 189.711L141.8 191.161L147.46 197.501L149.98 197.961L150.13 193.831L146.23 189.941L147.38 178.791L151.89 177.561L161.05 182.081L161.89 195.211L160.06 197.961L161.14 199.971L150.84 203.781L151.75 205.791L141.21 215.361L130.42 213.851Z" fill="#B8CAF5" stroke="#6282D0" stroke-linecap="round" stroke-linejoin="round"/>
<path d="M150.101 207.291L151.751 205.791L150.841 203.781L161.141 199.971L162.201 201.931L163.731 201.861L166.861 212.701L169.461 203.541L167.471 199.791L166.551 190.321H177.931L183.821 186.351L185.441 203.901L180.511 210.601L170.601 218.571L165.851 222.921L168.081 233.001L167.771 239.761L159.721 245.091L160.171 249.961L156.971 250.361L157.371 241.141L154.621 232.431L160.401 222.691L160.061 210.491L154.561 207.451L150.101 207.291Z" fill="#B8CAF5" stroke="#6282D0" stroke-linecap="round" stroke-linejoin="round"/>
<path d="M135.59 214.57L141.21 215.36L150.1 207.29L154.56 207.45L160.06 210.49L160.4 222.69L154.62 232.43L147.99 231.4L143.27 225.38L138.92 221.2L135.59 214.57Z" fill="#B8CAF5" stroke="#6282D0" stroke-linecap="round" stroke-linejoin="round"/>
<path d="M134.83 214.47L130.55 217.31L129.58 215.36L122.36 216.96L122.7 231.28H119.32V242.34L121.85 246.75L121.21 250.65L124.6 250.71L130.44 244.18L136.34 245.89L147.99 231.4L143.27 225.38L138.92 221.2L135.59 214.57L134.83 214.47Z" fill="#B8CAF5" stroke="#6282D0" stroke-linecap="round" stroke-linejoin="round"/>
<path d="M119.321 242.34V231.28H122.701L122.361 216.96L129.581 215.36L130.551 217.31L134.831 214.47L130.421 213.85L123.791 215.76L114.841 214.38L114.381 213.16L99.7106 213.01L97.8806 211.33L93.1406 212.17V215.99L102.311 233.06L101.851 240.28L105.341 254.32L108.381 257.35L109.531 255.23L111.071 255.41L110.841 257.81L116.691 258.73L119.101 256.89L119.321 242.34Z" fill="#B8CAF5" stroke="#6282D0" stroke-linecap="round" stroke-linejoin="round"/>
<path d="M157.12 246.88L154.48 245.78L153.03 248.91L155.07 252.27L156.97 250.36L157.12 246.88Z" fill="#B8CAF5" stroke="#6282D0" stroke-linecap="round" stroke-linejoin="round"/>
<path d="M108.38 257.35L109.53 255.23L111.07 255.41L110.84 257.81L116.69 258.73L119.1 256.89L119.32 242.34L121.85 246.75L121.21 250.65L124.6 250.71L130.44 244.18L136.34 245.89L147.99 231.4L154.62 232.43L157.37 241.14L157.12 246.88L154.48 245.78L153.03 248.91L155.07 252.27L156.97 250.36L160.17 249.96L158.19 258.16L149.52 269.54L134.28 280.38L126.29 279.93L117.89 282.6L112.54 274.81L113.99 274.04L113.08 269.38L108.38 257.35Z" fill="#B8CAF5" stroke="#6282D0" stroke-linecap="round" stroke-linejoin="round"/>
<path d="M146.16 257L140.73 262.28L144.32 266.25L145.16 263.5L148.91 259.61L146.16 257Z" fill="#B8CAF5" stroke="#6282D0" stroke-linecap="round" stroke-linejoin="round"/>
<path d="M188.06 201.94L190.12 211.19L185.84 218.83L187.98 225.24L188.52 231.35L193.4 233.42L197.76 231.81L206.85 198.2V193.39L207.69 195.62L208.53 192.85L205.09 181.17L199.44 191.02L190.04 197.21L188.06 201.94Z" fill="#B8CAF5" stroke="#6282D0" stroke-linecap="round" stroke-linejoin="round"/>
<circle cx="123" cy="122" r="6" fill="#39A0FF"/>
<path d="M105.421 98.016H102.883V106.404H101.029V90.132H102.883V96.486H105.421V98.016ZM94.6208 91.32C95.2328 91.32 95.7908 91.458 96.2948 91.734C96.8108 91.998 97.2488 92.382 97.6088 92.886C97.9808 93.378 98.2688 93.978 98.4728 94.686C98.6888 95.394 98.7968 96.186 98.7968 97.062C98.7968 97.938 98.6888 98.73 98.4728 99.438C98.2688 100.146 97.9808 100.746 97.6088 101.238C97.2488 101.73 96.8108 102.114 96.2948 102.39C95.7908 102.654 95.2328 102.786 94.6208 102.786C94.0088 102.786 93.4448 102.654 92.9288 102.39C92.4248 102.114 91.9868 101.73 91.6148 101.238C91.2548 100.746 90.9668 100.146 90.7508 99.438C90.5468 98.73 90.4448 97.938 90.4448 97.062C90.4448 96.186 90.5468 95.394 90.7508 94.686C90.9668 93.978 91.2548 93.378 91.6148 92.886C91.9868 92.382 92.4248 91.998 92.9288 91.734C93.4448 91.458 94.0088 91.32 94.6208 91.32ZM94.6208 101.13C95.3408 101.13 95.9168 100.77 96.3488 100.05C96.7928 99.33 97.0148 98.334 97.0148 97.062C97.0148 95.79 96.7928 94.794 96.3488 94.074C95.9168 93.354 95.3408 92.994 94.6208 92.994C93.9008 92.994 93.3188 93.354 92.8748 94.074C92.4428 94.794 92.2268 95.79 92.2268 97.062C92.2268 98.334 92.4428 99.33 92.8748 100.05C93.3188 100.77 93.9008 101.13 94.6208 101.13ZM110.459 93.156H108.065V91.662H120.287V93.156H117.893V98.466H120.251V99.978H108.119V98.466H110.459V93.156ZM116.057 93.156H112.313V98.466H116.057V93.156ZM121.601 102.858V104.388H106.841V102.858H121.601ZM136.828 90.096V106.422H134.956V90.096H136.828ZM126.208 101.022C127.492 101.01 128.722 100.968 129.898 100.896C131.086 100.812 132.322 100.668 133.606 100.464L133.804 101.976C132.412 102.216 131.074 102.372 129.79 102.444C128.506 102.516 127.15 102.552 125.722 102.552H124.336V96.108H130.006V93.084H124.3V91.572H131.878V97.602H126.208V101.022ZM155.025 98.088H152.559V106.368H150.705V90.114H152.559V96.54H155.025V98.088ZM148.365 91.752C148.365 92.964 148.257 94.14 148.041 95.28C147.837 96.408 147.459 97.482 146.907 98.502C146.367 99.522 145.623 100.482 144.675 101.382C143.727 102.27 142.515 103.086 141.039 103.83L140.031 102.39C141.471 101.67 142.629 100.896 143.505 100.068C144.381 99.228 145.059 98.298 145.539 97.278L140.391 97.782L140.139 96.18L146.097 95.802C146.313 95.01 146.457 94.164 146.529 93.264H140.967V91.752H148.365Z" fill="#131547"/>
</svg>
