<svg width="414" height="416" viewBox="0 0 414 416" fill="none" xmlns="http://www.w3.org/2000/svg">
<path d="M30.8603 210.999L24.5703 209.879L26.7703 213.139H20.6603L20.3203 217.109L24.1003 221.389L23.9103 228.019L33.1503 223.759L46.7903 232.089L45.9203 237.399H50.9103L58.0503 231.899L59.9603 228.149L63.8203 227.919V225.249L51.0303 216.939L48.5803 211.609L43.0403 211.159L42.8503 206.499L38.4603 205.239L33.5703 208.479L34.1403 211.349L30.8603 210.999Z" fill="#B8CAF5" stroke="#6282D0" stroke-linecap="round" stroke-linejoin="round"/>
<path d="M63.8194 227.92V225.25L51.0294 216.94L48.5794 211.61L43.0394 211.16L42.8494 206.5L38.4594 205.24L33.5694 208.48L34.1394 211.35L30.8594 211L30.8994 194.35L38.2694 192.17L37.5194 197.71L40.1594 196.74L42.9694 199.26L44.9194 196.79L48.7394 201.42L58.8994 200.61L63.2494 209.36L69.6694 212.87L76.6894 206.88L79.0094 206.94L76.5394 210.05L84.6794 213.18L78.8294 215.78H72.2394L66.5694 219.31L69.7194 223.49L67.2594 228.25L63.8194 227.92Z" fill="#B8CAF5" stroke="#6282D0" stroke-linecap="round" stroke-linejoin="round"/>
<path d="M9.84985 188.139L6.29985 182.589L1.08984 178.979L3.60985 170.499L6.46985 172.439L8.87985 172.159L8.81985 168.549L15.6398 164.539L25.9498 169.639L35.5199 167.349L41.5898 170.099L47.6699 168.089L45.1399 163.449L47.1498 153.079L68.8598 148.439L86.5099 156.289L96.5898 151.019L106.79 168.549L118.08 168.259L128.62 175.939L127.72 178.839L123.67 179.609L124.17 185.219L115.96 184.719L114.13 193.819L106.49 194.729L108.74 202.939L80.8598 203.329L69.6699 212.869L63.2498 209.359L58.8998 200.609L48.7398 201.419L44.9199 196.789L47.0898 188.239L43.8098 186.519L38.2699 192.169L30.8998 194.349L30.8598 210.999L19.7798 209.019L20.2399 204.889L12.2999 196.409L16.6098 192.859L21.6198 193.089L21.1998 186.139L14.5499 185.219L9.84985 188.139Z" fill="#B8CAF5" stroke="#6282D0" stroke-linecap="round" stroke-linejoin="round"/>
<path d="M72.2395 215.779H78.8295L84.6795 213.179L76.5396 210.049L79.0096 206.939L76.6895 206.879L80.8595 203.329L108.74 202.939L107.02 207.849L95.7896 213.409L94.0695 215.779H87.7095L86.6795 220.169L75.2195 219.019L72.0195 217.649L72.2395 215.779Z" fill="#B8CAF5" stroke="#6282D0" stroke-linecap="round" stroke-linejoin="round"/>
<path d="M67.2603 228.249L69.7203 223.489L66.5703 219.309L72.2403 215.779L72.0203 217.649L75.2203 219.019L86.6803 220.169L90.3803 223.319L90.8103 227.959L80.5503 230.709L77.5703 223.239L72.7003 228.709L67.2603 228.249Z" fill="#B8CAF5" stroke="#6282D0" stroke-linecap="round" stroke-linejoin="round"/>
<path d="M48.6195 278.23L53.7395 271.73L51.2195 265.24L46.5195 258.79L53.3995 261.65L63.3595 259.3L65.0295 253.17L71.8395 251.8L75.3995 243.89L74.8195 242.11L78.0895 242.17L80.1495 235.64L78.6895 233.29L80.5495 230.71L90.8095 227.96L98.5396 235.81L96.9395 238.9L86.6295 239.48L91.2695 249.79L80.5495 267.26L75.6795 266.98L73.2795 271.45L77.7395 280.62L67.5495 284.11L64.1696 277.46L48.6195 278.23Z" fill="#B8CAF5" stroke="#6282D0" stroke-linecap="round" stroke-linejoin="round"/>
<path d="M106.96 338.14L105.59 343.98L107.48 353.49L112.52 349.31L112.18 345.81L108.74 339.11L106.96 338.14Z" fill="#B8CAF5" stroke="#6282D0" stroke-linecap="round" stroke-linejoin="round"/>
<path d="M189.06 396.52L187 402.93L204.42 407.29H218.97L210.84 404.54L214.62 400.76L204.53 400.07L199.84 401.9L189.06 396.52Z" fill="#B8CAF5" stroke="#6282D0" stroke-linecap="round" stroke-linejoin="round"/>
<path d="M223.44 406.14L220 409.47H225.16L248.88 406.83L244.41 406.14L237.08 407.29L233.87 406.14L231 407.29L223.44 406.14Z" fill="#B8CAF5" stroke="#6282D0" stroke-linecap="round" stroke-linejoin="round"/>
<path d="M246.01 380.819L245.33 383.569L253 382.189L246.01 380.819Z" fill="#B8CAF5" stroke="#6282D0" stroke-linecap="round" stroke-linejoin="round"/>
<path d="M41.3796 147.72L44.9496 153.85L47.1496 153.08L68.8596 148.44L78.7796 152.91L86.5096 156.29L96.5896 151.02L106.79 168.55L118.08 168.26L128.62 175.94L146.04 168.78L160.59 173.42L163.8 171.13L162.14 166.2L166.09 162.53L175.94 165.86L177.26 169.87L182.71 171.81L190.55 170.9L196.8 175.71L210.84 174.11L215.25 170.9L218.06 172.62L221.84 172.67L225.73 174.34L230.43 171.81L232.61 165.05L234.61 162.93L234.1 159.84L232.15 159.96L237.25 156.46L243.78 155.94L251.34 158.98L256.16 172.1L260.45 174.11L267.21 182.3L277.58 180.01L278.56 182.53L273.46 195.08L268.99 193.7L266.75 195.76L267.9 201.72L265.49 205.22L275.41 204.59L290.65 187L296.78 177.09L299.87 161.73L294.54 151.7L290.76 151.59L290.3 155.2L285.49 154.28L284.86 149.99L280.05 149.13L303.59 127.13L322.73 127.18L326.68 124.95L333.62 127.58L330.06 129.07L332.87 130.28L342.84 127.7L339.69 126.27L349.77 115.09L359.63 114.35L359.28 120.94L367.99 114.75L368.39 110.68L374.24 110.11L377.62 111.08L372.12 111.54L369.6 118.76L352.01 134.35L348.51 134.86L348 138.01L345.13 141.85L346.11 158.01L348.11 167.35L353.95 161.04L355.96 156.98L358.37 157.38L359.23 151.65L365.24 149.13L363.75 145.06L368.22 143.34L369.02 140.53L367.13 137.9L368.62 135.2L364.73 134.23L368.96 127.36L370.11 123.8L378.48 121.22L376.93 125.24L384.55 120.42L390.79 123.98L404.09 114.35L412.74 84.0396L404.95 71.2096L392.11 69.5996L391.42 76.4796L384.32 73.9596L387.99 70.7496L379.97 72.8096L356.82 71.4396L358.19 66.6196H333.9L329.6 61.1196L323.99 60.3196L327.2 59.5796L318.72 56.6596L298.95 53.7296L298.55 54.9896L292.59 56.8296L295.11 61.7496L290.87 60.3196L275.18 61.8096L272.03 59.1796L267.9 66.2196L259.36 58.9496L262.97 57.3996L260.34 51.4396L245.04 47.8896L241.14 50.3496L243.15 54.0796L229.57 52.2396L228.54 49.2596L214.27 48.9796L211.64 50.9796L210.66 47.2596L204.53 47.7196L187.12 52.9296L205.91 42.2796L212.21 38.8396V35.1696L205.68 30.1296H194.22L194.39 31.9096L189.06 31.2696L192.96 28.7496L183.79 28.0096L189.01 26.2296L187.46 24.5096L180.93 24.0596L171.48 29.1596L172.56 31.4496L166.03 31.6196L168.84 34.4296L164.77 33.3396L155.78 35.5696L158.53 32.8196L146.44 34.2496L149.42 35.7996L132.92 37.5796L124.9 45.2496L130.97 49.1496L108.28 49.4896L110.92 56.7096L119.51 63.1296L106.73 57.3396L97.7396 55.5096L96.0796 58.9496L102.38 64.9096L92.1796 62.4996L92.0096 53.9596H89.5496L84.3896 61.6396L87.3696 74.5896L99.4596 76.0196L101.52 83.9796L97.5096 77.2796L88.9196 77.5096L89.9496 82.8996L81.4096 90.7996L74.2496 89.1996L84.2796 82.2696L85.7096 78.0796L82.3896 73.5596L83.9296 53.9596L79.9196 51.3296L77.7396 49.4396L74.1396 50.4696L68.6396 61.2396L64.0496 63.4696L63.6496 67.0796L66.1096 67.4796L71.7896 76.4796L69.5496 80.1496L52.9596 73.3896L51.9296 74.8196L50.7296 77.3996L57.1496 83.9396L47.5796 98.5896L41.3096 128.67V139.23L41.3796 147.72Z" fill="#B8CAF5" stroke="#6282D0" stroke-linecap="round" stroke-linejoin="round"/>
<path d="M161.34 3.59973L160.76 7.03973L150.91 9.09973L146.21 11.7397L141.28 10.8197L146.32 3.59973L155.61 0.969727L161.34 3.59973Z" fill="#B8CAF5" stroke="#6282D0" stroke-linecap="round" stroke-linejoin="round"/>
<path d="M153.08 9.55992L147.47 13.7999L162.71 17.4699L169.81 16.3199L169.36 10.1299L160.65 8.41992L153.08 9.55992Z" fill="#B8CAF5" stroke="#6282D0" stroke-linecap="round" stroke-linejoin="round"/>
<path d="M176 12.9395L167.41 22.8495L173.71 21.3595L187 19.5295L184.02 16.0895L180.47 14.9495L177.21 17.4695L178.75 14.2595L176 12.9395Z" fill="#B8CAF5" stroke="#6282D0" stroke-linecap="round" stroke-linejoin="round"/>
<path d="M299.41 46.7998L293.91 51.0398H306.74L305.26 48.9198L299.41 46.7998Z" fill="#B8CAF5" stroke="#6282D0" stroke-linecap="round" stroke-linejoin="round"/>
<path d="M287.27 34.6599L286 39.8099L293.11 43.9399L296.2 41.0699L307.32 42.0999L311.9 37.6299L300.33 33.1699L298.04 36.5999L291.5 33.1699L287.27 34.6599Z" fill="#B8CAF5" stroke="#6282D0" stroke-linecap="round" stroke-linejoin="round"/>
<path d="M315.569 36.7197L314.649 39.8097L323.019 42.9097L330.579 39.8097L315.569 36.7197Z" fill="#B8CAF5" stroke="#6282D0" stroke-linecap="round" stroke-linejoin="round"/>
<path d="M98.5399 235.81L96.9399 238.9L86.6299 239.48L91.2699 249.79L80.5499 267.26L75.6799 266.98L73.2799 271.45L77.7399 280.62L68.8799 283.65L73.2199 288L76.8299 286.29L74.7699 289.27H71.6699L77.3999 296.08L81.7599 293.62L82.7299 289.44L84.3899 296.37L83.4699 301.07L85.8199 314.7L93.1599 332.81L98.5399 344.61L104.04 340.03L102.04 339.22L105.76 336.07L107.71 325.25L106.85 315.85L123.64 299.29L128.45 295.74L127.7 293.33L132.52 290.21L134.46 292.36V286.34L131.6 279.3L132.75 273.8L136.53 274.6L144.38 279.3L140.94 285.37L145.87 285.83L145.35 293.62L153.94 273.11L160.82 266.75L156.98 261.13L142.6 268.01L142.43 270.7L135.9 271.68L133.49 266.46L131.26 272.48L117.1 268.98L107.88 263.54L109.48 257.41L103.3 252.83L101.92 248.59L104.9 247.84L103.24 240.34L99.9699 235.81H98.5399Z" fill="#B8CAF5" stroke="#6282D0" stroke-linecap="round" stroke-linejoin="round"/>
<path d="M109.48 257.409L107.88 263.539L117.1 268.979L131.26 272.479L133.49 266.459L124.72 266.689L116.02 259.589L112.41 256.779L109.48 257.409Z" fill="#B8CAF5" stroke="#6282D0" stroke-linecap="round" stroke-linejoin="round"/>
<path d="M134.439 268.509L135.899 271.679L142.429 270.699L142.599 268.009L137.209 265.319L134.439 268.509Z" fill="#B8CAF5" stroke="#6282D0" stroke-linecap="round" stroke-linejoin="round"/>
<path d="M132.75 273.8L131.6 279.3L134.46 286.34V292.36L141.34 290.21L145.35 293.62L145.87 285.83L140.94 285.37L144.38 279.3L136.53 274.6L132.75 273.8Z" fill="#B8CAF5" stroke="#6282D0" stroke-linecap="round" stroke-linejoin="round"/>
<path d="M128.62 175.939L146.04 168.779L160.59 173.419L163.8 171.129L162.14 166.199L166.09 162.529L175.94 165.859L177.26 169.869L182.71 171.809L190.55 170.899L196.8 175.709L210.84 174.109L215.25 170.899L218.06 172.619L221.84 172.669L218.63 182.429H224.89L227.41 181.359L232.38 187.629L225.04 188.009L217.79 193.739L210.76 195.719L207.25 194.729L205.41 197.939L207.17 200.459L201.75 205.119L184.18 209.699L172.11 204.739H157.06L153.93 197.559L146.74 194.429L140.86 193.739L140.94 186.119L128.62 175.939Z" fill="#B8CAF5" stroke="#6282D0" stroke-linecap="round" stroke-linejoin="round"/>
<path d="M265.49 205.22L263.24 203.29L257.74 210.47L253.77 208.86L245.67 216.27L249.95 219.86L247.12 225.06L251.63 226.59L258.81 223.23L254.99 219.48L262.86 212.84V209.7L265.49 205.22Z" fill="#B8CAF5" stroke="#6282D0" stroke-linecap="round" stroke-linejoin="round"/>
<path d="M251.63 226.589L258.81 223.229L262.02 229.49V236.82L252.47 241.249L251.17 239.649L252.85 233.839L251.17 230.859L253.31 228.039L251.63 226.589Z" fill="#B8CAF5" stroke="#6282D0" stroke-linecap="round" stroke-linejoin="round"/>
<path d="M251.93 244.31L254.61 243.55L253.77 245.84H251.93V244.31Z" fill="#B8CAF5" stroke="#6282D0" stroke-linecap="round" stroke-linejoin="round"/>
<path d="M145.35 293.619L153.94 273.109L160.82 266.749L162.79 265.319L165.23 268.909V275.549L161.79 278.459L161.72 283.709L164.7 281.589L166.68 286.249L168.13 286.939L169.51 292.509L172.79 292.359L169.05 297.099L162.33 300.839L161.72 306.569L165.38 311.919L163.7 318.179L166.53 323.679L168.29 330.169L164.93 337.889L164.31 324.059L162.94 322.079L159.5 308.549L158.36 312.069L154.54 314.969L150.56 313.749L152.4 306.719L148.27 300.229L147.74 298.009L145.35 293.619Z" fill="#B8CAF5" stroke="#6282D0" stroke-linecap="round" stroke-linejoin="round"/>
<path d="M164.93 337.89L168.29 330.17L166.53 323.68L163.7 318.18L165.38 311.92L161.72 306.57L162.33 300.84L169.05 297.1L171.8 300.38L172.79 309.47L180.81 304.58L184.18 309.17L187 316.8L185.93 320.17L178.98 320.47L176.61 325.59L177.99 329.49L171.8 326.89L169.66 321.01L169.28 329.03L166.84 338.27L169.13 340.56L170.96 348.28L176.15 351.41L172.41 353.62L168.36 350.49L164.47 343.62L163.24 345.53L164.93 337.89Z" fill="#B8CAF5" stroke="#6282D0" stroke-linecap="round" stroke-linejoin="round"/>
<path d="M172.41 353.62L176.15 351.41L179.97 356.07V365.16L183.87 370.89L178.14 368.22L171.72 362.03L172.41 353.62Z" fill="#B8CAF5" stroke="#6282D0" stroke-linecap="round" stroke-linejoin="round"/>
<path d="M172.79 292.36L169.05 297.1L171.8 300.38L172.79 309.47L180.81 304.58L184.18 309.17L187 316.8L185.93 320.17L188.09 322.72L193.22 318.46L193.51 316.39L188.46 308.57L182.59 301.6L184.88 297.74L182.19 294.88L179.21 295.08L175.6 288.72L172.79 292.36Z" fill="#B8CAF5" stroke="#6282D0" stroke-linecap="round" stroke-linejoin="round"/>
<path d="M175.6 288.72L179.21 295.08L182.19 294.88L184.88 297.74L182.59 301.6L188.46 308.57L193.51 316.39L193.22 318.46L192.45 323.3L193.02 328.25L187 331.63L183.87 335.62L185.05 343.12L198.95 331.72V320.03L192.96 310.78L187 303.02L190.61 296.28L194.14 293.13L190.12 290.44L190.04 287.09L185.17 285.43L180.18 288L175.6 288.72Z" fill="#B8CAF5" stroke="#6282D0" stroke-linecap="round" stroke-linejoin="round"/>
<path d="M177.989 329.49L176.609 325.59L178.979 320.47L185.929 320.17L188.089 322.72L193.219 318.46L192.449 323.3L193.019 328.25L186.999 331.63L183.869 335.62L178.749 334.93L177.989 329.49Z" fill="#B8CAF5" stroke="#6282D0" stroke-linecap="round" stroke-linejoin="round"/>
<path d="M194.14 293.129L190.12 290.439L190.04 287.089L185.17 285.429L180.18 287.999L175.6 288.719L172.79 292.359L169.51 292.509L168.13 286.939L166.68 286.249L164.7 281.589L161.72 283.709L161.79 278.459L165.23 275.549V268.909L162.79 265.319L160.82 266.749L156.98 261.129L142.6 268.009L137.21 265.319L134.44 268.509L133.49 266.459L124.72 266.689L112.41 256.779L109.48 257.409L103.3 252.829L101.92 248.589L104.9 247.839L103.24 240.339L99.9697 235.809H98.5397L90.8097 227.959L90.3797 223.319L86.6797 220.169L87.7097 215.779H94.0697L95.7897 213.409L107.02 207.849L108.74 202.939L106.49 194.729L114.13 193.819L115.96 184.719L124.17 185.219L123.67 179.609L127.72 178.839L128.62 175.939L140.94 186.119L140.86 193.739L146.74 194.429L153.93 197.559L157.06 204.739H172.11L184.18 209.699L201.75 205.119L207.17 200.459L205.41 197.939L207.25 194.729L210.76 195.719L217.79 193.739L225.04 188.009L232.38 187.629L227.41 181.359L224.89 182.429H218.63L221.84 172.669L225.73 174.339L230.43 171.809L232.61 165.049L234.61 162.929L234.1 159.839L232.15 159.959L237.25 156.459L243.78 155.939L251.34 158.979L256.16 172.099L260.45 174.109L267.21 182.299L277.58 180.009L278.56 182.529L273.46 195.079L268.99 193.699L266.75 195.759L267.9 201.719L265.49 205.219L263.24 203.289L257.74 210.469L253.77 208.859L245.67 216.269L237.13 221.889L235.36 219.939L239.6 214.379L236.1 212.549L231.23 218.219L225.22 220.629L227.85 225.609L228.71 228.939L234.67 226.189L240.34 228.419L240 230.429L233.35 233.859L229.69 238.499L233.52 241.249L238.97 253.289L234.96 257.119L238.57 257.749L237.08 266.579L230.77 276.829L221.09 286.859L212.56 288.059L208.72 290.979L202.07 292.869L202.24 296.369L204.13 299.059L202.13 302.669L198.69 305.189L195.31 303.589L196.86 299.809L201.1 297.739L199.66 295.969L199.43 292.819L194.14 293.129Z" fill="#B8CAF5" stroke="#6282D0" stroke-linecap="round" stroke-linejoin="round"/>
<path d="M237.31 276.95L233.52 280.96L232.84 288.06L234.78 291.21L236.9 286.06L238.22 279.12L237.31 276.95Z" fill="#B8CAF5" stroke="#6282D0" stroke-linecap="round" stroke-linejoin="round"/>
<path d="M266.18 242.569L263.03 245.609L264.86 253.569L266.18 254.599L268.07 252.709L269.85 246.349L266.18 242.569Z" fill="#B8CAF5" stroke="#6282D0" stroke-linecap="round" stroke-linejoin="round"/>
<path d="M266.439 240.68L272.999 235.52L280.389 235.01L281.709 235.47L285.259 229.85L291.619 227.9L294.939 219.02L295.859 212.44L299.869 210.95L301.989 220.57L298.439 229.74L296.659 237.42L287.839 240.68L285.089 238.39L282.109 244.18L279.239 240.17L277.639 243.55L272.309 247.5L271.799 242.86L267.669 241.94L266.439 240.68Z" fill="#B8CAF5" stroke="#6282D0" stroke-linecap="round" stroke-linejoin="round"/>
<path d="M295.06 210.2L299.01 208.94L296.32 205.85L304.4 207.45L308.12 204.01L313.79 202.75L311.33 198.74H306.34L300.73 193.47L299.81 203.29L296.43 202.18L294.03 206.42L295.52 208.71L295.06 210.2Z" fill="#B8CAF5" stroke="#6282D0" stroke-linecap="round" stroke-linejoin="round"/>
<path d="M301.53 190.659L303.48 187.859L306.34 190.429L303.31 182.699L305.89 175.599L309.95 177.139L305.48 163.049L305.74 154.739L303.91 151.069L301.19 156.919L300.67 162.819L302.62 166.199L301.36 169.469L302.51 172.789L301.02 178.579L302.39 181.669L301.19 187.229L301.53 190.659Z" fill="#B8CAF5" stroke="#6282D0" stroke-linecap="round" stroke-linejoin="round"/>
<path d="M234.27 303.989C234.44 303.989 239.37 304.329 239.37 304.329L240.63 310.859L237.02 316.299L237.45 321.109L241.2 320.189L247.22 322.709L242.41 323.859L236.68 322.369L231.47 316.409L234.28 303.979L234.27 303.989Z" fill="#B8CAF5" stroke="#6282D0" stroke-linecap="round" stroke-linejoin="round"/>
<path d="M233.07 323.87L236.22 324.16L237.71 326.79L236.45 329.43L233.07 323.87Z" fill="#B8CAF5" stroke="#6282D0" stroke-linecap="round" stroke-linejoin="round"/>
<path d="M240.51 325.359H247.22L250.02 330.519L249.45 339.219L246.7 330.169L244.75 327.039L240.51 325.359Z" fill="#B8CAF5" stroke="#6282D0" stroke-linecap="round" stroke-linejoin="round"/>
<path d="M238.22 329.43L242.23 331.2L238.91 335.62L238.22 329.43Z" fill="#B8CAF5" stroke="#6282D0" stroke-linecap="round" stroke-linejoin="round"/>
<path d="M241.32 327.04L242.23 329.77L243.29 328.83L245.27 330.63L244.09 328.14L241.32 327.04Z" fill="#B8CAF5" stroke="#6282D0" stroke-linecap="round" stroke-linejoin="round"/>
<path d="M239.34 326.05L238.22 328.25H240.8L239.34 326.05Z" fill="#B8CAF5" stroke="#6282D0" stroke-linecap="round" stroke-linejoin="round"/>
<path d="M233.98 321.09L236.25 323.27L233.47 323.01L233.98 321.09Z" fill="#B8CAF5" stroke="#6282D0" stroke-linecap="round" stroke-linejoin="round"/>
<path d="M242.72 333.069L241.46 334.179L240.94 337.309L239.51 337.449L240.51 339.339L242.46 341.119L242.72 339.479L242.23 337.219L243.52 334.039L242.72 333.069Z" fill="#B8CAF5" stroke="#6282D0" stroke-linecap="round" stroke-linejoin="round"/>
<path d="M244.7 332.64L244.32 335.62L242.89 338.51L245.41 335.79L244.7 332.64Z" fill="#B8CAF5" stroke="#6282D0" stroke-linecap="round" stroke-linejoin="round"/>
<path d="M246.389 336.88L244.439 338.51L247.129 338.65L246.389 336.88Z" fill="#B8CAF5" stroke="#6282D0" stroke-linecap="round" stroke-linejoin="round"/>
<path d="M230.629 331.399L232.889 334.989L228.909 337.759L223.839 343.979L223.149 343.319L228.369 336.879L229.939 335.039L230.229 331.829L230.629 331.399Z" fill="#B8CAF5" stroke="#6282D0" stroke-linecap="round" stroke-linejoin="round"/>
<path d="M237.96 349.169L239.2 349.479L240.89 346.209L241.97 347.559L243.52 345.699L245.27 346.729L244.67 348.329L245.64 351.969L250.02 354.379L250.31 352.199L248.79 349.539L250.57 347.449L252 351.709L253.61 347.529L252.52 344.209L251.29 337.939L249.65 340.569L247.59 341.369L244.95 343.749L243.81 342.379L241.69 342.949L241.52 344.149L238.91 344.749L237.96 349.169Z" fill="#B8CAF5" stroke="#6282D0" stroke-linecap="round" stroke-linejoin="round"/>
<path d="M153.31 353.489L161.72 355.269L169.7 365.919L178.29 370.889L180.24 376.119V379.099H182.62L186.31 384.719L187.8 393.769L187 398.919L175.6 390.329L167.41 373.599L165.57 367.869L161.72 365.689L154.23 357.899L153.31 353.489Z" fill="#B8CAF5" stroke="#6282D0" stroke-linecap="round" stroke-linejoin="round"/>
<path d="M185.859 380.25L188.839 386.89L190.439 386.43V384.26L186.999 380.25H185.859Z" fill="#B8CAF5" stroke="#6282D0" stroke-linecap="round" stroke-linejoin="round"/>
<path d="M193.42 384.83V387.35H195.02V385.75L193.42 384.83Z" fill="#B8CAF5" stroke="#6282D0" stroke-linecap="round" stroke-linejoin="round"/>
<path d="M198.949 367.76L202.359 372.11L215.759 369.93L219.999 358.59L224.469 359.28L226.189 361.15L224.699 364.43L229.629 372.11L225.269 373.14L225.039 378.07L221.489 382.19L221.029 387.35L214.289 392.16L211.749 388.38L201.439 387.35L200.289 380.25L196.859 376.81L198.949 367.76Z" fill="#B8CAF5" stroke="#6282D0" stroke-linecap="round" stroke-linejoin="round"/>
<path d="M235.7 370.05L231.35 372.57L228.14 389.07H231.12L230.43 396.52L233.87 395.83V390.9L234.44 385.52L236.62 392.16L237.96 395.49L241.52 389.41L236.62 383.28L242.89 378.3L240.51 377.27L234.78 380.25L231.92 377.38L233.52 373.6L246.47 373.94L248.88 369.02H247.13L244.15 372L235.7 370.05Z" fill="#B8CAF5" stroke="#6282D0" stroke-linecap="round" stroke-linejoin="round"/>
<path d="M258.73 365.12L255.64 369.02L256.67 375.38L254.38 376.81L255.64 378.64L258.27 377.95L257.7 373.83L260.22 374.29L258.39 371.88L259.65 369.02H258.5L260.22 365.81L258.73 365.12Z" fill="#B8CAF5" stroke="#6282D0" stroke-linecap="round" stroke-linejoin="round"/>
<path d="M228.14 411.529L231.81 410.729L235.7 413.249L234.44 415.199L228.14 411.529Z" fill="#B8CAF5" stroke="#6282D0" stroke-linecap="round" stroke-linejoin="round"/>
<path d="M251.859 386.89L250.939 388.27L254.259 389.64L255.639 388.27L251.859 386.89Z" fill="#B8CAF5" stroke="#6282D0" stroke-linecap="round" stroke-linejoin="round"/>
<path d="M257.3 386.89L259.31 388.73L267.44 389.64L265.84 386.09H260.22L257.3 386.89Z" fill="#B8CAF5" stroke="#6282D0" stroke-linecap="round" stroke-linejoin="round"/>
<circle cx="183" cy="128" r="6" fill="#39A0FF"/>
<path d="M174.2 105.016H171.662V113.404H169.808V97.132H171.662V103.486H174.2V105.016ZM163.4 98.32C164.012 98.32 164.57 98.458 165.074 98.734C165.59 98.998 166.028 99.382 166.388 99.886C166.76 100.378 167.048 100.978 167.252 101.686C167.468 102.394 167.576 103.186 167.576 104.062C167.576 104.938 167.468 105.73 167.252 106.438C167.048 107.146 166.76 107.746 166.388 108.238C166.028 108.73 165.59 109.114 165.074 109.39C164.57 109.654 164.012 109.786 163.4 109.786C162.788 109.786 162.224 109.654 161.708 109.39C161.204 109.114 160.766 108.73 160.394 108.238C160.034 107.746 159.746 107.146 159.53 106.438C159.326 105.73 159.224 104.938 159.224 104.062C159.224 103.186 159.326 102.394 159.53 101.686C159.746 100.978 160.034 100.378 160.394 99.886C160.766 99.382 161.204 98.998 161.708 98.734C162.224 98.458 162.788 98.32 163.4 98.32ZM163.4 108.13C164.12 108.13 164.696 107.77 165.128 107.05C165.572 106.33 165.794 105.334 165.794 104.062C165.794 102.79 165.572 101.794 165.128 101.074C164.696 100.354 164.12 99.994 163.4 99.994C162.68 99.994 162.098 100.354 161.654 101.074C161.222 101.794 161.006 102.79 161.006 104.062C161.006 105.334 161.222 106.33 161.654 107.05C162.098 107.77 162.68 108.13 163.4 108.13ZM189.013 97.114V113.422H187.141V97.114H189.013ZM181.633 101.146C181.633 101.902 181.729 102.646 181.921 103.378C182.125 104.098 182.407 104.776 182.767 105.412C183.139 106.036 183.583 106.6 184.099 107.104C184.627 107.596 185.209 107.986 185.845 108.274L184.765 109.75C183.829 109.306 183.013 108.664 182.317 107.824C181.633 106.984 181.105 106 180.733 104.872C180.361 106.072 179.821 107.128 179.113 108.04C178.417 108.94 177.577 109.63 176.593 110.11L175.495 108.562C176.143 108.274 176.731 107.872 177.259 107.356C177.787 106.84 178.237 106.252 178.609 105.592C178.981 104.932 179.269 104.224 179.473 103.468C179.677 102.7 179.779 101.926 179.779 101.146V98.482H181.633V101.146ZM207.317 105.016H204.779V113.404H202.925V97.132H204.779V103.486H207.317V105.016ZM196.517 98.32C197.129 98.32 197.687 98.458 198.191 98.734C198.707 98.998 199.145 99.382 199.505 99.886C199.877 100.378 200.165 100.978 200.369 101.686C200.585 102.394 200.693 103.186 200.693 104.062C200.693 104.938 200.585 105.73 200.369 106.438C200.165 107.146 199.877 107.746 199.505 108.238C199.145 108.73 198.707 109.114 198.191 109.39C197.687 109.654 197.129 109.786 196.517 109.786C195.905 109.786 195.341 109.654 194.825 109.39C194.321 109.114 193.883 108.73 193.511 108.238C193.151 107.746 192.863 107.146 192.647 106.438C192.443 105.73 192.341 104.938 192.341 104.062C192.341 103.186 192.443 102.394 192.647 101.686C192.863 100.978 193.151 100.378 193.511 99.886C193.883 99.382 194.321 98.998 194.825 98.734C195.341 98.458 195.905 98.32 196.517 98.32ZM196.517 108.13C197.237 108.13 197.813 107.77 198.245 107.05C198.689 106.33 198.911 105.334 198.911 104.062C198.911 102.79 198.689 101.794 198.245 101.074C197.813 100.354 197.237 99.994 196.517 99.994C195.797 99.994 195.215 100.354 194.771 101.074C194.339 101.794 194.123 102.79 194.123 104.062C194.123 105.334 194.339 106.33 194.771 107.05C195.215 107.77 195.797 108.13 196.517 108.13Z" fill="#131547"/>
</svg>
