<svg width="500" height="589" viewBox="0 0 500 589" fill="none" xmlns="http://www.w3.org/2000/svg">
<path d="M310.519 52.99C311.379 53.41 321.349 61.46 321.349 61.46L338.879 57.23L351.599 63.79L355.209 70.77L358.649 93.41H372.229V101.03L362.949 97.86L362.779 101.03L374.639 104.63L373.609 112.04H367.079L364.499 127.35L373.269 146.33L383.409 165.38L391.829 166.86L397.159 171.52L404.549 148.66L407.299 136.17L423.459 130.24L434.799 115.43L453.189 113.31L464.879 101.88L454.049 95.32L466.939 99.55L455.079 83.25L464.529 88.12L458.859 79.44L466.079 80.92L470.719 75.42L463.499 74.79L474.389 72.89L475.539 68.87L468.149 69.29L466.779 64.63L472.279 66.53L470.899 58.28L465.059 58.49L462.309 52.99L466.609 55.53L468.499 52.99L474.399 54.68L475.549 61.24L476.929 52.99L472.459 49.39H469.539L474.409 47.7L471.949 45.58L465.589 47.91L467.999 40.5L474.419 34.36L472.639 32.03H480.199L481.919 27.8H472.809L484.329 25.68L477.629 23.99H487.599L498.599 17.85L483.299 13.62L475.219 18.91L467.829 18.28L457.459 25.26L468.349 15.1L465.079 13.62L447.199 20.39L457.459 13.62H445.659L430.019 17.22L439.819 11.93H463.019L468.349 5.37H455.799L448.239 0.5H424.689L389.799 4.52L403.209 7.06L408.019 8.33L392.039 6.64L398.229 12.78L387.059 7.7L384.829 8.76L396.349 15.32L387.579 13.2L376.579 8.76L371.249 9.61L379.329 14.9L372.449 14.69L368.149 10.46L365.229 17.23L364.539 11.73L360.069 11.1L347.009 13.22L356.639 18.09L349.939 16.61L344.779 14.07L340.479 15.76L342.199 20.63L335.499 18.73L321.409 27.83L330.349 28.46L330.519 34.39L319.179 38.41L306.289 40.95L304.739 44.97L313.329 48.57L325.879 47.09L327.429 49.63L319.179 49.21L310.589 53.02L310.519 52.99Z" fill="#B8CAF5" stroke="#6282D0" stroke-linecap="round" stroke-linejoin="round"/>
<path d="M252.43 47.3099H267.1L276.72 48.9899L284.51 50.4199L288.87 46.1199L281.99 42.7799L288.87 40.8599L297.58 36.0899L291.62 29.3999L304.68 28.4399L318.43 20.7999L332.87 15.0699L326.22 13.6399L338.37 12.1999L342.72 8.61992L328.74 4.55992L320.03 7.18992L325.31 4.55992L303.53 2.16992L278.55 4.55992L272.83 8.61992L281.76 11.7299L269.62 9.57992L265.03 6.46992L247.16 12.4399L251.74 21.7599L265.49 18.6499L263.89 21.2799L280.62 19.8499L292.08 15.5499L292.99 19.0099L274.2 22.5899L279.13 27.4899L262.28 24.0299L261.48 26.2999L270.19 31.0699L275.92 32.1499L268.24 31.5499L276.15 34.7699L264 32.0299L259.07 36.3299L264 37.8799L266.98 35.9699L264.35 38.9499L267.55 42.0599L264.23 41.5799L262.86 39.5499L258.62 39.0699L256.1 39.9099L259.99 43.6099L253.57 45.0399L252.43 47.3099Z" fill="#B8CAF5" stroke="#6282D0" stroke-linecap="round" stroke-linejoin="round"/>
<path d="M266.18 53.0497L277.98 51.7297L284.28 55.9097L281.3 60.3297L255.64 61.7597V58.8997L252.54 60.4497L244.87 60.0897L243.03 56.1497V51.0197L234.67 48.8697L227.79 45.3997L230.43 43.9697L241.31 45.8797V47.5497L247.73 46.5997L253.57 49.5797L250.25 51.1397L256.04 54.1197L263.43 54.5997L266.18 53.0497Z" fill="#B8CAF5" stroke="#6282D0" stroke-linecap="round" stroke-linejoin="round"/>
<path d="M246.359 40.5098V43.9698L252.309 43.3698V42.2398L249.339 40.5098H246.359Z" fill="#B8CAF5" stroke="#6282D0" stroke-linecap="round" stroke-linejoin="round"/>
<path d="M238.109 15.4297L244.869 17.3397L250.139 22.1197H253.919L258.389 25.2197L266.179 29.8797L259.419 31.6697L257.359 35.2497L253.459 37.6397L241.309 35.7297L241.889 34.0597L238.109 33.9397L237.419 31.3097L245.669 30.5897L242.919 28.7997L237.419 30.3597L235.699 28.5597L231.569 27.7297L228.819 22.7097L233.059 24.3797L235.469 23.9097L230.659 22.4697L234.099 20.3197L237.419 21.0397L233.409 19.0097L236.039 17.9397L240.739 17.6997L237.299 16.1397L238.109 15.4297Z" fill="#B8CAF5" stroke="#6282D0" stroke-linecap="round" stroke-linejoin="round"/>
<path d="M225.16 32.7402L225.84 37.6402L228.37 40.5102L235.58 38.2402V35.2502L225.16 32.7402Z" fill="#B8CAF5" stroke="#6282D0" stroke-linecap="round" stroke-linejoin="round"/>
<path d="M231.92 40.5101L235.58 38.8301L240.63 39.6701L240.17 41.7001H231.35L231.92 40.5101Z" fill="#B8CAF5" stroke="#6282D0" stroke-linecap="round" stroke-linejoin="round"/>
<path d="M219.31 23.79L218.17 26.3L223.32 27.61V24.62L221.95 23.79H219.31Z" fill="#B8CAF5" stroke="#6282D0" stroke-linecap="round" stroke-linejoin="round"/>
<path d="M201.67 29.64V31.91L207.17 34.06L203.39 35.01L206.14 37.16L210.6 35.73L216.68 38.83L221.61 39.55L222.52 37.64L220.12 34.06L214.39 32.74L215.99 32.03L212.9 31.19L210.95 32.03L209.23 29.04L201.67 29.64Z" fill="#B8CAF5" stroke="#6282D0" stroke-linecap="round" stroke-linejoin="round"/>
<path d="M235.99 53.4004L231.35 55.2004L229.63 57.7004L234.9 59.9704H240.63L239.37 56.1504L235.99 53.4004Z" fill="#B8CAF5" stroke="#6282D0" stroke-linecap="round" stroke-linejoin="round"/>
<path d="M214.73 47.9103L218.97 47.0703L222.52 48.3903V47.0703L225.62 48.3903L227.79 54.8403L225.16 57.5803L217.25 56.6903L219.43 53.4003L211.06 54.1203L208.2 51.3703L204.42 48.1503L206.14 47.0703L211.52 50.4203L214.16 52.3303L214.73 50.4203L212.09 48.8703L213.93 47.7903L219.66 51.2503L217.37 48.6303L214.73 47.9103Z" fill="#B8CAF5" stroke="#6282D0" stroke-linecap="round" stroke-linejoin="round"/>
<path d="M210.87 39.5504L212.63 40.8604L216.11 40.5104L214.08 39.1904L210.87 39.5504Z" fill="#B8CAF5" stroke="#6282D0" stroke-linecap="round" stroke-linejoin="round"/>
<path d="M200.18 39.5498L201.67 43.4098L207.05 44.5298L204.42 41.6998L200.18 39.5498Z" fill="#B8CAF5" stroke="#6282D0" stroke-linecap="round" stroke-linejoin="round"/>
<path d="M266.41 64.9102H259.23L252.81 69.4501L250.37 77.9702L252.2 81.1502L259.38 81.6301L258.85 82.8202L252.43 82.1102L254.19 85.3702L261.6 86.0102L263.89 88.2402L272.9 89.1902L275.5 90.8602L277.1 88.3202L280.92 90.3902L280.24 88.3902L284.28 90.2302L286.19 87.5201L284.28 85.1301L287.8 85.7701L290.24 88.3902L293.15 90.2302L295.82 92.2202L292.53 93.9702L293.22 96.4402L297.73 94.2102L300.55 96.4402L303.92 98.1902L306.9 104.16L304.07 106.95L299.94 109.97L303.61 115.23L291.24 114.51L287.87 117.77L291.31 121.28L303.15 119.13L308.5 124.94L307.12 126.69L317.13 132.26L326.76 134.33L320.95 128.28L315.6 122.31L329.51 130.19L330.12 126.69L332.18 123.51L319.58 112.2L323.62 111.96L321.1 108.86L324.31 108.06L330.96 115.86L333.48 117.37L337.45 112.28L340.05 107.82V105.59L330.35 100.34L325.53 100.18L318.97 96.5201L319.96 93.3302L324.01 93.1702L321.1 89.5102L322.71 88.0802L319.27 85.9302L317.44 89.9102L319.19 84.8102L314.08 82.5802L313.31 84.9702L311.17 84.3302L312.01 82.5802L311.17 80.6702L308.65 83.3801L309.49 79.5602L305.6 78.2001L303.31 80.5901L301.32 78.6002L297.04 78.9202L300.71 76.6902L300.02 75.0201L297.8 74.5402L296.89 72.8702H294.06L291.69 71.5201L287.26 72.8702L287.72 75.1802L286.12 74.4602L284.28 73.9802L280.62 75.1002L279.47 73.5102L281.3 71.7602L280.16 70.0802L277.87 68.0102L277.18 65.3902L269.85 66.1002L265.34 68.4102L264.04 72.8702L268.62 75.9802L264.73 74.9402L264.57 76.5302L267.86 78.6802L267.1 81.4702L265.87 79.4002L263.35 78.5201L262.21 74.9402L261.21 70.9602L267.02 65.4702L266.41 64.9102Z" fill="#B8CAF5" stroke="#6282D0" stroke-linecap="round" stroke-linejoin="round"/>
<path d="M279.93 65.2305L280.69 69.0505L282.83 71.2005H295.21L291.08 66.9005L286.42 65.8605L283.52 66.3405L279.93 65.2305Z" fill="#B8CAF5" stroke="#6282D0" stroke-linecap="round" stroke-linejoin="round"/>
<path d="M292.759 97.2305L290.239 102.01L291.499 104.8L298.419 102.88L297.879 98.9805L295.209 98.1105L292.759 97.2305Z" fill="#B8CAF5" stroke="#6282D0" stroke-linecap="round" stroke-linejoin="round"/>
<path d="M286.58 91.6602L284.97 93.4902L283.6 94.9202L286.58 94.5302L287.57 92.2202L286.58 91.6602Z" fill="#B8CAF5" stroke="#6282D0" stroke-linecap="round" stroke-linejoin="round"/>
<path d="M293.07 126.05L292.69 124.46L290.24 123.87L289.71 123.74L293.07 126.05Z" fill="#B8CAF5" stroke="#6282D0" stroke-linecap="round" stroke-linejoin="round"/>
<path d="M288.099 124.9L286.729 126.05L289.33 128.28L290.24 126.05L289.02 125.26L288.099 124.9Z" fill="#B8CAF5" stroke="#6282D0" stroke-linecap="round" stroke-linejoin="round"/>
<path d="M284.359 132.42L282.76 136L281.229 134.21L282.789 130.27L284.359 132.42Z" fill="#B8CAF5" stroke="#6282D0" stroke-linecap="round" stroke-linejoin="round"/>
<path d="M276.11 128.28H271.53L269.08 132.18L271.14 132.82L276.11 129.72V128.28Z" fill="#B8CAF5" stroke="#6282D0" stroke-linecap="round" stroke-linejoin="round"/>
<path d="M300.33 99.6201L299.87 101.01L303.69 101.77L303.15 100.26L300.33 99.6201Z" fill="#B8CAF5" stroke="#6282D0" stroke-linecap="round" stroke-linejoin="round"/>
<path d="M205.37 54.3203L203.92 55.8303V57.5803L207.82 57.9003L208.5 56.1103L205.37 54.3203Z" fill="#B8CAF5" stroke="#6282D0" stroke-linecap="round" stroke-linejoin="round"/>
<path d="M176.88 36.0098L184.59 34.2998L186.66 33.2998L190.32 34.6498L189.64 36.6298L182.84 35.9298L178.48 36.6298L176.88 36.0098Z" fill="#B8CAF5" stroke="#6282D0" stroke-linecap="round" stroke-linejoin="round"/>
<path d="M176.88 39.1897L177.49 41.2597L179.09 42.0397H187.42V40.0297L185.36 40.5097L188.34 38.5597L188.72 37.6797L181.39 38.3997L176.88 39.1897Z" fill="#B8CAF5" stroke="#6282D0" stroke-linecap="round" stroke-linejoin="round"/>
<path d="M173.749 37.2803L175.119 39.1903H175.959L175.349 40.0303H173.139L171.449 38.6603L173.749 37.2803Z" fill="#B8CAF5" stroke="#6282D0" stroke-linecap="round" stroke-linejoin="round"/>
<path d="M186.049 49.7801L190.319 46.1201H192.309L193.679 50.9001V52.8701L196.429 52.3301L197.959 52.8701V50.9001L200.789 51.5301L202.469 54.8801L200.179 56.6901L195.209 58.4601L194.679 57.5801L193.299 58.4601L187.419 58.9401L175.959 62.2001L172.299 60.6901L181.309 58.8601L182.299 57.5801L177.179 57.1901L175.269 55.5901L176.499 54.8801L174.359 54.3201V57.1101L170.999 57.9001L166.179 56.6901L164.199 55.2801L171.449 54.3201L171.989 53.4001L165.419 54.3201L165.729 52.8701L172.069 52.3301L166.869 51.9301V50.5801L171.989 50.0201L168.929 49.0701L170.539 47.8701L175.429 48.9101L176.419 49.8601L182.799 49.7001L184.669 50.5801L186.049 49.7801Z" fill="#B8CAF5" stroke="#6282D0" stroke-linecap="round" stroke-linejoin="round"/>
<path d="M173.71 45.5596L171.91 46.1196L174.51 47.0696H175.96L176.88 46.1196L175.58 45.5596H173.71Z" fill="#B8CAF5" stroke="#6282D0" stroke-linecap="round" stroke-linejoin="round"/>
<path d="M164.2 50.6602L161.52 54.8802L158.09 54.1602L159.54 52.3302L164.2 50.6602Z" fill="#B8CAF5" stroke="#6282D0" stroke-linecap="round" stroke-linejoin="round"/>
<path d="M148 52.3298L151.59 51.1398L153.81 52.3298L153.28 49.6198L155.34 52.7598L158.09 51.9198L157.1 50.2498C157.1 50.2498 158.32 49.6898 158.4 49.6098C158.48 49.5298 159.24 51.1798 159.24 51.1798L160.77 48.7298L160.16 47.0598L163.14 46.0998L162.07 48.8098L165.2 49.4298L165.81 47.5398L169.55 47.0598L168.1 45.5498H169.55L167.49 44.1198L170.01 42.8498L167.87 41.3398L165.5 42.8498L162.83 42.4498L158.09 42.5298L156.26 45.0798L152.59 46.3098L151.44 48.9798L147.54 49.2198L146.62 51.1298L147.92 50.9698L148 52.3198V52.3298Z" fill="#B8CAF5" stroke="#6282D0" stroke-linecap="round" stroke-linejoin="round"/>
<path d="M196.85 67.3198L198.17 65.9398L203.16 65.5898L205.16 67.3198L202.47 71.3198L200.64 68.6898L196.85 67.3198Z" fill="#B8CAF5" stroke="#6282D0" stroke-linecap="round" stroke-linejoin="round"/>
<path d="M210.26 71.9704L211.35 69.5904L216.11 72.2704L218.4 70.9304L217.59 68.8104L214.33 67.2004L216.11 66.5404L215.59 65.2904L218.74 64.9104L222.06 63.9704L226.7 62.9004L225.96 64.3304L228.82 64.9104L229.63 66.2404L226.99 67.3204L228.25 67.5904L227.79 68.6904L225.9 68.0904L224.53 71.3204L226.65 70.0004L227.79 71.0204L228.42 69.2304L229.63 68.8104L230.26 70.9004L231.12 73.4104L230.2 74.7204L230.37 77.2304L225.21 78.3004V79.8604L223.04 80.6304L221.38 80.3904L219.83 77.1704L217.14 74.8404L214.33 75.0804L210.26 71.9704Z" fill="#B8CAF5" stroke="#6282D0" stroke-linecap="round" stroke-linejoin="round"/>
<path d="M361.74 86.5996L360.71 91.6596L364.72 93.2896L370.34 90.7796L367.59 88.3896L361.74 86.5996Z" fill="#B8CAF5" stroke="#6282D0" stroke-linecap="round" stroke-linejoin="round"/>
<path d="M264.46 111.2L262.51 119.21L259.3 123.74H263.66L263.89 127.57L270.53 123.74L272.02 120.76L274.89 124.34L279.93 124.9L282.79 122.91L276.11 118.01L271.05 117.3L267.33 113.83L267.1 111.68L265.84 111.2H264.46Z" fill="#B8CAF5" stroke="#6282D0" stroke-linecap="round" stroke-linejoin="round"/>
<path d="M137.27 76.2096L144.03 64.9096L141.28 61.7596L150.789 60.8096L158.09 62.8996L162.59 62.1996L171.45 66.7796L160.299 71.3196L156.979 74.5396L154.359 74.2996L154.919 79.4396L150.56 80.6296L146.63 82.2996L144.26 78.4796L137.27 76.2096Z" fill="#B8CAF5" stroke="#6282D0" stroke-linecap="round" stroke-linejoin="round"/>
<path d="M174.4 66.6602L161.14 72.3902L159.84 74.7802H161.68L159.16 76.5702L160.19 79.0802H170L161.91 80.6301L161.14 83.3801L165.92 85.2902H181.04V86.3602H167.52L164.89 88.3902L167.41 91.9802L176.11 93.0502L176.88 97.1102L193.3 95.4402L198.8 91.3801L201.01 93.0502L207.05 94.9602L213.58 93.5302L212.44 91.0201L209.34 91.2602L212.32 88.8702L215.3 90.1902L216.11 86.7202L209.57 84.3302L204.42 81.8902L206.21 79.4402L201.67 71.5602L206.21 66.6602L202.47 64.9102L196.85 66.0602V67.3202L200.64 68.6902L195.82 68.4501L193.88 67.8502L195.37 78.3602H193.76L191.93 71.7701L186.2 68.4501L186.54 72.3902L181.04 73.5901L184.25 71.5602L178.29 69.1702L175.89 71.7701L173.59 72.6301L175.2 68.4501L174.4 66.6602Z" fill="#B8CAF5" stroke="#6282D0" stroke-linecap="round" stroke-linejoin="round"/>
<path d="M234.38 63.9096L242.8 62.8896L250.36 63.9096L244.34 71.7597L238.21 71.3096L239.59 73.3396L237.58 76.2696L239.64 78.7796L241.42 82.9596L245.37 86.2997L243.14 88.8096L244.29 91.0797L249.33 91.6597V98.3096L253.23 92.0996L257.93 97.2396L256.04 99.3297L259.31 104.8L261.49 101.6L260.29 99.1497L263.1 100.22L264.53 95.6197L266.82 94.9196L265.27 93.2896L264.98 89.2297L268.36 88.9896L275.46 91.6597L277.75 93.7696L276.89 97.1096L274.37 97.2297L276.26 101.01L278.78 103.02L277.86 106.42L272.36 109.29L269.38 107.56L270.41 110.25L265.25 109.59L264.91 108.34L260.96 108.76L263.82 110.25L260.44 113.89L256.83 114.85L252.02 111.8L248.18 111.74L251.67 112.7L253.85 115.15L260.78 115.81L257.51 120.35L256.56 122.2L253.49 122.74L250.85 121.9L250.33 124.41H248.32L240.13 122.38L241.39 123.22L243.17 124.91L244.55 123.76L245.75 124.42L248.16 126.07L248.79 129.08H243.52L243.29 130.29L238.71 135.7L235.9 141.55L235.96 150.57L240.43 150.99L243.01 159.59L248.17 158.04L255.5 161.2L258.71 164.48L266.22 168.3L275.1 169.32C275.1 169.32 275.56 180.25 275.67 180.43C275.78 180.61 281.97 188.61 281.97 188.61L285.69 185.33L283.17 170.28L293.48 161.86L287.52 150.87L290.5 144.54L288.46 139.4L289.68 135.16L287.69 130.56L290.55 130.02L301.61 130.56L309.8 137.49L315.59 137.97L315.36 149.61L322.35 153.43L330.54 141.43L340.45 158.03L340.91 163.64L347.96 169.43L353.46 171.94V174.21L357.18 176.36L358.44 181.79L359.13 184.84L354.83 187.29L349.1 188.6L347.09 191.94L325.83 193.01L321.93 195.7L311.67 206.93L310.24 209.74L315.8 203.59L325.31 198.34L331.78 198.7L331.04 202.94L326.91 203.9L323.64 203.12L327.82 204.67L327.42 205.8L329.88 204.49L330.17 206.88L328.34 209.33L330.8 209.39L332.23 208.73L333.32 210.94L335.67 211.3H338.76L337.79 213.51L335.27 213.09L333.78 211.78L331.26 210.88L330.11 211L332.06 212.43L333.03 213.5L336.87 214.93L339.62 214.15L343.06 208.36L346.15 212.96L341.11 216.66L332.63 221.26L326.5 226.16L324.84 221.44L331.43 216.78L329.2 216L323.07 217.73L319.98 207.46L314.59 208.53L309.78 217.43L297.52 218.39L283.48 223.88L285.89 228.06L272.48 232.24L273.74 229.91L274.43 227.76L278.61 219.58L277.46 217.19L281.24 220.59L282.44 219.1L279.29 214.08L277.06 213.9L276.77 215.33L275.51 215.03L272.99 214.37L274.08 213.24L276.09 213.48L276.61 212.82L268.93 211.8L267.61 208.93L265.66 204.51L262.85 203.73L261.88 201.04L257.24 199.61L252.31 203.85L246.47 203.25L236.5 200.44L234.95 197.34L234.32 197.64V199.43L147.12 199.31L145.52 197.7L141.51 195.55L139.39 193.58L140.71 196.98L145.06 199.49L145.75 202.54L140.14 200.81L134.75 195.62L129.48 191.08L136.47 191.68L131.66 188.93L133.32 185.41L130.34 185.77L131.03 183.14L128.91 183.38L128.28 179.74L127.08 181.95L125.3 178.49L123.81 179.56L122.66 176.34L124.44 174.85L123.7 172.4L124.73 168.1L124.33 164.94L119.17 161.48L111.21 149.18L107.49 145.18L104.68 146.37L100.9 149.48L99.98 147.57L96.0301 142.26H89.79V90.0097L96.3801 90.0696L105.6 94.9097L106.52 91.9797L110.93 90.6096V92.4596L115.28 91.4397L116.37 89.5896L126 86.5996L125.48 87.9097L120.32 92.0296L124.9 89.8196L127.65 88.8596L128.05 90.3496L131.95 86.8896L130.17 84.8596L132.58 86.1696L136.93 91.1296L141.86 87.1296L143.98 92.0296L147.53 89.3997L155.09 90.6497L167.24 94.8297L170.39 94.3496L175.49 98.2297L169.99 99.9596L181.68 101.03L187.58 100.25L194.17 105.86L193.94 101.08L199.33 97.6197L193.72 99.0497L191.6 98.3297L194.24 95.5196L200.6 94.3297L204.09 98.5097L210.85 101.32L221.28 100.96L225.29 101.26L225.58 97.0797L222.37 94.6897L219.05 94.8096L224.89 88.5396L231.08 91.6996L233.14 94.6897L229.7 97.0797L231.36 101.56L234 99.5896L238.13 97.7997L239.45 94.5797L236.53 97.0896L235.67 94.5797L237.73 92.1897L236.07 90.3997L232.06 89.2696L229.25 83.5396L234.52 76.9097L234.41 72.6096L232.52 69.8596L232.75 65.1396L235.1 65.9196L234.36 63.8896L234.38 63.9096Z" fill="#B8CAF5" stroke="#6282D0" stroke-linecap="round" stroke-linejoin="round"/>
<path d="M114.85 173.98H118.21L120.43 180.59L122.11 183.93L117.37 180.59L114.85 177.01V173.98Z" fill="#B8CAF5" stroke="#6282D0" stroke-linecap="round" stroke-linejoin="round"/>
<path d="M121.42 170.48L122.98 171.71L123.75 172.41L124.78 168.11L124.38 164.94L119.22 161.48L111.26 149.18L107.53 145.18L104.73 146.37L100.95 149.48L100.03 147.57L96.0797 142.25H89.8297V90.0104L85.8197 88.9104L83.4497 87.1204L76.3897 87.8804L62.5597 85.4104L54.5797 85.0104L53.9697 83.1804L48.5397 82.9804L46.4397 81.5504L42.7397 83.8604L44.1097 81.2704L40.7497 80.1904L35.4797 83.7004L31.9697 83.1804L22.0697 87.6804L18.5197 93.3704L10.6097 94.7604L9.19971 97.8704L17.6397 102.49L18.4097 105.27L24.9797 105.59L29.2197 107.86L26.9597 109.37L22.8697 111.56L17.4897 110.97L18.8597 107.74L12.9797 109.13L5.07971 112.92L10.3097 114.79L8.6297 117.14L22.4497 119.84L27.9197 117.73L27.9497 125.22L15.8097 127.09L10.4197 137.36L16.1497 139.51L13.6297 142.97L20.1597 145.96L24.5197 143.09L23.2597 150.97L31.3897 149.66L38.9597 150.73L37.3497 156.47L27.4997 164.83L13.9797 171.51L0.679688 181.07L11.3397 175.69L19.5897 171.75L32.1897 166.62L50.4097 150.14L48.3497 147.57L59.5797 137.24L61.8697 137.96L57.0597 142.13L56.8297 148.58L66.5697 143.09L69.0897 144.28L74.2497 140.7L82.7297 144.64L94.2997 146.43L102.66 151.57L105.64 152.41L103.47 155.03L107.25 154.55L106.33 157.78L108.28 158.02L107.94 161L110.23 163.27L109.54 160.17L112.29 159.57L113.89 156.11L114.85 156.82L113.21 160.05L111.37 161.6L112.63 163.99L111.72 166.38L114.35 167.93L114.01 164.71L115.5 169.01L115.73 171.63L118.48 171.15L117.56 167.81L119.51 166.74L118.94 169.24L119.85 170.92L120.65 170.68L120.43 167.57L122.11 169.12L121.42 170.48Z" fill="#B8CAF5" stroke="#6282D0" stroke-linecap="round" stroke-linejoin="round"/>
<path d="M8.58923 141.34L6.44922 141.98L7.51923 144.52H11.5692L11.9492 142.37L8.58923 141.34Z" fill="#B8CAF5" stroke="#6282D0" stroke-linecap="round" stroke-linejoin="round"/>
<path d="M54.4199 151.05C54.1899 151.13 49.84 154.95 49.84 154.95L46.1699 158.13L47.1599 161.63L50.2899 160.36L53.1199 157.02V154.07L56.71 152.96L54.4199 151.05Z" fill="#B8CAF5" stroke="#6282D0" stroke-linecap="round" stroke-linejoin="round"/>
<path d="M331.029 195.64L334.399 199.14H340.509L337.759 196.51L333.399 194.84H331.029V195.64Z" fill="#B8CAF5" stroke="#6282D0" stroke-linecap="round" stroke-linejoin="round"/>
<path d="M356.24 187.67L348.14 200.65L350.43 202L346.92 204.63L348.3 207.1L357.93 204.95C357.93 204.95 359.08 206.7 359.92 206.46C360.76 206.22 360.45 207.1 360.45 207.1L358.08 208.37L357.93 209.56H360.51L361.37 205.66L362.67 207.09L363.97 205.42V208.37L366.95 210.92L368.4 204.55L366.64 206.86L366.56 204.23L364.73 205.11L365.95 202.8L366.79 200.65L365.11 201.69L364.12 199.7L366.11 198.35L364.66 197L363.06 197.88L361.61 197H360.54L358.1 196.28L359.19 194.85L357.18 193.97L355.96 195.64L355.43 194.84L358.1 190.3L357.18 188.39L358.86 187.67L359.18 186.71H357.67L356.26 187.67H356.24Z" fill="#B8CAF5" stroke="#6282D0" stroke-linecap="round" stroke-linejoin="round"/>
<path d="M147.179 199.34L234.379 199.46V197.67L235.009 197.37L236.559 200.47L246.529 203.28L252.369 203.88L244.139 209.81L249.759 211.2L257.199 206.11L256.099 209.53L259.949 211.44L268.989 211.82L269.769 213.43L265.799 213.87L259.109 214.9L257.469 219.8L259.339 218.96L257.509 226.92L258.119 233.02L261.179 232.74L262.469 228.64L261.709 224.89L262.859 218.37L267.019 214.62L270.529 216.38L271.599 220.71L269.689 224.34L271.599 223.58L274.049 223.14L274.489 227.76L273.799 229.91L272.539 232.24L285.949 228.06L283.539 223.88L297.579 218.39L309.839 217.43L314.649 208.53L320.029 207.46L323.129 217.73L322.329 220.08L313.199 224.18L310.639 227.52L314.419 232.24L306.629 234.69L301.359 236.84L300.329 242.93L297.689 249.26L294.939 252.72L294.249 247.94L292.419 248.06L293.339 251.88L294.599 255.11L296.999 257.26L292.989 262.51L287.379 268.25L282.909 272.66L277.409 281.74L281.989 297.62L281.419 304.19H278.899L273.739 298.46L273.969 291.41L269.389 284.37L266.519 286.16L262.169 283.17L257.009 283.29L252.199 283.53L252.659 285.8L250.019 287.59L245.439 287.11L239.819 285.8L233.179 288.07L229.399 291.29L227.329 297.74L228.589 301.56L223.209 300.37L220.459 295.59L216.449 286.99L211.979 285.56L208.889 288.55L203.619 285.44L201.319 279.71L196.739 276.96L193.419 277.2V278.75L183.909 278.52L171.869 272.78L165.339 273.14L161.679 268.25L154.569 265.26L152.739 261.2L149.069 254.27L142.539 241.97L142.999 233.85L141.399 227.64L143.459 218.92L141.399 205.43V202.56L145.749 203.4L147.349 205.19L146.899 208.06L148.729 205.07L148.269 201.13L147.179 199.34Z" fill="#B8CAF5" stroke="#6282D0" stroke-linecap="round" stroke-linejoin="round"/>
<path d="M189.98 313.03L188.49 314.94L185.63 308.85L181.27 306.7V302.28L176.69 298.34L173.25 296.19L170.61 293.32H174.4L174.97 289.86L170.61 285.44L165.34 273.14L171.87 272.78L183.91 278.52L193.42 278.75V277.2L196.74 276.96L201.32 279.71L203.62 285.44L208.89 288.55L211.98 285.56L216.45 286.99L223.21 300.37L228.59 301.56L226.65 313.15L229.28 326.28L233.98 332.61L245.9 330.46L249.11 321.75L256.78 319.12L261.48 320.43L258.04 330.7L253.57 334.88H247.85L246.93 339.42L250.14 342.65L243.83 345.39V348.5L237.76 342.05L232.95 342.53L229.17 343.84L213.41 334.88L206.25 330.82L200.87 324.49L201.67 320.67L193.07 305.98L188.83 301.44L189.98 298.7L186.31 297.15L180.93 289.62L177.49 280.31L172.56 277.92L172.68 283.53L176.69 288.07L182.07 297.26L185.85 306.7L188.15 308.61L189.98 313.03Z" fill="#B8CAF5" stroke="#6282D0" stroke-linecap="round" stroke-linejoin="round"/>
<path d="M275.46 312.55L267.21 316.01V319.72L274.89 314.58L279.01 316.97L287.72 321.75L291.62 325.09L288.87 327H301.59L299.18 323.06L290.82 319L287.72 315.66L284.97 315.89L282.68 314.82L275.46 312.55Z" fill="#B8CAF5" stroke="#6282D0" stroke-linecap="round" stroke-linejoin="round"/>
<path d="M287.72 304.19L287.26 306.82L289.21 308.85V306.52L287.72 304.19Z" fill="#B8CAF5" stroke="#6282D0" stroke-linecap="round" stroke-linejoin="round"/>
<path d="M304.11 326.05L302.73 327L305.48 328.79L299.87 332.97L301.59 334.64L304.68 332.97L307.77 334.64V327L304.11 326.05Z" fill="#B8CAF5" stroke="#6282D0" stroke-linecap="round" stroke-linejoin="round"/>
<path d="M288.239 331.06L286.689 332.97L291.039 335.84L293.109 334.05L290.819 331.06H288.239Z" fill="#B8CAF5" stroke="#6282D0" stroke-linecap="round" stroke-linejoin="round"/>
<path d="M307.77 327V334.64L309.95 336.67L311.9 333.45H317.63L319 331.84L314.65 329.03L314.419 327.6L310.87 327H307.77Z" fill="#B8CAF5" stroke="#6282D0" stroke-linecap="round" stroke-linejoin="round"/>
<path d="M322.21 331.84L322.67 334.64H326.91L327.83 331.84H322.21Z" fill="#B8CAF5" stroke="#6282D0" stroke-linecap="round" stroke-linejoin="round"/>
<path d="M253.57 334.88H247.85L246.93 339.42L250.14 342.65L243.83 345.39V348.5L246.64 351.42H249.22L253.57 348.5L256.67 342.88L253.57 341.87V334.88Z" fill="#B8CAF5" stroke="#6282D0" stroke-linecap="round" stroke-linejoin="round"/>
<path d="M256.669 342.88L253.569 341.87V334.88L258.039 330.7L255.809 335.84L256.669 342.88Z" fill="#B8CAF5" stroke="#6282D0" stroke-linecap="round" stroke-linejoin="round"/>
<path d="M249.22 351.42L253.21 348.74L255.81 351.42L257.76 350.89L257.47 353.81L253.92 353.45L249.22 351.42Z" fill="#B8CAF5" stroke="#6282D0" stroke-linecap="round" stroke-linejoin="round"/>
<path d="M256.67 342.88L253.57 348.5L253.21 348.74L255.81 351.42L257.76 350.89V352.8L259.25 355.07L261.48 351.42L265.89 348.5L272.19 345.93L269.44 343.48L265.78 342.23L265.32 343.15L263.43 342.23L263.03 343.15L261.02 342.88L258.9 343.78L258.04 342.88H256.67Z" fill="#B8CAF5" stroke="#6282D0" stroke-linecap="round" stroke-linejoin="round"/>
<path d="M259.25 355.07L261.48 351.42L265.89 348.5L272.19 345.93L271.79 347.3L272.19 349.69L271.05 354.23L270.19 359.9L270.99 363.31L266.87 362.23L264.17 358.29L263.6 360.8L264.86 362.17L263.6 362.41L261.19 358.59L258.67 355.9L259.25 355.07Z" fill="#B8CAF5" stroke="#6282D0" stroke-linecap="round" stroke-linejoin="round"/>
<path d="M266.87 362.23L270.99 363.31L273 367.49L272.83 373.64L270.76 372.26L269.93 369.04L264.46 365.51L264 362.95L266.87 362.23Z" fill="#B8CAF5" stroke="#6282D0" stroke-linecap="round" stroke-linejoin="round"/>
<path d="M273 367.49L277.1 370.95L282.3 369.22L284.89 368.32L290.4 372.06L288.56 377.16L286.65 372.32H282.83L280.85 375.17L282.3 377.16L278.63 378.75L277.48 374.69L272.83 373.64L273 367.49Z" fill="#B8CAF5" stroke="#6282D0" stroke-linecap="round" stroke-linejoin="round"/>
<path d="M285.64 358.99L287.59 363.32L287.2 372.86L283.56 377.19L284.93 380.64L289.15 381.79L293.82 384.3L299.54 391.61H304.47L306.88 393.5L304.86 396.89L307.59 397.9L308.82 386.94L306.49 384.23L309.47 381.59L307.14 379.97L307.78 377.87L314.21 376.85V372.73L312.46 367.65L313.43 361.96L308.56 363.25L306.1 359.93L301.23 359.66L298.89 352.22L301.42 344.64L303.82 343.22L303.37 341.25L301.29 341.66L299.86 343.69L296.1 345.59L292.98 346.3L291.94 351.47L290.06 352.76L289.02 357.16L287.2 354.65L285.64 358.99Z" fill="#B8CAF5" stroke="#6282D0" stroke-linecap="round" stroke-linejoin="round"/>
<path d="M301.42 344.64L298.89 352.22L301.23 359.66L306.1 359.93L308.57 363.25L313.44 361.96L312.47 367.65L314.22 372.73V376.86L316.75 381.8L320.65 380.45C320.65 380.45 325 375.51 324.81 375.51C324.62 375.51 322.28 375.1 322.28 375.1L321.24 369.21L326.56 371.71L327.66 369.58L332.21 367.52L329.55 363.22L332.21 360.34V357.63L334.81 354.52L331.76 354.32L331.57 351.55L326.63 348.5L326.89 347.21L322.6 348.16L320.26 349.31L315.06 347.21L311.88 347.95L310.71 345.65L307.72 344.63L303.56 346.86L303.88 349.23L304.46 351.13L302.9 353.69L301.47 351.13L302.96 347.53L301.4 344.62L301.42 344.64Z" fill="#B8CAF5" stroke="#6282D0" stroke-linecap="round" stroke-linejoin="round"/>
<path d="M313.24 357.49L312.55 359.01L313.92 359.72L314.61 358.61L313.58 357.49H313.24Z" fill="#B8CAF5" stroke="#6282D0" stroke-linecap="round" stroke-linejoin="round"/>
<path d="M334.8 354.52L332.2 357.63V360.34L329.54 363.22L332.2 367.51L334.21 365.42L334.8 369.58V376.31L336.23 380.44L343.18 377.26L341.55 372.45L339.6 370.22L341.16 364.4L340.9 362.37L338.05 360.34L337.72 358.58L334.8 354.52Z" fill="#B8CAF5" stroke="#6282D0" stroke-linecap="round" stroke-linejoin="round"/>
<path d="M340.9 362.37L341.16 364.4L339.6 370.22L341.55 372.45L343.18 377.26L345.32 377.8L344.47 375.57L347.92 375.5L349.47 372.93L348.5 368.26L349.93 364.06L346.42 362.84L343.76 363.86L340.9 362.37Z" fill="#B8CAF5" stroke="#6282D0" stroke-linecap="round" stroke-linejoin="round"/>
<path d="M349.93 364.06L348.5 368.26L349.47 372.93L347.92 375.5L349.36 377.16L351.5 375.69L353.23 376.5L356.64 369.54L352.84 365.18L349.93 364.06Z" fill="#B8CAF5" stroke="#6282D0" stroke-linecap="round" stroke-linejoin="round"/>
<path d="M282.98 379.36L284.93 380.64L289.15 381.79L291.73 383.18L293.37 386.73L288.17 392.35L284.41 396.21L282.98 400.74L279.15 398.38L279.86 394.38L281.16 391.74L280.06 390.93L279.15 393.64L277.85 391.2L278.43 386.19L280.58 383.22L280.32 380.78L282.98 379.36Z" fill="#B8CAF5" stroke="#6282D0" stroke-linecap="round" stroke-linejoin="round"/>
<path d="M279.86 394.38L279.15 398.38L282.98 400.74L284.41 396.21L293.37 386.73L291.73 383.18L293.82 384.3L299.54 391.61H304.47L306.88 393.5L304.86 396.89L307.59 397.9L300.51 400.2L296.16 408.53L301.23 417.12L305.71 415.7L305.97 421.05H308.5L310.32 425.72L308.82 436.07H307.14L309.47 439.32L306.55 446.09L305.19 445.75L299.93 439.73L292.78 435.67L290.19 430.66L289.86 429.17L283.17 412.11L280.06 406.02L276.22 403.72L277.13 401.69L276.22 398.51L279.86 394.38Z" fill="#B8CAF5" stroke="#6282D0" stroke-linecap="round" stroke-linejoin="round"/>
<path d="M308.5 421.05L310.32 425.72L308.82 436.07H307.14L309.47 439.32L307.82 443.15L310.01 447.61L312.78 461.67H314.83L317.56 458.32L321.21 459.59L322.33 462.13L323.5 458.68L327.44 458.88L328.71 450.76L334.02 449.29L339.13 451.57L340.74 446.09L339.47 442.64L338.26 441.59L338.45 439.14L333.73 439.19L332.41 430.86L330.76 429.14L327.98 428.73L321.65 425.33L319.26 419.69L319.41 416.6L314.98 417.61L310.64 421.47L308.5 421.05Z" fill="#B8CAF5" stroke="#6282D0" stroke-linecap="round" stroke-linejoin="round"/>
<path d="M306.55 446.09L307.82 443.15L310.01 447.61L312.79 461.67H314.84L314.65 463.14L314.16 466.08L310.33 468.47L310.7 474.61L306.9 485.62L306.56 488.61L305.39 491.76L308.02 503.18L303.64 515.06L303.98 519.83L301.2 535.77L303.54 542.72L301.88 543.23L303.73 544.85L302.42 547.44L300.08 558.96L297.4 562.41L298.47 566.83L300.81 566.07L301.54 571.55L308.41 572.41L310.6 575.56V584.39H314.84L315.13 585.76H310.94L313.08 587.79L310.74 587.43L308.35 585.75L306.26 585.55L307.43 584.13L305.09 584.49L303.63 583.32L300.81 583.62L302.32 581.69L300.03 581.39L297.4 579.87L298.18 578.65L296.72 577.69L294.48 575.3C294.48 575.3 296.33 575.45 296.48 575.66C296.63 575.87 297.7 575.36 297.7 575.36L296.39 574.19L295.71 572.57L294.49 573.13L293.18 570.9L293.91 569.88L295.66 570.95L296.15 569.12L294.45 569.07L294.21 568.05L293.63 566.98L292.51 565.56L293.09 564.04L294.6 566.32L295.62 565.3L294.45 564.59L295.52 563.63L293.77 563.02L292.21 562.82L291.92 560.28L293.09 559.72L291.92 558.7V556.62L292.65 554.94L294.01 554.38L295.18 557.58L296.01 556.01L295.28 555.3L295.04 553.62L295.87 551.64L294.56 550.37L292.22 550.52L292.9 549L293.58 547.32L294.36 546.2L295.04 547.37L295.33 545.04L295.09 542.81L294.12 542.2L295.78 540.78L296.85 538.85L297.14 541.03L296.51 543.01L297.34 543.52L296.66 545.2L296.81 547.89L296.62 550.12L297.69 549.21L297.11 547.79L298.04 546.52L297.6 545.2L299.45 545.56L299.06 544.49H297.94L298.23 543.27L300.28 542.46L300.18 540.99L299.3 542.46L298.33 542.71L298.72 541.24L299.4 541.14L298.33 540.33V539.26L299.21 539.21L299.26 537.18L299.8 533.78C299.8 533.78 300.24 533.37 300.34 532.97C300.44 532.56 299.66 529.92 299.66 529.92L297.96 531.65L298.15 533.38L297.08 534.45L298.01 535.77L297.28 538.21L295.09 536.94L296.06 531.61L297.28 530.49L296.06 528.51L298.74 521.71L297.38 514.2L298.5 513.24L303.18 497.5L302.5 489.68L303.6 486.94L302.75 483.39L306.16 467.5L306.94 452.93L306.01 446.64L306.64 446.08L306.55 446.09Z" fill="#B8CAF5" stroke="#6282D0" stroke-linecap="round" stroke-linejoin="round"/>
<path d="M327.439 458.88L328.709 450.76L334.019 449.29L339.129 451.57L339.599 458.88L345.509 460.64L346.229 465.65L349.149 465.99L348.109 474.51L345.379 477.49H337.199L340.739 470.59L334.079 465.85L330.249 463.82L327.439 458.88Z" fill="#B8CAF5" stroke="#6282D0" stroke-linecap="round" stroke-linejoin="round"/>
<path d="M319.41 583L319.99 584.49L314.83 584.41H310.59V575.58L313.37 580.03L317.2 583H319.41Z" fill="#B8CAF5" stroke="#6282D0" stroke-linecap="round" stroke-linejoin="round"/>
<path d="M311.29 573.39L308.4 572.43L301.53 571.57L300.8 566.08L298.47 566.85L297.39 562.43L300.07 558.98L302.41 547.46L303.73 544.87L301.88 543.24L303.53 542.73L301.19 535.78L303.97 519.84L303.63 515.07L308.01 503.19L305.38 491.77L306.55 488.63L306.89 485.63L310.69 474.62L310.32 468.47L314.15 466.09L314.83 461.67L317.56 458.32L321.21 459.59L322.33 462.13L323.5 458.68L327.44 458.88L330.25 463.82L334.08 465.85L340.74 470.59L337.2 477.49H345.38L348.11 474.51L348.48 471.46L350.38 470.86L350.9 477.49L345.45 480.74L339.86 488.05L337.85 502.53L341.68 506.73L341.03 509.23L342.85 510.52L342.07 515.05L339.02 518.37L330.19 520.6L327.44 519.59L327.72 521.75L328.43 523.18L327.2 527.91L324.15 528.79L320.32 527.03L320.25 532.31L324.15 532.65V535.76L321.88 533.6L320.06 535.15L322.01 536.17L319.54 537.93L318.95 543.14L315.12 544.76L312.91 547.88L315.64 551.8L318.69 552.48L318.11 556.47L313.95 559.52L313.17 563.11L309.41 566.08L309.6 569.47L311.29 573.39Z" fill="#B8CAF5" stroke="#6282D0" stroke-linecap="round" stroke-linejoin="round"/>
<path d="M334.119 569.13L331.489 571.36V574L334.119 571.57L335.969 569.13H334.119Z" fill="#B8CAF5" stroke="#6282D0" stroke-linecap="round" stroke-linejoin="round"/>
<path d="M337.62 569.13L335.97 571.06L334.8 572.68L337.62 571.57L339.96 569.54L337.62 569.13Z" fill="#B8CAF5" stroke="#6282D0" stroke-linecap="round" stroke-linejoin="round"/>
<path d="M339.86 488.05L337.85 502.53L340.59 503.5L344 505.63L350.53 503.4L351.94 496.84L349.8 493.96L348.34 493.55L345.85 490.66L344.54 491.26L343.22 489.03L341.52 487.25L340.84 488.57L339.86 488.05Z" fill="#B8CAF5" stroke="#6282D0" stroke-linecap="round" stroke-linejoin="round"/>
<path d="M356.64 369.54L353.23 376.5L351.5 375.69L349.36 377.16L347.92 375.5L344.47 375.57L345.32 377.8L343.18 377.26L336.23 380.44L334.8 376.31V369.58L334.21 365.42L332.2 367.51L327.66 369.58L326.55 371.71L321.23 369.21L322.27 375.09L324.8 375.5L320.64 380.44L316.75 381.79L314.21 376.85L307.78 377.87L307.14 379.97L309.47 381.59L306.49 384.23L308.82 386.94L307.59 397.9L300.51 400.2L296.16 408.53L301.23 417.12L305.71 415.7L305.97 421.05H308.5L310.64 421.47L314.98 417.61L319.41 416.6L319.26 419.69L321.65 425.33L327.98 428.73L330.76 429.14L332.41 430.86L333.73 439.19L338.45 439.14L338.26 441.59L339.47 442.64L340.74 446.09L339.13 451.57L339.6 458.88L345.51 460.64L346.23 465.65L349.15 465.99L348.48 471.46L350.38 470.86L350.9 477.49L345.45 480.74L339.86 488.05L340.84 488.57L341.52 487.25L343.22 489.03L344.54 491.26L345.85 490.66L348.34 493.55L349.8 493.96L351.94 496.84L350.53 503.4L354.02 497.86L355.9 492.65L358.34 488.35L356.33 493.19L356.91 493.3L359.57 489.4L360.97 485.65L363.99 482.13V474.31L366.75 468.93L376.2 463.39L382.82 462.13L387.3 450.86L389.54 440.91V429.44L401.62 413.81L399.18 400.81L393.63 398.98L387.11 393L376.29 391.57L374.74 392.59L374.05 388.02L365.68 384.77L363.44 389.85L364.02 384.06L359.44 383.35L361.2 379.09L358.86 376.14L356.64 369.54Z" fill="#B8CAF5" stroke="#6282D0" stroke-linecap="round" stroke-linejoin="round"/>
<circle cx="235" cy="271" r="6" fill="#39A0FF"/>
<path d="M217.421 249.016H214.883V257.404H213.029V241.132H214.883V247.486H217.421V249.016ZM206.621 242.32C207.233 242.32 207.791 242.458 208.295 242.734C208.811 242.998 209.249 243.382 209.609 243.886C209.981 244.378 210.269 244.978 210.473 245.686C210.689 246.394 210.797 247.186 210.797 248.062C210.797 248.938 210.689 249.73 210.473 250.438C210.269 251.146 209.981 251.746 209.609 252.238C209.249 252.73 208.811 253.114 208.295 253.39C207.791 253.654 207.233 253.786 206.621 253.786C206.009 253.786 205.445 253.654 204.929 253.39C204.425 253.114 203.987 252.73 203.615 252.238C203.255 251.746 202.967 251.146 202.751 250.438C202.547 249.73 202.445 248.938 202.445 248.062C202.445 247.186 202.547 246.394 202.751 245.686C202.967 244.978 203.255 244.378 203.615 243.886C203.987 243.382 204.425 242.998 204.929 242.734C205.445 242.458 206.009 242.32 206.621 242.32ZM206.621 252.13C207.341 252.13 207.917 251.77 208.349 251.05C208.793 250.33 209.015 249.334 209.015 248.062C209.015 246.79 208.793 245.794 208.349 245.074C207.917 244.354 207.341 243.994 206.621 243.994C205.901 243.994 205.319 244.354 204.875 245.074C204.443 245.794 204.227 246.79 204.227 248.062C204.227 249.334 204.443 250.33 204.875 251.05C205.319 251.77 205.901 252.13 206.621 252.13ZM232.737 241.132V257.368H230.973V241.132H232.737ZM227.715 241.438H229.443V256.612H227.715V248.674H225.663V253.156H219.399V242.914H225.663V247.162H227.715V241.438ZM223.935 244.39H221.127V251.68H223.935V244.39ZM248.828 241.096V257.422H246.956V241.096H248.828ZM238.208 252.022C239.492 252.01 240.722 251.968 241.898 251.896C243.086 251.812 244.322 251.668 245.606 251.464L245.804 252.976C244.412 253.216 243.074 253.372 241.79 253.444C240.506 253.516 239.15 253.552 237.722 253.552H236.336V247.108H242.006V244.084H236.3V242.572H243.878V248.602H238.208V252.022ZM267.025 249.088H264.559V257.368H262.705V241.114H264.559V247.54H267.025V249.088ZM260.365 242.752C260.365 243.964 260.257 245.14 260.041 246.28C259.837 247.408 259.459 248.482 258.907 249.502C258.367 250.522 257.623 251.482 256.675 252.382C255.727 253.27 254.515 254.086 253.039 254.83L252.031 253.39C253.471 252.67 254.629 251.896 255.505 251.068C256.381 250.228 257.059 249.298 257.539 248.278L252.391 248.782L252.139 247.18L258.097 246.802C258.313 246.01 258.457 245.164 258.529 244.264H252.967V242.752H260.365Z" fill="#131547"/>
</svg>
