<svg width="190" height="176" viewBox="0 0 190 176" fill="none" xmlns="http://www.w3.org/2000/svg">
<path d="M79.7592 1.20996L74.9492 3.63998L78.6192 7.18997L81.2492 9.82996L86.0692 9.25998V3.29996L79.7592 1.20996Z" fill="#B8CAF5" stroke="#6282D0" stroke-linecap="round" stroke-linejoin="round"/>
<path d="M79.7598 11.0898L86.7498 9.82974L89.4998 12.8698L96.6097 6.50977L107.95 10.3997V35.0398L104.29 32.2898L96.9498 32.7997L100.96 26.0998L96.1497 19.2298L85.6097 13.2697L82.0598 15.5598L79.7598 11.0898Z" fill="#B8CAF5" stroke="#6282D0" stroke-linecap="round" stroke-linejoin="round"/>
<path d="M107.949 10.4004V35.0404L115.289 35.7304L117.349 29.3104L122.849 31.1404L128.579 38.7104L137.749 41.0004L129.499 31.7204L126.059 26.9004L128.919 25.7004L127.889 22.7804L121.819 20.7704L121.699 18.6504L114.939 13.2704L107.949 10.4004Z" fill="#B8CAF5" stroke="#6282D0" stroke-linecap="round" stroke-linejoin="round"/>
<path d="M130.64 20.77L134.65 23.69L140.84 22.23L144.39 17.16L141.76 16.25L139.92 19.97L134.65 21.52L130.64 20.77Z" fill="#B8CAF5" stroke="#6282D0" stroke-linecap="round" stroke-linejoin="round"/>
<path d="M136.83 9.83008L143.59 14.6401L145.54 19.4601V15.3301L140.61 11.0901L136.83 9.83008Z" fill="#B8CAF5" stroke="#6282D0" stroke-linecap="round" stroke-linejoin="round"/>
<path d="M149.659 19.9697L151.379 23.6897L154.359 26.2197L153.899 23.0897L149.659 19.9697Z" fill="#B8CAF5" stroke="#6282D0" stroke-linecap="round" stroke-linejoin="round"/>
<path d="M56.4995 33.8896L58.1695 36.4096L55.4695 40.1996L51.2295 40.9996L53.4095 35.7296L56.4995 33.8896Z" fill="#B8CAF5" stroke="#6282D0" stroke-linecap="round" stroke-linejoin="round"/>
<path d="M56.5 33.8896L61.55 31.1396H65.1L63.38 33.8896L58.17 36.4096L56.5 33.8896Z" fill="#B8CAF5" stroke="#6282D0" stroke-linecap="round" stroke-linejoin="round"/>
<path d="M48.4796 46.8804H55.1296L51.8096 43.9004L58.0296 35.7304H63.6096L61.3896 32.7504L65.7496 34.3504L75.9796 34.9704L75.3696 39.8204L72.3896 46.8804L87.9796 58.2604L91.8696 47.8004V37.4104L93.5496 30.1104L95.3896 30.8404L98.2896 44.5104L101.19 43.8304L103.56 46.9604L105.47 60.4004L114.03 67.1304L117.16 76.0604H120.14L121.59 81.6404L127.09 88.3604L129.3 101.35L126.17 117.09L119.76 128.39L117.92 138.86L104.71 143.06L101.8 138.93L97.0696 143.06L86.0696 138.86L83.9296 127.93L80.1096 130.15L80.1796 123.35L79.2696 127.7L76.7496 128.01L80.1796 119.53L79.4996 117.47L72.7696 126.18L66.9696 116.25L57.7996 112.58L43.7496 115.71L34.1196 122.97L23.4296 122.81L16.5496 126.79L7.37964 123.2L9.90964 114.26L0.889648 88.1304L4.85962 88.6704L2.49963 84.0804L4.70963 73.0804L13.7296 68.3504L25.2596 65.6704L32.9796 52.0004L34.6596 54.7504L41.6096 42.7604L45.9596 41.5404L49.2496 45.0504L48.4796 46.8804Z" fill="#B8CAF5" stroke="#6282D0" stroke-linecap="round" stroke-linejoin="round"/>
<path d="M73.3897 43.0996L72.4697 45.5396L76.4397 44.8596L77.9697 43.0996H73.3897Z" fill="#B8CAF5" stroke="#6282D0" stroke-linecap="round" stroke-linejoin="round"/>
<path d="M117.52 160.11L124.74 164.23L131.96 161.31L129.38 173.86L122.68 175.41L117.52 160.11Z" fill="#B8CAF5" stroke="#6282D0" stroke-linecap="round" stroke-linejoin="round"/>
<path d="M171.549 116.56L178.939 122.75L175.239 130.65L170.349 134.26L169.489 141.31L162.269 147.32L154.359 140.62L162.439 131L168.969 128.07L170.519 116.56H171.549Z" fill="#B8CAF5" stroke="#6282D0" stroke-linecap="round" stroke-linejoin="round"/>
<path d="M174.81 93.1797L181.17 105.73L177.99 113.12L182.38 119.31L189.42 110.39L185.13 99.0297L176.88 93.1797H174.81Z" fill="#B8CAF5" stroke="#6282D0" stroke-linecap="round" stroke-linejoin="round"/>
<circle cx="71" cy="87" r="6" fill="#39A0FF"/>
<path d="M44.7455 70.876V72.388H30.0215V70.876H36.4295V67.762C35.6855 67.69 35.0015 67.54 34.3775 67.312C33.7655 67.072 33.2375 66.772 32.7935 66.412C32.3495 66.04 32.0015 65.608 31.7495 65.116C31.5095 64.612 31.3895 64.054 31.3895 63.442C31.3895 62.77 31.5395 62.17 31.8395 61.642C32.1395 61.102 32.5535 60.646 33.0815 60.274C33.6095 59.89 34.2395 59.596 34.9715 59.392C35.7035 59.188 36.5015 59.086 37.3655 59.086C38.2295 59.086 39.0215 59.188 39.7415 59.392C40.4735 59.596 41.1035 59.89 41.6315 60.274C42.1715 60.646 42.5915 61.102 42.8915 61.642C43.1915 62.17 43.3415 62.77 43.3415 63.442C43.3415 64.042 43.2155 64.594 42.9635 65.098C42.7235 65.602 42.3755 66.04 41.9195 66.412C41.4755 66.784 40.9415 67.09 40.3175 67.33C39.7055 67.558 39.0275 67.708 38.2835 67.78V70.876H44.7455ZM33.1895 63.442C33.1895 63.886 33.2915 64.288 33.4955 64.648C33.7115 64.996 33.9995 65.296 34.3595 65.548C34.7315 65.8 35.1695 65.992 35.6735 66.124C36.1895 66.256 36.7535 66.322 37.3655 66.322C37.9655 66.322 38.5175 66.256 39.0215 66.124C39.5375 65.992 39.9815 65.8 40.3535 65.548C40.7255 65.296 41.0135 64.996 41.2175 64.648C41.4215 64.288 41.5235 63.886 41.5235 63.442C41.5235 62.998 41.4215 62.602 41.2175 62.254C41.0135 61.894 40.7255 61.588 40.3535 61.336C39.9815 61.084 39.5375 60.892 39.0215 60.76C38.5175 60.628 37.9655 60.562 37.3655 60.562C36.7535 60.562 36.1895 60.628 35.6735 60.76C35.1695 60.892 34.7315 61.084 34.3595 61.336C33.9995 61.588 33.7115 61.894 33.4955 62.254C33.2915 62.602 33.1895 62.998 33.1895 63.442ZM60.4581 58.132V74.386H58.6941V58.132H60.4581ZM55.3821 58.438H57.1281V73.63H55.3821V65.332H52.9881V63.82H55.3821V58.438ZM51.5661 62.47C51.5661 63.13 51.6261 63.79 51.7461 64.45C51.8781 65.098 52.0701 65.722 52.3221 66.322C52.5861 66.91 52.9161 67.456 53.3121 67.96C53.7201 68.452 54.1941 68.872 54.7341 69.22L53.6901 70.66C52.9341 70.204 52.3101 69.604 51.8181 68.86C51.3381 68.104 50.9601 67.27 50.6841 66.358C50.3961 67.378 49.9881 68.29 49.4601 69.094C48.9321 69.898 48.2721 70.54 47.4801 71.02L46.3461 69.616C46.9221 69.268 47.4201 68.836 47.8401 68.32C48.2721 67.804 48.6321 67.234 48.9201 66.61C49.2081 65.986 49.4181 65.332 49.5501 64.648C49.6941 63.952 49.7661 63.256 49.7661 62.56V59.626H51.5661V62.47ZM78.2587 66.016H75.7207V74.404H73.8667V58.132H75.7207V64.486H78.2587V66.016ZM67.4587 59.32C68.0707 59.32 68.6287 59.458 69.1327 59.734C69.6487 59.998 70.0867 60.382 70.4467 60.886C70.8187 61.378 71.1067 61.978 71.3107 62.686C71.5267 63.394 71.6347 64.186 71.6347 65.062C71.6347 65.938 71.5267 66.73 71.3107 67.438C71.1067 68.146 70.8187 68.746 70.4467 69.238C70.0867 69.73 69.6487 70.114 69.1327 70.39C68.6287 70.654 68.0707 70.786 67.4587 70.786C66.8467 70.786 66.2827 70.654 65.7667 70.39C65.2627 70.114 64.8247 69.73 64.4527 69.238C64.0927 68.746 63.8047 68.146 63.5887 67.438C63.3847 66.73 63.2827 65.938 63.2827 65.062C63.2827 64.186 63.3847 63.394 63.5887 62.686C63.8047 61.978 64.0927 61.378 64.4527 60.886C64.8247 60.382 65.2627 59.998 65.7667 59.734C66.2827 59.458 66.8467 59.32 67.4587 59.32ZM67.4587 69.13C68.1787 69.13 68.7547 68.77 69.1867 68.05C69.6307 67.33 69.8527 66.334 69.8527 65.062C69.8527 63.79 69.6307 62.794 69.1867 62.074C68.7547 61.354 68.1787 60.994 67.4587 60.994C66.7387 60.994 66.1567 61.354 65.7127 62.074C65.2807 62.794 65.0647 63.79 65.0647 65.062C65.0647 66.334 65.2807 67.33 65.7127 68.05C66.1567 68.77 66.7387 69.13 67.4587 69.13ZM93.1253 58.132V74.386H91.2713V58.132H93.1253ZM82.4873 68.698C83.6513 68.686 84.8273 68.626 86.0153 68.518C87.2153 68.41 88.4693 68.224 89.7773 67.96L89.9753 69.508C88.5593 69.796 87.1973 70 85.8893 70.12C84.5933 70.228 83.3093 70.282 82.0373 70.282H80.6513V59.716H82.4873V68.698ZM111.376 66.016H108.838V74.404H106.984V58.132H108.838V64.486H111.376V66.016ZM100.576 59.32C101.188 59.32 101.746 59.458 102.25 59.734C102.766 59.998 103.204 60.382 103.564 60.886C103.936 61.378 104.224 61.978 104.428 62.686C104.644 63.394 104.752 64.186 104.752 65.062C104.752 65.938 104.644 66.73 104.428 67.438C104.224 68.146 103.936 68.746 103.564 69.238C103.204 69.73 102.766 70.114 102.25 70.39C101.746 70.654 101.188 70.786 100.576 70.786C99.9639 70.786 99.3999 70.654 98.8839 70.39C98.3799 70.114 97.9419 69.73 97.5699 69.238C97.2099 68.746 96.9219 68.146 96.7059 67.438C96.5019 66.73 96.3999 65.938 96.3999 65.062C96.3999 64.186 96.5019 63.394 96.7059 62.686C96.9219 61.978 97.2099 61.378 97.5699 60.886C97.9419 60.382 98.3799 59.998 98.8839 59.734C99.3999 59.458 99.9639 59.32 100.576 59.32ZM100.576 69.13C101.296 69.13 101.872 68.77 102.304 68.05C102.748 67.33 102.97 66.334 102.97 65.062C102.97 63.79 102.748 62.794 102.304 62.074C101.872 61.354 101.296 60.994 100.576 60.994C99.8559 60.994 99.2739 61.354 98.8299 62.074C98.3979 62.794 98.1819 63.79 98.1819 65.062C98.1819 66.334 98.3979 67.33 98.8299 68.05C99.2739 68.77 99.8559 69.13 100.576 69.13Z" fill="#131547"/>
</svg>
